<svg width="922" height="1217" viewBox="0 0 922 1217" fill="none" xmlns="http://www.w3.org/2000/svg">
<path d="M460.779 1216.26C206.736 1216.26 0 1009.53 0 755.436C0 501.339 206.736 294.614 460.779 294.614C503.221 294.614 537.575 329.002 537.575 371.418C537.575 413.834 503.221 448.221 460.779 448.221C291.417 448.221 153.593 586.033 153.593 755.436C153.593 924.834 291.417 1062.65 460.779 1062.65C630.191 1062.65 767.964 924.834 767.964 755.436C767.964 682.114 734.174 613.467 698.438 540.806C645.141 432.564 584.779 309.877 663.726 178.292C685.536 141.923 732.74 130.131 769.091 151.949C805.441 173.771 817.267 220.949 795.406 257.328C761.206 314.363 787.266 373.445 836.211 472.973C876.247 554.241 921.557 646.354 921.557 755.436C921.557 1009.53 714.872 1216.26 460.779 1216.26" fill="#F4F4F4"/>
<path d="M477.059 296.38C471.786 295.244 466.359 294.614 460.779 294.614C449.822 294.614 438.968 295.023 428.217 295.776C420.383 346.369 420.537 399.415 428.627 449.911C439.224 448.805 449.925 448.221 460.779 448.221C466.359 448.221 471.786 447.586 477.059 446.455C466.922 397.823 466.922 345.007 477.059 296.38" fill="#9B158F"/>
<path d="M339.388 473.28C354.287 466.854 369.749 461.559 385.722 457.535C360.687 413.235 344.559 361.433 339.9 310.737C323.978 315.069 308.414 320.22 293.208 326.175C300.735 376.825 316.657 427.454 339.388 473.28" fill="#337AA8"/>
<path d="M537.575 371.417C537.575 357.465 533.786 344.428 527.284 333.149C516.225 366.005 508.494 400.296 504.45 434.581C524.468 420.72 537.575 397.612 537.575 371.417Z" fill="#F16B23"/>
<path d="M112.891 453.618C143.149 494.897 180.728 532.296 222.198 562.239C232.488 549.546 243.752 537.682 255.937 526.771C213.187 499.234 174.789 460.945 147.04 418.268C135.059 429.445 123.642 441.237 112.891 453.618" fill="#F16B23"/>
<path d="M275.392 510.673C288.345 500.822 302.117 491.989 316.606 484.268C281.689 447.264 253.582 400.874 236.942 352.78C222.556 360.798 208.681 369.544 195.319 379.001C214.774 426.337 242.318 471.662 275.392 510.673" fill="#00ADEF"/>
<path d="M796.123 385.017C750.864 412.431 708.882 449.025 674.272 490.653C681.799 506.961 689.683 522.972 697.414 538.696C728.235 494.913 770.114 456.496 815.885 430.766C808.205 414.407 801.55 399.236 796.123 385.017Z" fill="#337AA8"/>
<path d="M267.61 994.07C254.913 983.779 243.085 972.499 232.129 960.333C204.636 1003.08 166.341 1041.49 123.642 1069.2C134.854 1081.21 146.629 1092.63 159.019 1103.39C200.284 1073.13 237.659 1035.51 267.61 994.07" fill="#337AA8"/>
<path d="M765.814 723.343C767.145 733.962 767.964 744.638 767.964 755.436C767.964 761.063 767.81 766.644 767.503 772.2C817.216 761.473 871.485 761.406 921.249 772.021C921.454 766.516 921.557 760.992 921.557 755.436C921.557 744.387 921.096 733.522 920.225 722.82C869.489 715.007 816.397 715.171 765.814 723.343Z" fill="#00ADEF"/>
<path d="M175.505 641.787C181.598 626.529 188.817 611.849 197.213 597.902C148.166 584.282 100.091 559.105 60.9761 526.546C52.8357 540.719 45.4633 555.383 38.8076 570.452C79.9705 600.912 127.021 625.479 175.505 641.787Z" fill="#9B158F"/>
<path d="M757.264 681.172C801.345 655.975 853.055 639.565 903.74 634.675C899.133 618.761 893.91 603.242 888.176 588.091C837.695 595.843 787.215 611.834 741.597 634.66C747.69 650.138 752.963 665.617 757.264 681.172" fill="#F16B23"/>
<path d="M731.819 611.316C769.091 576.166 815.834 547.902 864.267 531.266C857.356 516.285 850.291 501.661 843.328 487.376C795.816 506.162 750.199 533.192 710.674 565.761C718.098 581.061 725.214 596.217 731.819 611.316Z" fill="#9B158F"/>
<path d="M634.697 382.892C639.202 401.653 645.141 420.137 652.052 438.298C684.563 393.02 730.641 353.574 780.763 327.727C778.408 306.821 780.814 287.702 789.262 269.09C732.074 295.515 678.01 335.52 634.697 382.892Z" fill="#00ADEF"/>
<path d="M646.164 1000.19C633.211 1010.04 619.44 1018.87 605.002 1026.59C639.919 1063.59 668.026 1109.99 684.665 1158.09C699 1150.06 712.926 1141.32 726.289 1131.86C706.782 1084.52 679.238 1039.2 646.164 1000.19" fill="#00ADEF"/>
<path d="M460.778 1216.26C471.734 1216.26 482.588 1215.84 493.391 1215.09C501.173 1164.5 501.071 1111.46 492.93 1060.96C482.383 1062.07 471.632 1062.65 460.778 1062.65C455.146 1062.65 449.566 1062.48 444.036 1062.17C454.737 1111.9 454.839 1166.15 444.19 1215.92C449.719 1216.12 455.249 1216.26 460.778 1216.26" fill="#9B158F"/>
<path d="M582.219 1037.58C567.321 1044.01 551.859 1049.3 535.886 1053.33C560.921 1097.64 577.049 1149.43 581.707 1200.13C597.63 1195.79 613.194 1190.64 628.399 1184.69C620.822 1134.04 604.951 1083.4 582.219 1037.58Z" fill="#337AA8"/>
<path d="M167.007 665.658C116.168 664.162 63.4341 651.213 17.6634 628.961C13.158 644.624 9.52278 660.635 6.70691 676.932C54.0135 696.656 105.57 709.241 156.562 713.465C158.815 697.086 162.297 681.111 167.007 665.658" fill="#337AA8"/>
<path d="M754.55 845.204C805.441 846.699 858.123 859.643 903.945 881.901C908.399 866.233 912.034 850.227 914.85 833.935C867.594 814.211 816.039 801.621 765.046 797.407C762.793 813.776 759.312 829.757 754.55 845.204" fill="#337AA8"/>
<path d="M746.103 869.075C740.01 884.333 732.74 899.008 724.395 912.95C773.391 926.58 821.466 951.751 860.632 984.306C868.772 970.133 876.145 955.474 882.749 940.405C841.638 909.95 794.587 885.383 746.103 869.075" fill="#9B158F"/>
<path d="M808.717 1057.25C778.459 1015.97 740.829 978.577 699.41 948.628C689.119 961.326 677.856 973.185 665.671 984.096C708.421 1011.63 746.819 1049.92 774.517 1092.6C786.548 1081.42 797.965 1069.64 808.717 1057.25Z" fill="#F16B23"/>
<path d="M162.911 830.525C118.625 855.542 66.8126 871.707 16.127 876.341C20.4788 892.265 25.5986 907.856 31.5887 923.053C82.2232 915.49 132.858 899.607 178.679 876.853C172.228 861.978 166.955 846.495 162.911 830.525Z" fill="#F16B23"/>
<path d="M155.282 787.596C154.207 777.023 153.593 766.296 153.593 755.436C153.593 749.804 153.797 744.217 154.053 738.662C104.34 749.394 50.1226 749.46 0.358483 738.841C0.153693 744.35 0 749.875 0 755.436C0 766.393 0.409481 777.258 1.17745 788.026C51.7607 795.84 104.801 795.712 155.282 787.596" fill="#00ADEF"/>
<path d="M418.847 1059.71C402.464 1057.46 386.491 1053.97 371.029 1049.24C369.544 1100.11 356.591 1152.81 334.32 1198.61C349.987 1203.09 366.012 1206.73 382.292 1209.54C402.004 1162.27 414.598 1110.71 418.847 1059.71Z" fill="#F16B23"/>
<path d="M347.171 1040.77C331.914 1034.67 317.22 1027.43 303.294 1019.07C289.676 1068.09 264.487 1116.16 231.925 1155.3C246.107 1163.44 260.749 1170.83 275.853 1177.46C306.264 1136.3 330.839 1089.26 347.171 1040.77" fill="#00ADEF"/>
<path d="M189.636 899.648C152.671 934.547 106.286 962.663 58.1602 979.324C66.1982 993.681 74.9529 1007.59 84.4244 1020.95C131.731 1001.46 177.041 973.912 216.054 940.85C206.224 927.881 197.366 914.102 189.636 899.648Z" fill="#9B158F"/>
<path d="M806.362 755.436C806.362 946.314 651.643 1101.05 460.779 1101.05C269.914 1101.05 115.195 946.314 115.195 755.436C115.195 564.558 269.914 409.819 460.779 409.819C651.643 409.819 806.362 564.558 806.362 755.436" fill="#ED1C24"/>
<path d="M499.177 1062.65C492.726 1062.65 486.326 1062.45 479.977 1062.06C640.687 1052.14 767.964 918.654 767.964 755.436C767.964 592.218 640.687 458.728 479.977 448.81C486.326 448.421 492.726 448.221 499.177 448.221C668.845 448.221 806.362 585.767 806.362 755.436C806.362 925.106 668.845 1062.65 499.177 1062.65" fill="#F1471D"/>
<path d="M793.562 256.212C794.433 256.212 795.252 256.125 796.071 256.084C816.908 219.884 805.031 173.53 769.09 151.953C732.74 130.131 685.535 141.923 663.725 178.292C647.905 204.646 637.768 230.626 631.982 256.212H793.562Z" fill="#41AE3C"/>
<path d="M767.964 755.436C767.964 925.106 630.447 1062.65 460.778 1062.65C291.161 1062.65 153.593 925.106 153.593 755.436C153.593 585.767 291.161 448.221 460.778 448.221C630.447 448.221 767.964 585.767 767.964 755.436" fill="#F68712"/>
<path d="M460.778 1062.65C454.532 1062.65 448.389 1062.41 442.194 1062.04L425.094 909.95L379.221 990.763L390.228 898.527L287.628 1009.19C279.743 1003.79 272.115 998.054 264.742 991.951L339.491 860.376L254.093 899.121L316.964 831.313L171.921 860.074C168.593 850.995 165.726 841.723 163.32 832.276L298.84 770.761L206.992 751.888L298.328 733.793L165.112 672.237C167.774 662.709 170.898 653.374 174.43 644.245L318.039 673.738L255.322 604.973L340.412 644.291L268.634 515.839C276.262 509.69 284.249 503.899 292.492 498.487L390.894 606.365L380.552 514.442L426.22 596.171L443.781 448.713C449.412 448.406 455.095 448.221 460.778 448.221C464.925 448.221 468.97 448.37 473.066 448.529L489.705 595.828L535.629 514.903L524.622 607.185L626.761 496.971C634.799 502.168 642.632 507.724 650.158 513.622L575.359 645.3L660.756 606.565L597.885 674.388L747.332 644.742C750.711 653.415 753.629 662.268 756.24 671.295L616.01 734.925L707.858 753.782L616.522 771.888L757.008 836.787C754.55 845.722 751.734 854.503 748.56 863.089L596.811 831.938L659.528 900.687L574.437 861.359L650.261 997.137C643.042 1002.82 635.567 1008.18 627.836 1013.2L523.905 899.3L534.298 991.234L488.528 909.392L470.301 1062.41C467.127 1062.5 463.953 1062.65 460.778 1062.65" fill="#FABC09"/>
<path d="M528.974 799.168L577.407 812.02L538.036 781.621L684.922 785.902L542.899 748.201L589.285 730.265L539.213 728.806L660.859 645.719L524.11 698.617L550.937 657.138L509.57 685.386L559.129 546.648L479.363 670.005L476.65 620.431L459.908 667.245L418.541 526.239L426.579 673.271L395.041 634.475L408.916 681.889L292.901 592.264L385.877 706.502L337.443 693.65L376.815 724.054L229.928 719.768L371.951 757.474L325.565 775.41L375.637 776.875L253.991 859.956L390.74 807.074L363.913 848.543L405.28 820.294L355.721 959.032L435.487 835.696L438.2 885.239L454.891 838.492L496.258 979.457L488.22 832.347L519.809 871.2L505.884 823.786L621.949 913.437L528.974 799.168Z" fill="#FFF200"/>
<path d="M774.876 270.528L816.448 281.567L782.658 255.464L908.758 259.136L786.805 226.765L826.636 211.359L783.63 210.109L888.073 138.759L770.677 184.18L793.716 148.564L758.185 172.824L800.782 53.6858L732.279 159.613L729.924 117.039L715.589 157.248L680.007 36.1541L686.918 162.419L659.835 129.107L671.764 169.823L572.133 92.8557L651.95 190.954L610.378 179.92L644.168 206.028L518.068 202.342L640.021 234.732L600.189 250.129L643.195 251.384L538.752 322.729L656.148 277.318L633.109 312.929L668.641 288.669L626.044 407.807L694.547 301.9L696.902 344.439L711.237 304.296L746.768 425.354L739.856 299.027L766.991 332.391L755.062 291.67L854.693 368.658L774.876 270.528Z" fill="#F68712"/>
<path d="M647.598 258.716C676.679 239.71 685.485 224.625 674.17 211.922C672.839 213.499 671.508 215.025 670.177 216.387C654.51 232.377 637.667 247.282 620.362 260.769C601.214 275.73 583.499 297.512 562.764 308.915C579.301 303.498 596.299 291.726 612.477 284.768C625.788 279.018 638.639 272.5 651.694 266.913C633.11 309.304 607.101 406.02 600.19 448.221C662.702 311.721 681.338 298.388 699.564 269.299C700.434 271.035 701.458 272.735 702.38 274.476C702.277 239.034 684.922 234.308 647.598 258.716" fill="#F9A72B"/>
<path d="M694.392 174.196L689.426 174.646L672.172 156.521L671.354 156.183C678.931 165.261 688.146 177.032 694.136 185.281C694.7 182.081 694.802 178.394 694.392 174.196" fill="#F9A72B"/>
<path d="M690.297 194.344C688.812 195.46 687.379 196.735 685.996 198.097C687.686 197.124 689.068 195.829 690.297 194.344Z" fill="#F9A72B"/>
<path d="M701.663 173.546L699.052 173.771C710.879 193.499 725.572 192.076 744.72 169.762C730.18 157.478 716.767 143.28 658.248 74.1259L659.374 76.4249L725.47 170.356L709.65 170.499L669.409 96.7112L705.554 169.731C703.045 168.692 699.103 167.161 694.752 165.481C695.366 166.874 696.032 168.093 696.646 169.342L701.663 173.546" fill="#F9A72B"/>
<path d="M692.959 164.769C691.884 164.37 690.809 163.95 689.734 163.53L693.318 166.562C693.216 165.993 693.062 165.369 692.959 164.769Z" fill="#F9A72B"/>
<path d="M784.552 224.963C802.829 208.722 818.444 188.205 835.237 169.813C850.648 152.942 868.976 136.7 881.059 117.218C853.361 148.779 820.39 156.572 788.289 180.709C774.62 142.886 768.373 111.719 763.612 72.8407C762.23 102.507 756.649 132.594 751.427 161.416C751.888 160.781 752.349 160.233 752.86 159.573C752.297 160.3 751.888 160.97 751.376 161.682C750.659 165.645 749.942 169.583 749.277 173.489C747.997 172.465 746.768 171.472 745.59 170.463C725.879 202.849 738.474 216.674 785.422 215.05C743.594 216.499 730.897 228.783 746.358 254.318C746.358 252.013 746.307 249.694 746.409 247.4L747.331 247.625L746.512 246.694L758.441 243.765L763.765 251.476C788.494 257.497 811.789 264.763 835.903 274.681C820.902 260.426 794.842 243.166 784.552 224.963" fill="#F9A72B"/>
<path d="M703.967 277.384C715.23 298.07 728.285 318.142 739.6 339.191C750.3 359.231 759.311 383.921 771.036 401.335C763.458 355.391 747.792 305.74 746.461 259.653C724.395 241.594 710.827 247.247 703.967 277.384Z" fill="#F9A72B"/>
<path d="M689.171 150.464C690.809 155.666 692.038 160.392 692.96 164.77C693.574 165.026 694.137 165.246 694.752 165.481C692.806 161.114 690.963 156.122 689.171 150.464Z" fill="#FFF200"/>
<path d="M751.375 161.682L751.427 161.416C749.123 164.483 746.921 167.243 744.72 169.762L745.59 170.463C747.28 167.673 749.174 164.754 751.375 161.682Z" fill="#FFF200"/>
<path d="M762.383 275.126C755.369 267.385 750.096 260.477 746.359 254.318C746.359 256.094 746.41 257.876 746.461 259.653C751.325 263.678 756.598 268.747 762.383 275.126" fill="#FFF200"/>
<path d="M642.324 194.58C657.991 199.884 668.538 205.614 674.169 211.922C677.958 207.396 681.747 202.322 685.996 198.097C677.651 202.915 663.213 201.661 642.324 194.58" fill="#FFF200"/>
<path d="M701.048 294.562C701.816 288.137 702.789 282.438 703.967 277.384C703.455 276.411 702.891 275.449 702.379 274.476C702.379 280.354 701.97 286.979 701.048 294.562Z" fill="#FFF200"/>
<path d="M697.824 190.442C696.8 188.947 695.622 187.258 694.138 185.281C693.523 188.973 692.192 191.963 690.298 194.344C692.602 192.572 695.111 191.262 697.824 190.442Z" fill="#FFF200"/>
<path d="M699.667 189.807C699.052 189.941 698.438 190.243 697.824 190.442C698.131 190.908 698.489 191.451 698.796 191.861L699.667 189.807" fill="#FFF200"/>
<path d="M696.646 169.342C696.032 168.093 695.366 166.874 694.752 165.481C694.137 165.246 693.574 165.026 692.96 164.77C693.062 165.369 693.216 165.993 693.318 166.562L696.646 169.342Z" fill="#FFF200"/>
<path d="M752.86 159.573C752.348 160.233 751.888 160.781 751.427 161.416L751.375 161.682C751.887 160.97 752.297 160.3 752.86 159.573Z" fill="#FFF200"/>
<path d="M724.958 237.851C715.538 240.831 705.811 236.535 703.199 228.25C700.537 219.961 706.066 210.831 715.487 207.846C724.856 204.861 734.635 209.157 737.246 217.452C739.908 225.736 734.379 234.866 724.958 237.851V237.851ZM785.423 215.05C738.474 216.673 725.88 202.849 745.591 170.463L744.72 169.762C725.573 192.076 710.879 193.499 699.052 173.771L694.393 174.196C694.803 178.394 694.701 182.081 694.137 185.281C695.622 187.258 696.8 188.947 697.824 190.442C698.438 190.243 699.052 189.941 699.667 189.808L698.796 191.861C698.489 191.451 698.131 190.908 697.824 190.442C695.11 191.262 692.601 192.572 690.298 194.344C689.069 195.829 687.686 197.124 685.997 198.097C681.747 202.321 677.959 207.396 674.17 211.922C685.485 224.625 676.679 239.709 647.599 258.716C684.922 234.308 702.278 239.034 702.38 274.476C702.892 275.449 703.455 276.411 703.967 277.384C710.828 247.246 724.395 241.594 746.461 259.653C746.41 257.876 746.359 256.094 746.359 254.317C730.897 228.783 743.594 216.499 785.423 215.05" fill="#FFF200"/>
<path d="M655.586 208.445L650.568 209.495L653.64 211.553L655.586 208.445Z" fill="#F9A72B"/>
<path d="M651.029 215.649L638.639 220.084L632.086 213.366L499.177 241.194L645.909 223.816L651.029 215.649Z" fill="#F9A72B"/>
<path d="M654.869 70.0144L669.409 96.7113L659.374 76.425L654.869 70.0144Z" fill="#F9A72B"/>
<path d="M725.47 170.356L659.373 76.4248L669.408 96.7111L709.649 170.499L725.47 170.356Z" fill="#F9A72B"/>
<path d="M673.555 188.876L556.774 0.936988L661.319 189.971L673.555 188.876Z" fill="#F9A72B"/>
<path d="M635.925 118.395L672.173 156.521C676.217 158.262 683.027 160.924 689.734 163.53L635.925 118.395" fill="#F9A72B"/>
<path d="M694.393 174.196C694.188 171.8 693.83 169.291 693.318 166.562L689.734 163.53C683.027 160.924 676.218 158.262 672.173 156.521L689.427 174.646L694.393 174.196" fill="#F9A72B"/>
<path d="M696.646 169.342C697.465 170.914 698.232 172.409 699.052 173.771L701.663 173.545L696.646 169.342" fill="#F9A72B"/>
<path d="M693.318 166.562C693.83 169.291 694.188 171.8 694.393 174.196L699.052 173.771C698.233 172.409 697.465 170.914 696.646 169.342L693.318 166.562Z" fill="#F9A72B"/>
<path d="M656.711 213.632L653.639 211.553L651.028 215.649L656.711 213.632Z" fill="#F9A72B"/>
<path d="M584.42 164.534L632.085 213.366L650.568 209.495L584.42 164.534Z" fill="#F9A72B"/>
<path d="M651.028 215.65L653.64 211.553L650.568 209.495L632.085 213.366L638.638 220.084L651.028 215.65Z" fill="#F9A72B"/>
<path d="M805.03 310.671L763.765 251.476C758.338 250.144 752.912 248.829 747.331 247.625L805.03 310.671Z" fill="#F9A72B"/>
<path d="M746.512 246.693L747.332 247.625C752.912 248.829 758.339 250.144 763.766 251.476L758.441 243.765L746.512 246.693" fill="#F9A72B"/>
<path d="M695.622 226.484C696.236 243.785 693.625 248.076 676.832 257.702C696.083 255.864 700.69 257.886 710.162 272.397C709.547 255.086 712.107 250.795 728.951 241.174C709.65 243.002 705.093 240.984 695.622 226.484" fill="white"/>
</svg>
