<svg width="583" height="769" viewBox="0 0 583 769" fill="none" xmlns="http://www.w3.org/2000/svg">
<path d="M291.269 768.259C130.664 768.259 0 637.579 0 476.952C0 316.326 130.664 185.646 291.269 185.646C318.099 185.646 339.815 207.384 339.815 234.197C339.815 261.01 318.099 282.748 291.269 282.748C184.204 282.748 97.0929 369.865 97.0929 476.952C97.0929 584.036 184.204 671.156 291.269 671.156C398.362 671.156 485.455 584.036 485.455 476.952C485.455 430.602 464.094 387.207 441.504 341.275C407.813 272.85 369.655 195.295 419.561 112.114C433.348 89.1237 463.188 81.6695 486.167 95.4612C509.145 109.256 516.621 139.079 502.802 162.076C481.182 198.13 497.656 235.479 528.596 298.395C553.905 349.768 582.547 407.997 582.547 476.952C582.547 637.579 451.893 768.259 291.269 768.259Z" fill="#F4F4F4"/>
<path d="M301.561 186.763C298.227 186.044 294.796 185.646 291.269 185.646C284.343 185.646 277.481 185.905 270.685 186.381C265.733 218.363 265.831 251.896 270.944 283.816C277.643 283.117 284.408 282.748 291.269 282.748C294.796 282.748 298.227 282.347 301.561 281.631C295.152 250.889 295.152 217.502 301.561 186.763Z" fill="#9B158F"/>
<path d="M214.533 298.589C223.951 294.527 233.725 291.18 243.823 288.636C227.996 260.632 217.802 227.885 214.857 195.839C204.791 198.577 194.937 201.833 185.328 205.597C190.114 237.615 200.15 269.62 214.533 298.589Z" fill="#337AA8"/>
<path d="M339.815 234.197C339.815 225.377 337.42 217.136 333.31 210.006C326.319 230.776 321.432 252.452 318.875 274.125C331.53 265.364 339.815 250.756 339.815 234.197Z" fill="#F16B23"/>
<path d="M71.3406 286.16C90.4743 312.254 114.24 335.895 140.435 354.824C146.947 346.8 154.077 339.3 161.763 332.403C134.745 314.996 110.466 290.791 92.9501 263.813C85.3606 270.879 78.1403 278.333 71.3406 286.16Z" fill="#F16B23"/>
<path d="M174.084 322.227C182.282 315.999 190.985 310.416 200.134 305.535C178.065 282.143 160.297 252.818 149.766 222.415C140.681 227.484 131.894 233.013 123.45 238.991C135.771 268.914 153.187 297.566 174.084 322.227Z" fill="#00ADEF"/>
<path d="M503.255 242.794C474.645 260.123 448.106 283.256 426.228 309.571C430.986 319.883 435.97 330.001 440.857 339.941C460.34 312.264 486.814 287.979 515.748 271.714C510.893 261.373 506.686 251.782 503.255 242.794Z" fill="#337AA8"/>
<path d="M169.165 627.804C161.139 621.298 153.64 614.167 146.743 606.477C129.337 633.5 105.139 657.782 78.1599 675.3C85.2283 682.886 92.6718 690.108 100.504 696.908C126.599 677.779 150.235 654.002 169.165 627.804Z" fill="#337AA8"/>
<path d="M484.095 456.665C484.937 463.381 485.455 470.126 485.455 476.952C485.455 480.51 485.357 484.038 485.163 487.549C516.589 480.768 550.895 480.726 582.353 487.436C582.483 483.957 582.547 480.464 582.547 476.952C582.547 469.971 582.256 463.099 581.706 456.334C549.633 451.395 516.071 451.499 484.095 456.665Z" fill="#00ADEF"/>
<path d="M110.922 405.11C114.78 395.464 119.356 386.185 124.644 377.368C93.6589 368.758 63.272 352.843 38.5327 332.261C33.3868 341.22 28.7166 350.49 24.5254 360.016C50.543 379.271 80.2697 394.801 110.922 405.11Z" fill="#9B158F"/>
<path d="M478.69 430.007C506.556 414.079 539.244 403.705 571.285 400.614C568.372 390.554 565.071 380.744 561.446 371.166C529.535 376.067 497.624 386.175 468.787 400.604C472.638 410.389 475.972 420.174 478.69 430.007Z" fill="#F16B23"/>
<path d="M462.605 385.848C486.167 363.628 515.715 345.761 546.332 335.245C541.963 325.774 537.497 316.527 533.095 307.499C503.061 319.375 474.224 336.462 449.239 357.051C453.932 366.722 458.43 376.303 462.605 385.848Z" fill="#9B158F"/>
<path d="M401.21 241.451C404.059 253.31 407.813 264.995 412.182 276.475C432.733 247.853 461.861 222.917 493.546 206.578C492.057 193.363 493.578 181.277 498.918 169.511C462.767 186.216 428.591 211.505 401.21 241.451Z" fill="#00ADEF"/>
<path d="M408.46 631.671C400.272 637.899 391.566 643.482 382.439 648.363C404.512 671.752 422.28 701.08 432.798 731.486C441.86 726.414 450.663 720.886 459.11 714.907C446.779 684.984 429.367 656.332 408.46 631.671Z" fill="#00ADEF"/>
<path d="M291.269 768.259C298.195 768.259 305.056 767.996 311.885 767.52C316.804 735.538 316.74 702.009 311.594 670.085C304.927 670.787 298.13 671.156 291.269 671.156C287.709 671.156 284.181 671.046 280.686 670.855C287.45 702.291 287.515 736.584 280.783 768.047C284.278 768.171 287.774 768.259 291.269 768.259Z" fill="#9B158F"/>
<path d="M368.037 655.309C358.619 659.371 348.845 662.715 338.747 665.265C354.573 693.273 364.768 726.012 367.713 758.059C377.779 755.32 387.617 752.065 397.229 748.304C392.439 716.283 382.407 684.278 368.037 655.309Z" fill="#337AA8"/>
<path d="M105.569 420.199C73.4184 419.254 40.0994 411.069 11.156 397.002C8.32416 406.903 6.01655 417.024 4.23975 427.327C34.1217 439.795 66.7124 447.75 98.9505 450.421C100.371 440.066 102.579 429.968 105.569 420.199Z" fill="#337AA8"/>
<path d="M476.975 533.699C509.145 534.644 542.448 542.826 571.414 556.896C574.229 546.992 576.527 536.874 578.307 526.575C548.435 514.107 515.844 506.148 483.61 503.484C482.186 513.832 479.985 523.934 476.975 533.699Z" fill="#337AA8"/>
<path d="M471.635 548.788C467.784 558.434 463.188 567.71 457.912 576.527C488.917 585.14 519.275 601.052 544.034 621.631C549.18 612.675 553.84 603.405 558.015 593.879C532.027 574.627 502.284 559.097 471.635 548.788Z" fill="#9B158F"/>
<path d="M511.216 667.745C492.089 641.65 468.301 618.009 442.118 599.078C435.613 607.105 428.493 614.601 420.791 621.498C447.815 638.906 472.088 663.107 489.597 690.088C497.202 683.022 504.42 675.571 511.216 667.745Z" fill="#F16B23"/>
<path d="M102.976 524.419C74.9749 540.234 42.2286 550.452 10.188 553.381C12.9325 563.448 16.1851 573.304 19.9491 582.91C51.9639 578.129 83.9688 568.089 112.932 553.705C108.873 544.302 105.524 534.515 102.976 524.419Z" fill="#F16B23"/>
<path d="M98.1608 497.282C97.4585 490.598 97.0928 483.817 97.0928 476.952C97.0928 473.392 97.1994 469.86 97.3871 466.349C65.9614 473.133 31.6748 473.175 0.207018 466.462C0.0807969 469.945 0 473.437 0 476.952C0 483.879 0.258838 490.747 0.731357 497.554C32.7105 502.493 66.2431 502.412 98.1608 497.282Z" fill="#00ADEF"/>
<path d="M264.763 669.295C254.406 667.874 244.309 665.67 234.535 662.68C233.596 694.833 225.408 728.152 211.339 757.105C221.233 759.933 231.363 762.238 241.655 764.012C254.115 734.13 262.076 701.537 264.763 669.295Z" fill="#F16B23"/>
<path d="M219.452 657.326C209.805 653.471 200.532 648.894 191.713 643.605C183.098 674.594 167.188 704.98 146.61 729.722C155.569 734.868 164.835 739.542 174.356 743.73C193.61 717.71 209.141 687.978 219.452 657.326Z" fill="#00ADEF"/>
<path d="M119.88 568.115C96.4908 590.177 67.1689 607.949 36.7627 618.482C41.8309 627.558 47.3618 636.349 53.3428 644.796C83.2603 632.477 111.909 615.061 136.574 594.161C130.347 585.962 124.758 577.252 119.88 568.115Z" fill="#9B158F"/>
<path d="M509.728 476.952C509.728 597.615 411.923 695.432 291.269 695.432C170.624 695.432 72.8196 597.615 72.8196 476.952C72.8196 356.29 170.624 258.473 291.269 258.473C411.923 258.473 509.728 356.29 509.728 476.952Z" fill="#2E3192"/>
<path d="M509.728 476.952C509.728 584.208 422.797 671.156 315.542 671.156C208.306 671.156 121.366 584.208 121.366 476.952C121.366 369.697 208.306 282.748 315.542 282.748C422.797 282.748 509.728 369.697 509.728 476.952Z" fill="#191A50"/>
<path d="M291.269 671.156C184.033 671.156 97.0928 584.208 97.0928 476.952C97.0928 369.697 184.033 282.748 291.269 282.748C295.347 282.748 299.392 282.875 303.405 283.121C404.997 289.39 485.454 373.775 485.454 476.952C485.454 580.13 404.997 664.515 303.405 670.784C299.392 671.03 295.347 671.156 291.269 671.156C293.275 671.156 295.282 671.063 297.288 671.001L308.81 574.275L337.744 626.011L331.174 567.895L396.873 639.899C401.76 636.721 406.485 633.332 411.049 629.742L363.117 543.911L416.907 568.772L377.261 525.312L473.188 545.005C475.195 539.577 476.975 534.026 478.528 528.378L389.721 487.352L447.459 475.907L389.397 463.986L478.043 423.763C476.392 418.057 474.548 412.46 472.412 406.977L377.94 425.718L417.683 382.844L363.7 407.33L410.984 324.091C406.226 320.362 401.275 316.851 396.194 313.565L331.627 383.236L338.585 324.9L309.522 376.057L299.036 282.943C296.447 282.842 293.89 282.748 291.269 282.748C287.676 282.748 284.084 282.865 280.524 283.059L269.423 376.274L240.554 324.609L247.091 382.718L184.874 314.523C179.664 317.945 174.631 321.605 169.793 325.493L215.18 406.693L161.384 381.838L201.05 425.307L110.258 406.663C108.016 412.435 106.048 418.335 104.355 424.359L188.564 463.271L130.845 474.709L188.913 486.64L103.216 525.526C104.753 531.498 106.579 537.36 108.66 543.098L200.354 524.918L160.627 567.782L214.598 543.289L167.356 626.464C172.003 630.322 176.832 633.95 181.826 637.362L246.671 567.406L239.712 625.713L268.711 574.627L279.52 670.771C283.404 671.001 287.32 671.156 291.269 671.156Z" fill="url(#paint0_linear_213_3)"/>
<path d="M501.636 161.37C502.187 161.37 502.704 161.315 503.222 161.29C516.394 138.406 508.886 109.104 486.166 95.4641C463.188 81.6692 433.348 89.1234 419.56 112.114C409.56 128.773 403.152 145.197 399.495 161.37H501.636Z" fill="#41AE3C"/>
<path d="M291.269 671.156C287.32 671.156 283.404 671.001 279.521 670.771L268.711 574.627L239.713 625.713L246.671 567.406L181.826 637.362C176.832 633.95 172.003 630.322 167.356 626.464L214.598 543.289L160.627 567.782L200.354 524.918L108.66 543.098C106.579 537.36 104.754 531.498 103.216 525.526L188.914 486.64L130.845 474.709L188.564 463.271L104.355 424.359C106.048 418.335 108.016 412.435 110.259 406.663L201.05 425.307L161.384 381.838L215.18 406.693L169.793 325.493C174.631 321.605 179.664 317.945 184.874 314.523L247.092 382.718L240.554 324.609L269.423 376.274L280.524 283.059C284.084 282.865 287.676 282.748 291.269 282.748C293.89 282.748 296.447 282.842 299.036 282.943L309.522 376.057L338.586 324.9L331.627 383.236L396.194 313.565C401.275 316.851 406.227 320.362 410.984 324.091L363.7 407.33L417.684 382.844L377.94 425.718L472.412 406.977C474.548 412.46 476.393 418.057 478.043 423.763L389.397 463.986L447.459 475.907L389.721 487.352L478.529 528.378C476.975 534.026 475.195 539.577 473.188 545.005L377.261 525.312L416.907 568.772L363.118 543.911L411.049 629.742C406.486 633.332 401.761 636.721 396.874 639.899L331.174 567.895L337.744 626.011L308.81 574.275L297.289 671.001C295.282 671.063 293.276 671.156 291.269 671.156Z" fill="url(#paint1_linear_213_3)"/>
<path d="M334.378 504.597L364.995 512.721L340.106 493.505L432.96 496.211L343.181 472.379L372.503 461.041L340.851 460.118L417.748 407.596L331.303 441.034L348.262 414.813L322.112 432.671L353.44 344.968L303.017 422.947L301.302 391.609L290.719 421.203L264.568 332.066L269.65 425.012L249.713 400.488L258.484 430.46L185.153 373.804L243.92 446.019L213.306 437.895L238.191 457.114L145.348 454.405L235.117 478.241L205.798 489.579L237.447 490.505L160.562 543.024L246.995 509.595L230.035 535.809L256.186 517.952L224.857 605.655L275.281 527.688L276.996 559.007L287.547 529.455L313.697 618.566L308.616 525.571L328.585 550.132L319.782 520.159L393.151 576.831L334.378 504.597Z" fill="white"/>
<path d="M489.824 170.421L516.103 177.399L494.743 160.898L574.456 163.219L497.364 142.756L522.544 133.017L495.358 132.227L561.381 87.1231L487.17 115.836L501.734 93.3214L479.273 108.657L506.2 33.3448L462.896 100.306L461.408 73.3929L452.346 98.811L429.853 22.2622L434.222 102.08L417.101 81.0219L424.642 106.76L361.661 58.1058L412.117 120.118L385.837 113.143L407.198 129.647L327.484 127.317L404.576 147.792L379.397 157.525L406.583 158.318L340.559 203.419L414.771 174.712L400.207 197.224L422.668 181.888L395.741 257.201L439.044 190.252L440.533 217.143L449.595 191.767L472.055 268.293L467.686 188.436L484.839 209.527L477.299 183.785L540.279 232.452L489.824 170.421Z" fill="#F68712"/>
<path d="M409.366 162.953C427.749 150.939 433.316 141.403 426.163 133.373C425.322 134.37 424.48 135.334 423.639 136.195C413.735 146.304 403.087 155.726 392.148 164.251C380.044 173.709 368.846 187.478 355.739 194.686C366.192 191.262 376.937 183.821 387.164 179.422C395.579 175.787 403.702 171.667 411.955 168.135C400.207 194.932 383.766 256.071 379.397 282.748C418.913 196.46 430.694 188.032 442.216 169.644C442.766 170.741 443.413 171.816 443.996 172.916C443.931 150.511 432.959 147.524 409.366 162.953Z" fill="#F9A72B"/>
<path d="M438.947 109.525L435.808 109.809L424.901 98.3514L424.383 98.1378C429.173 103.877 434.999 111.318 438.785 116.532C439.141 114.509 439.206 112.179 438.947 109.525Z" fill="#F9A72B"/>
<path d="M436.358 122.261C435.419 122.967 434.513 123.773 433.639 124.634C434.707 124.019 435.581 123.2 436.358 122.261Z" fill="#F9A72B"/>
<path d="M443.543 109.114L441.892 109.256C449.368 121.727 458.657 120.827 470.761 106.722C461.57 98.9568 453.091 89.9813 416.098 46.266L416.81 47.7193L458.592 107.097L448.592 107.188L423.153 60.5432L446.003 106.702C444.417 106.045 441.925 105.077 439.174 104.016C439.562 104.896 439.983 105.667 440.371 106.456L443.543 109.114Z" fill="#F9A72B"/>
<path d="M438.041 103.566C437.361 103.313 436.682 103.048 436.002 102.782L438.267 104.699C438.203 104.339 438.106 103.945 438.041 103.566Z" fill="#F9A72B"/>
<path d="M495.94 141.617C507.494 131.35 517.365 118.38 527.981 106.754C537.722 96.0889 549.309 85.822 556.947 73.5062C539.438 93.4575 518.595 98.3838 498.303 113.642C489.662 89.732 485.713 70.03 482.703 45.4535C481.829 64.2071 478.302 83.2262 475.001 101.446C475.292 101.044 475.583 100.698 475.907 100.28C475.551 100.74 475.292 101.164 474.968 101.614C474.515 104.119 474.062 106.608 473.641 109.078C472.832 108.431 472.055 107.803 471.311 107.165C458.851 127.637 466.812 136.377 496.49 135.351C470.049 136.267 462.022 144.031 471.796 160.173C471.796 158.717 471.764 157.25 471.829 155.8L472.411 155.943L471.893 155.354L479.434 153.502L482.8 158.377C498.432 162.183 513.158 166.776 528.402 173.046C518.919 164.034 502.445 153.123 495.94 141.617Z" fill="#F9A72B"/>
<path d="M444.999 174.755C452.119 187.831 460.372 200.519 467.524 213.825C474.289 226.494 479.985 242.101 487.396 253.109C482.606 224.066 472.703 192.68 471.861 163.546C457.912 152.13 449.336 155.703 444.999 174.755Z" fill="#F9A72B"/>
<path d="M435.646 94.5225C436.681 97.811 437.458 100.799 438.041 103.566C438.429 103.728 438.785 103.867 439.174 104.016C437.944 101.255 436.779 98.0991 435.646 94.5225Z" fill="#FFF200"/>
<path d="M474.968 101.614L475.001 101.446C473.544 103.384 472.152 105.129 470.761 106.722L471.311 107.165C472.379 105.401 473.576 103.556 474.968 101.614Z" fill="#FFF200"/>
<path d="M481.927 173.327C477.493 168.433 474.159 164.067 471.797 160.173C471.797 161.296 471.829 162.423 471.861 163.546C474.936 166.09 478.269 169.294 481.927 173.327Z" fill="#FFF200"/>
<path d="M406.032 122.41C415.936 125.763 422.603 129.385 426.163 133.373C428.558 130.512 430.953 127.304 433.639 124.634C428.364 127.68 419.237 126.887 406.032 122.41Z" fill="#FFF200"/>
<path d="M443.155 185.614C443.64 181.552 444.255 177.949 444.999 174.754C444.676 174.139 444.32 173.531 443.996 172.916C443.996 176.632 443.737 180.82 443.155 185.614Z" fill="#FFF200"/>
<path d="M441.116 119.795C440.468 118.85 439.724 117.782 438.785 116.532C438.397 118.866 437.556 120.756 436.358 122.261C437.815 121.141 439.4 120.313 441.116 119.795Z" fill="#FFF200"/>
<path d="M442.28 119.393C441.892 119.478 441.504 119.669 441.115 119.795C441.31 120.089 441.536 120.432 441.73 120.691L442.28 119.393Z" fill="#FFF200"/>
<path d="M440.371 106.456C439.983 105.666 439.562 104.896 439.174 104.016C438.785 103.867 438.429 103.728 438.041 103.566C438.106 103.945 438.203 104.339 438.268 104.699L440.371 106.456Z" fill="#FFF200"/>
<path d="M475.907 100.281C475.583 100.698 475.292 101.045 475.001 101.446L474.968 101.614C475.292 101.164 475.551 100.74 475.907 100.281Z" fill="#FFF200"/>
<path d="M458.269 149.764C452.314 151.647 446.164 148.932 444.514 143.695C442.831 138.455 446.326 132.683 452.281 130.796C458.204 128.909 464.385 131.625 466.036 136.869C467.719 142.106 464.224 147.877 458.269 149.764ZM496.491 135.351C466.813 136.377 458.851 127.637 471.311 107.165L470.761 106.722C458.657 120.827 449.368 121.727 441.892 109.256L438.947 109.525C439.206 112.179 439.141 114.509 438.785 116.532C439.724 117.782 440.468 118.85 441.116 119.795C441.504 119.669 441.892 119.478 442.281 119.393L441.73 120.691C441.536 120.432 441.31 120.089 441.116 119.795C439.4 120.313 437.814 121.141 436.358 122.261C435.581 123.2 434.707 124.019 433.639 124.634C430.953 127.304 428.558 130.512 426.163 133.373C433.316 141.403 427.749 150.939 409.366 162.953C432.96 147.524 443.931 150.511 443.996 172.916C444.319 173.531 444.676 174.14 444.999 174.755C449.336 155.703 457.913 152.13 471.862 163.546C471.829 162.423 471.797 161.296 471.797 160.173C462.023 144.031 470.049 136.267 496.491 135.351Z" fill="#FFF200"/>
<path d="M414.415 131.175L411.243 131.839L413.185 133.14L414.415 131.175Z" fill="#F9A72B"/>
<path d="M411.534 135.729L403.702 138.532L399.56 134.286L315.542 151.877L408.298 140.892L411.534 135.729Z" fill="#F9A72B"/>
<path d="M413.962 43.6669L423.153 60.5432L416.81 47.7193L413.962 43.6669Z" fill="#F9A72B"/>
<path d="M458.592 107.097L416.81 47.7192L423.153 60.5431L448.592 107.188L458.592 107.097Z" fill="#F9A72B"/>
<path d="M425.775 118.804L351.952 2.28882e-05L418.04 119.497L425.775 118.804Z" fill="#F9A72B"/>
<path d="M401.987 74.2506L424.901 98.3513C427.457 99.4518 431.762 101.135 436.002 102.782L401.987 74.2506Z" fill="#F9A72B"/>
<path d="M438.947 109.525C438.818 108.01 438.591 106.424 438.268 104.699L436.002 102.782C431.762 101.135 427.458 99.4519 424.901 98.3514L435.808 109.81L438.947 109.525Z" fill="#F9A72B"/>
<path d="M440.371 106.456C440.889 107.45 441.374 108.395 441.892 109.256L443.543 109.113L440.371 106.456Z" fill="#F9A72B"/>
<path d="M438.268 104.699C438.591 106.424 438.818 108.01 438.947 109.525L441.892 109.256C441.374 108.395 440.889 107.45 440.371 106.456L438.268 104.699Z" fill="#F9A72B"/>
<path d="M415.127 134.454L413.185 133.14L411.534 135.729L415.127 134.454Z" fill="#F9A72B"/>
<path d="M369.428 103.417L399.559 134.286L411.243 131.839L369.428 103.417Z" fill="#F9A72B"/>
<path d="M411.534 135.729L413.185 133.14L411.243 131.839L399.56 134.286L403.702 138.532L411.534 135.729Z" fill="#F9A72B"/>
<path d="M508.886 195.797L482.801 158.377C479.37 157.535 475.94 156.703 472.412 155.943L508.886 195.797Z" fill="#F9A72B"/>
<path d="M471.894 155.354L472.412 155.943C475.94 156.703 479.37 157.535 482.801 158.377L479.435 153.502L471.894 155.354Z" fill="#F9A72B"/>
<path d="M439.724 142.578C440.112 153.515 438.462 156.227 427.846 162.313C440.015 161.151 442.928 162.429 448.915 171.602C448.527 160.659 450.145 157.946 460.793 151.864C448.592 153.02 445.711 151.745 439.724 142.578Z" fill="white"/>
<defs>
<linearGradient id="paint0_linear_213_3" x1="399.398" y1="355.785" x2="145.851" y2="639.874" gradientUnits="userSpaceOnUse">
<stop stop-color="#66CEF5"/>
<stop offset="0.55914" stop-color="#127FB2"/>
<stop offset="0.833333" stop-color="#3D9DDD"/>
<stop offset="1" stop-color="#3D9DDD"/>
</linearGradient>
<linearGradient id="paint1_linear_213_3" x1="399.398" y1="355.785" x2="145.851" y2="639.874" gradientUnits="userSpaceOnUse">
<stop stop-color="#99DEF9"/>
<stop offset="0.55914" stop-color="#6AADD1"/>
<stop offset="0.833333" stop-color="#82C2EC"/>
<stop offset="1" stop-color="#82C2EC"/>
</linearGradient>
</defs>
</svg>
