<svg width="797" height="1684" viewBox="0 0 797 1684" fill="none" xmlns="http://www.w3.org/2000/svg">
<path d="M389 1031.77C389 1041.28 383.18 1049 376 1049C368.817 1049 363 1041.28 363 1031.77V17.2305C363 7.71558 368.817 -8.19503e-06 376 -8.19503e-06C383.18 -8.19503e-06 389 7.71558 389 17.2305V1031.77Z" fill="#530709"/>
<path d="M778.691 1452.58C788.633 1479.17 710.472 1532.96 604.08 1572.73C497.716 1612.49 403.415 1623.17 393.473 1596.57C383.531 1569.97 461.714 1516.18 568.079 1476.42C674.47 1436.65 768.749 1425.98 778.691 1452.58Z" fill="#E2E9F2"/>
<path d="M300.646 921.323L328.583 914.412L300.34 909.982L375.537 871.509L293.544 891.799L311.955 869.927L286.337 883.04L324.638 807.529L270.355 872.015L272.418 843.685L259.393 869.362L245.974 785.745L239.894 869.972L224.828 845.733L229.342 873.959L169.498 814.35L214.199 886.221L187.589 875.393L207.705 895.439L124.445 882.375L202.869 914.231L174.933 921.145L203.177 925.578L127.983 964.043L209.973 943.76L191.561 965.629L217.208 952.512L178.893 1028.02L233.165 963.553L231.125 991.865L244.125 966.201L257.542 1049.81L263.626 965.598L278.687 989.821L274.161 961.645L333.998 1021.24L289.281 949.321L315.954 960.156L295.812 940.12L379.086 953.192L300.646 921.323" fill="#F68712"/>
<path d="M222.156 955.389C233.112 934.861 233.409 923.178 222.66 919.381C222.402 920.728 222.103 922.05 221.769 923.276C217.74 937.704 212.643 951.88 206.839 965.368C200.407 980.323 197.023 998.815 188.532 1012.18C196.501 1003.67 202.678 991.292 209.921 982.005C215.899 974.327 221.321 966.37 227.209 958.876C229.964 989.738 245.846 1054.87 255.37 1081.87C248.091 981.624 254.727 967.809 256.031 944.87C257.128 945.604 258.264 946.277 259.357 946.999C247.904 926.228 236.209 929.035 222.156 955.389" fill="#F9A72B"/>
<path d="M222.402 890.714L219.599 892.594L203.67 887.501L203.083 887.562C210.42 890.469 219.635 894.404 225.812 897.306C225.105 895.25 223.978 893.052 222.402 890.714" fill="#F9A72B"/>
<path d="M226.465 903.865C225.973 904.994 225.54 906.202 225.154 907.453C225.86 906.324 226.235 905.125 226.465 903.865Z" fill="#F9A72B"/>
<path d="M226.449 887.997L224.985 888.974C238.282 896.734 246.445 891.165 250.496 871.904C237.972 869.395 225.555 865.377 168.953 843.644L170.355 844.623L239.379 878.462L230.153 883.633L182.775 853.296L227.491 884.506C225.679 884.714 222.861 885.088 219.782 885.498C220.59 886.11 221.361 886.621 222.138 887.151L226.449 887.997" fill="#F9A72B"/>
<path d="M218.502 885.662C217.748 885.767 216.991 885.861 216.209 885.97L219.304 886.585C219.069 886.282 218.769 885.968 218.502 885.662Z" fill="#F9A72B"/>
<path d="M291.627 891.483C297.114 876.064 299.691 858.979 303.608 842.784C307.201 827.927 312.74 812.483 313.54 797.167C307.482 824.599 290.631 839.798 279.575 864.3C259.385 846.502 245.654 830.241 230.349 808.952C239.095 826.804 245.513 846.256 251.732 864.852C251.81 864.326 251.906 863.851 251.978 863.309C251.898 863.909 251.854 864.444 251.796 865.024C252.659 867.577 253.489 870.123 254.337 872.639C253.286 872.437 252.24 872.249 251.219 872.045C250.084 897.394 261.936 901.45 288.973 885.364C264.879 899.7 261.388 910.997 278.694 920.997C277.944 919.643 277.168 918.302 276.473 916.93L277.109 916.757L276.306 916.484L282.367 910.922L287.986 913.718C304.44 909.285 320.453 906.04 337.806 904.094C324.386 900.573 303.526 898.847 291.627 891.483" fill="#F9A72B"/>
<path d="M261.235 948.191C274.535 956.691 288.646 964.262 302.031 972.99C314.797 981.287 328.033 992.878 340.53 999.312C321.276 974.801 296.082 950.713 280.463 924.099C261.715 920.599 255.566 928.291 261.235 948.191Z" fill="#F9A72B"/>
<path d="M211.671 878.479C214.294 881.011 216.553 883.384 218.502 885.662C218.94 885.611 219.374 885.547 219.782 885.498C217.256 883.551 214.556 881.222 211.671 878.479Z" fill="#FFF200"/>
<path d="M251.796 865.024L251.732 864.852C251.368 867.388 250.961 869.724 250.495 871.904L251.219 872.045C251.316 869.859 251.511 867.524 251.796 865.024Z" fill="#FFF200"/>
<path d="M294.803 928.039C288.189 925.761 282.86 923.413 278.694 920.997C279.266 922.037 279.838 923.079 280.463 924.099C284.629 924.884 289.344 926.161 294.803 928.039Z" fill="#FFF200"/>
<path d="M198.389 919.458C209.31 917.516 217.321 917.495 222.66 919.381C223.434 915.497 224.028 911.295 225.154 907.453C221.817 912.964 212.944 916.878 198.389 919.458Z" fill="#FFF200"/>
<path d="M265.077 959.201C263.454 955.185 262.179 951.53 261.236 948.19C260.601 947.796 259.992 947.393 259.357 946.999C261.282 950.435 263.153 954.462 265.077 959.201" fill="#FFF200"/>
<path d="M229.614 899.157C228.553 898.603 227.292 898.003 225.812 897.306C226.636 899.673 226.812 901.857 226.465 903.865C227.261 902.08 228.316 900.499 229.614 899.157" fill="#FFF200"/>
<path d="M230.528 898.175C230.18 898.47 229.921 898.835 229.614 899.157C229.953 899.329 230.36 899.522 230.633 899.682L230.528 898.175" fill="#FFF200"/>
<path d="M222.138 887.151C221.361 886.621 220.59 886.11 219.782 885.497C219.373 885.546 218.94 885.611 218.502 885.662C218.769 885.968 219.069 886.282 219.304 886.585L222.138 887.151Z" fill="#FFF200"/>
<path d="M251.978 863.309C251.906 863.851 251.81 864.326 251.732 864.852L251.796 865.024C251.854 864.444 251.898 863.909 251.978 863.309" fill="#FFF200"/>
<path d="M260.828 918.226C256.272 923.005 249.156 923.625 244.943 919.614C240.727 915.594 241.02 908.466 245.575 903.686C250.157 898.894 257.271 898.269 261.46 902.298C265.674 906.312 265.384 913.449 260.828 918.226ZM288.973 885.364C261.935 901.449 250.083 897.394 251.219 872.045L250.495 871.904C246.444 891.165 238.282 896.734 224.984 888.974L222.402 890.714C223.978 893.052 225.104 895.25 225.812 897.306C227.292 898.003 228.552 898.602 229.613 899.157C229.92 898.835 230.18 898.47 230.527 898.175L230.633 899.682C230.359 899.522 229.952 899.329 229.613 899.157C228.316 900.499 227.261 902.08 226.464 903.865C226.234 905.125 225.859 906.324 225.153 907.453C224.028 911.295 223.434 915.497 222.66 919.381C233.409 923.178 233.111 934.861 222.155 955.389C236.208 929.035 247.903 926.228 259.357 946.999C259.992 947.393 260.6 947.797 261.235 948.191C255.565 928.291 261.715 920.599 280.463 924.099C279.838 923.079 279.265 922.037 278.694 920.997C261.388 910.997 264.879 899.7 288.973 885.364" fill="#FFF200"/>
<path d="M210.655 923.316L208.043 925.546L210.506 925.772L210.655 923.316Z" fill="#F9A72B"/>
<path d="M210.312 929.006L204.456 935.607L198.44 933.779L129.422 992.918L209.919 935.459L210.312 929.006Z" fill="#F9A72B"/>
<path d="M165.64 842.318L182.775 853.296L170.355 844.623L165.64 842.318Z" fill="#F9A72B"/>
<path d="M239.379 878.462L170.355 844.623L182.775 853.296L230.153 883.633L239.379 878.462" fill="#F9A72B"/>
<path d="M214.873 906.052L85.8183 833.393L208.05 910.636L214.873 906.052Z" fill="#F9A72B"/>
<path d="M170.106 876.812L203.67 887.501C206.587 887.228 211.415 886.606 216.208 885.97L170.106 876.812Z" fill="#F9A72B"/>
<path d="M222.403 890.714C221.48 889.388 220.481 888.02 219.304 886.585L216.209 885.97C211.416 886.606 206.587 887.228 203.67 887.501L219.599 892.594L222.403 890.714" fill="#F9A72B"/>
<path d="M222.138 887.151C223.118 887.815 224.079 888.428 224.984 888.974L226.449 887.997L222.138 887.151Z" fill="#F9A72B"/>
<path d="M219.305 886.585C220.481 888.02 221.48 889.388 222.403 890.714L224.985 888.974C224.079 888.428 223.118 887.815 222.138 887.151L219.305 886.585Z" fill="#F9A72B"/>
<path d="M212.972 926.006L210.506 925.772L210.312 929.006L212.972 926.006Z" fill="#F9A72B"/>
<path d="M154.728 920.486L198.44 933.779L208.043 925.546L154.728 920.486Z" fill="#F9A72B"/>
<path d="M210.313 929.006L210.506 925.772L208.044 925.546L198.441 933.779L204.457 935.607L210.313 929.006" fill="#F9A72B"/>
<path d="M331.278 935.161L287.986 913.718C284.383 914.681 280.784 915.658 277.109 916.757L331.278 935.161Z" fill="#F9A72B"/>
<path d="M276.306 916.483L277.109 916.757C280.784 915.657 284.383 914.681 287.987 913.718L282.368 910.922L276.306 916.483" fill="#F9A72B"/>
<path d="M239.948 921.014C245.867 930.975 245.745 934.32 238.967 945.388C249.688 938.099 253.025 937.809 263.267 943.266C257.32 933.311 257.467 929.953 264.247 918.89C253.497 926.183 250.161 926.476 239.948 921.014Z" fill="white"/>
<path d="M327.258 1147.74C340.274 1135.42 350.157 1128 354.898 1108.47C360.156 1086.81 351.802 1061.28 341.577 1041.59C328.979 1017.35 311.689 997.115 292.488 978.78C272.673 959.866 254.182 937.234 253.15 907.88C252.828 898.78 240.058 899.61 240.371 908.605C242.094 957.26 282.771 983.046 310.013 1016.37C325.553 1035.35 338.515 1058.52 342.615 1083.19C344.789 1096.35 342.528 1109.72 336.22 1120.41C332.179 1127.3 324.798 1130.8 319.279 1136.02C313.313 1141.67 321.196 1153.47 327.258 1147.74" fill="#5E6A79"/>
<path d="M512.204 1579.55L483.286 1590.36C455.946 1600.58 426.079 1603.95 396.759 1601.59C326.409 1595.95 259.27 1557.4 238.397 1501.56L209.471 1424.18L179.251 1343.33L149.678 1264.22C122.222 1190.76 174.814 1087.39 256.791 1045.19C257.175 1045 257.533 1044.81 257.918 1044.62C263.892 1041.6 270.017 1038.89 276.277 1036.55L314.612 1022.23L322.691 1019.21C324.082 1018.69 325.48 1018.18 326.884 1017.7C327.748 1017.4 328.669 1017.09 329.566 1016.8C330.027 1016.65 330.49 1016.5 330.953 1016.35C422.69 987.132 538.87 1031.22 567.573 1108.01C538 1028.89 415.573 984.487 322.691 1019.21L305.195 1025.74C310.773 1027.37 316.336 1029.2 321.854 1031.24L321.625 1067.42L276.201 1084.39L321.471 1093.43L321.2 1135.53L349.445 1099.02L394.714 1108.05L366.895 1076.45L379.39 1060.29C443.27 1101.73 498.776 1170.37 531.116 1256.89C552.334 1313.66 560.965 1371.17 558.463 1424.67L516.516 1440.35L556.617 1448.36C553.163 1479.5 545.795 1508.97 534.861 1535.76L523.103 1522.41L539.919 1500.68L512.873 1510.79L496.331 1491.98L496.181 1517.03L469.134 1527.14L496.083 1532.51L495.908 1557.57L512.726 1535.84L533.122 1539.92C527.143 1553.94 520.15 1567.2 512.204 1579.55M430.539 1169.15L457.46 1174.53L440.916 1155.72L457.732 1133.98L430.686 1144.09L414.144 1125.29L413.993 1150.33L386.947 1160.44L413.897 1165.82L413.721 1190.88L430.539 1169.15M364.695 1051.32L349.714 1056.92L329.799 1034.31C341.613 1039.08 353.254 1044.77 364.695 1051.32Z" fill="url(#paint0_linear_224_16)"/>
<path d="M241.834 1102.5L258.389 1121.3L285.427 1111.2L268.615 1132.93L285.181 1151.73L258.23 1146.36L241.426 1168.09L241.583 1143.03L214.645 1137.66L241.677 1127.55L241.834 1102.5" fill="url(#paint1_linear_224_16)"/>
<path d="M192.606 1191.03L209.161 1209.84L236.193 1199.73L219.388 1221.46L235.934 1240.27L209.001 1234.89L192.198 1256.62L192.356 1231.57L165.417 1226.19L192.449 1216.08L192.606 1191.03" fill="url(#paint2_linear_224_16)"/>
<path d="M320.658 1166.54L337.202 1185.35L364.248 1175.25L347.43 1196.98L364.002 1215.78L337.052 1210.4L320.236 1232.14L320.411 1207.08L293.466 1201.7L320.509 1191.59L320.658 1166.54" fill="url(#paint3_linear_224_16)"/>
<path d="M246.957 1256.29L263.51 1275.1L290.542 1265L273.735 1286.72L290.288 1305.54L263.353 1300.16L246.552 1321.88L246.707 1296.83L219.771 1291.45L246.801 1281.35L246.957 1256.29" fill="url(#paint4_linear_224_16)"/>
<path d="M439.584 1184.29L456.129 1203.11L483.148 1193.01L466.356 1214.72L482.902 1233.54L455.98 1228.16L439.163 1249.89L439.31 1224.83L412.39 1219.45L439.409 1209.35L439.584 1184.29Z" fill="url(#paint5_linear_224_16)"/>
<path d="M457.46 1174.53L430.539 1169.15L413.721 1190.88L413.897 1165.82L386.947 1160.44L413.993 1150.33L414.144 1125.29L430.686 1144.09L457.732 1133.98L440.916 1155.72L457.46 1174.53" fill="url(#paint6_linear_224_16)"/>
<path d="M315.96 1440.9L332.513 1459.71L359.546 1449.6L342.738 1471.33L359.292 1490.14L332.356 1484.76L315.556 1506.49L315.711 1481.43L288.774 1476.06L315.804 1465.95L315.96 1440.9" fill="url(#paint7_linear_224_16)"/>
<path d="M495.908 1557.57L496.083 1532.51L469.134 1527.14L496.18 1517.03L496.331 1491.98L512.873 1510.79L539.919 1500.68L523.102 1522.41L534.861 1535.76C534.286 1537.16 533.704 1538.54 533.122 1539.92L512.726 1535.84L495.908 1557.57" fill="url(#paint8_linear_224_16)"/>
<path d="M500.921 1348.39L517.464 1367.19L544.483 1357.09L527.693 1378.82L544.237 1397.63L517.317 1392.25L500.498 1413.98L500.647 1388.93L473.725 1383.54L500.744 1373.44L500.921 1348.39Z" fill="url(#paint9_linear_224_16)"/>
<path d="M370.706 1513.95L387.257 1532.75L414.289 1522.65L397.484 1544.38L414.035 1563.18L387.1 1557.81L370.299 1579.53L370.456 1554.48L343.518 1549.1L370.548 1539L370.706 1513.95" fill="url(#paint10_linear_224_16)"/>
<path d="M556.617 1448.36L516.516 1440.35L558.463 1424.67C558.097 1432.67 557.482 1440.56 556.617 1448.36" fill="url(#paint11_linear_224_16)"/>
<path d="M394.713 1108.05L349.445 1099.02L321.2 1135.53L321.471 1093.43L276.201 1084.39L321.625 1067.42L321.853 1031.24C324.506 1032.22 327.144 1033.24 329.799 1034.31L349.714 1056.92L364.695 1051.32C369.652 1054.14 374.553 1057.13 379.39 1060.29L366.895 1076.45L394.713 1108.05" fill="url(#paint12_linear_224_16)"/>
<path d="M434.75 1405.05L462.539 1436.65L507.963 1419.67L479.746 1456.18L507.54 1487.79L462.298 1478.75L434.054 1515.26L434.322 1473.15L389.044 1464.12L434.477 1447.14L434.75 1405.05Z" fill="url(#paint13_linear_224_16)"/>
<path d="M529.7 1573.01L512.204 1579.55C520.15 1567.2 527.143 1553.94 533.122 1539.92L539.646 1541.22L534.861 1535.76C545.795 1508.97 553.162 1479.5 556.617 1448.37L561.76 1449.4L561.517 1491.49L589.735 1454.99L635.004 1464.02L607.185 1432.42L635.427 1395.9L590.003 1412.88L562.186 1381.29L561.94 1423.37L558.463 1424.67C560.964 1371.17 552.334 1313.66 531.116 1256.89C498.776 1170.37 443.27 1101.73 379.39 1060.29L395.139 1039.94L364.695 1051.32C353.254 1044.77 341.613 1039.08 329.799 1034.31L321.896 1025.32L321.854 1031.24C316.336 1029.2 310.773 1027.37 305.195 1025.75L322.691 1019.21C415.572 984.487 538 1028.89 567.573 1108.01L596.499 1185.4L626.719 1266.24L656.291 1345.36C685.865 1424.47 622.581 1538.29 529.7 1573.01M495.197 1126.3L522.118 1131.68L505.575 1112.87L522.366 1091.15L495.346 1101.25L478.803 1082.44L478.627 1107.5L451.608 1117.6L478.529 1122.98L478.379 1148.03L495.197 1126.3Z" fill="url(#paint14_linear_224_16)"/>
<path d="M522.117 1131.68L495.197 1126.3L478.378 1148.03L478.528 1122.98L451.607 1117.6L478.626 1107.5L478.802 1082.44L495.346 1101.25L522.365 1091.15L505.574 1112.87L522.117 1131.68Z" fill="url(#paint15_linear_224_16)"/>
<path d="M635.004 1464.02L589.735 1454.99L561.517 1491.49L561.76 1449.4L556.617 1448.36C557.482 1440.56 558.097 1432.67 558.462 1424.67L561.94 1423.37L562.186 1381.29L590.002 1412.88L635.427 1395.9L607.185 1432.42L635.004 1464.02" fill="url(#paint16_linear_224_16)"/>
<path d="M379.39 1060.29C374.552 1057.13 369.652 1054.14 364.695 1051.32L395.138 1039.94L379.39 1060.29M329.799 1034.31C327.144 1033.24 324.506 1032.22 321.853 1031.24L321.896 1025.32L329.799 1034.31Z" fill="url(#paint17_linear_224_16)"/>
<path d="M641.248 1305.11L612.189 1227.37C608.685 1228.19 605.137 1229.22 601.606 1230.54L204.356 1379.03C200.83 1380.35 197.484 1381.9 194.294 1383.58L223.353 1461.32C226.864 1460.5 230.402 1459.47 233.928 1458.15L631.179 1309.66C634.71 1308.34 638.066 1306.79 641.248 1305.11" fill="#A6381F"/>
<path d="M626.462 1265.56L597.402 1187.81C593.898 1188.63 590.351 1189.67 586.82 1190.99L189.569 1339.47C186.043 1340.79 182.696 1342.34 179.507 1344.02L208.567 1421.76C212.077 1420.94 215.617 1419.91 219.142 1418.59L616.393 1270.1C619.924 1268.78 623.278 1267.23 626.462 1265.56" fill="url(#paint18_linear_224_16)"/>
<path d="M705.121 1327.46L706.427 1320.92C707.806 1321.51 709.18 1322.08 710.582 1322.65L705.121 1327.46Z" fill="url(#paint19_linear_224_16)"/>
<defs>
<linearGradient id="paint0_linear_224_16" x1="603.985" y1="1176.47" x2="206.439" y2="1430.25" gradientUnits="userSpaceOnUse">
<stop stop-color="#66CEF5"/>
<stop offset="0.55914" stop-color="#127FB2"/>
<stop offset="0.833333" stop-color="#3D9DDD"/>
<stop offset="1" stop-color="#3D9DDD"/>
</linearGradient>
<linearGradient id="paint1_linear_224_16" x1="146.401" y1="1170.89" x2="287.955" y2="1117.98" gradientUnits="userSpaceOnUse">
<stop stop-color="#F36218"/>
<stop offset="0.263441" stop-color="#F36218"/>
<stop offset="1" stop-color="#FFEF00"/>
</linearGradient>
<linearGradient id="paint2_linear_224_16" x1="97.1731" y1="1259.42" x2="238.726" y2="1206.51" gradientUnits="userSpaceOnUse">
<stop stop-color="#F36218"/>
<stop offset="0.263441" stop-color="#F36218"/>
<stop offset="1" stop-color="#FFEF00"/>
</linearGradient>
<linearGradient id="paint3_linear_224_16" x1="225.222" y1="1234.94" x2="366.776" y2="1182.02" gradientUnits="userSpaceOnUse">
<stop stop-color="#F36218"/>
<stop offset="0.263441" stop-color="#F36218"/>
<stop offset="1" stop-color="#FFEF00"/>
</linearGradient>
<linearGradient id="paint4_linear_224_16" x1="151.533" y1="1324.68" x2="293.076" y2="1271.78" gradientUnits="userSpaceOnUse">
<stop stop-color="#F36218"/>
<stop offset="0.263441" stop-color="#F36218"/>
<stop offset="1" stop-color="#FFEF00"/>
</linearGradient>
<linearGradient id="paint5_linear_224_16" x1="344.139" y1="1252.69" x2="485.682" y2="1199.78" gradientUnits="userSpaceOnUse">
<stop stop-color="#F36218"/>
<stop offset="0.263441" stop-color="#F36218"/>
<stop offset="1" stop-color="#FFEF00"/>
</linearGradient>
<linearGradient id="paint6_linear_224_16" x1="318.696" y1="1193.68" x2="460.25" y2="1140.77" gradientUnits="userSpaceOnUse">
<stop stop-color="#F36218"/>
<stop offset="0.263441" stop-color="#F36218"/>
<stop offset="1" stop-color="#FFEF00"/>
</linearGradient>
<linearGradient id="paint7_linear_224_16" x1="220.536" y1="1509.29" x2="362.079" y2="1456.38" gradientUnits="userSpaceOnUse">
<stop stop-color="#F36218"/>
<stop offset="0.263441" stop-color="#F36218"/>
<stop offset="1" stop-color="#FFEF00"/>
</linearGradient>
<linearGradient id="paint8_linear_224_16" x1="400.892" y1="1560.37" x2="542.446" y2="1507.46" gradientUnits="userSpaceOnUse">
<stop stop-color="#F36218"/>
<stop offset="0.263441" stop-color="#F36218"/>
<stop offset="1" stop-color="#FFEF00"/>
</linearGradient>
<linearGradient id="paint9_linear_224_16" x1="405.475" y1="1416.78" x2="547.018" y2="1363.87" gradientUnits="userSpaceOnUse">
<stop stop-color="#F36218"/>
<stop offset="0.263441" stop-color="#F36218"/>
<stop offset="1" stop-color="#FFEF00"/>
</linearGradient>
<linearGradient id="paint10_linear_224_16" x1="275.281" y1="1582.34" x2="416.824" y2="1529.43" gradientUnits="userSpaceOnUse">
<stop stop-color="#F36218"/>
<stop offset="0.263441" stop-color="#F36218"/>
<stop offset="1" stop-color="#FFEF00"/>
</linearGradient>
<linearGradient id="paint11_linear_224_16" x1="401.831" y1="1496.2" x2="639.691" y2="1407.29" gradientUnits="userSpaceOnUse">
<stop stop-color="#F36218"/>
<stop offset="0.263441" stop-color="#F36218"/>
<stop offset="1" stop-color="#FFEF00"/>
</linearGradient>
<linearGradient id="paint12_linear_224_16" x1="161.528" y1="1140.24" x2="399.388" y2="1051.33" gradientUnits="userSpaceOnUse">
<stop stop-color="#F36218"/>
<stop offset="0.263441" stop-color="#F36218"/>
<stop offset="1" stop-color="#FFEF00"/>
</linearGradient>
<linearGradient id="paint13_linear_224_16" x1="274.373" y1="1519.97" x2="512.233" y2="1431.06" gradientUnits="userSpaceOnUse">
<stop stop-color="#F36218"/>
<stop offset="0.263441" stop-color="#F36218"/>
<stop offset="1" stop-color="#FFEF00"/>
</linearGradient>
<linearGradient id="paint14_linear_224_16" x1="603.985" y1="1176.47" x2="206.439" y2="1430.25" gradientUnits="userSpaceOnUse">
<stop stop-color="#4A98BB"/>
<stop offset="0.55914" stop-color="#176C96"/>
<stop offset="0.833333" stop-color="#327DAF"/>
<stop offset="1" stop-color="#327DAF"/>
</linearGradient>
<linearGradient id="paint15_linear_224_16" x1="383.354" y1="1150.83" x2="524.908" y2="1097.92" gradientUnits="userSpaceOnUse">
<stop stop-color="#AA5837"/>
<stop offset="0.263441" stop-color="#AA5837"/>
<stop offset="1" stop-color="#A9AA38"/>
</linearGradient>
<linearGradient id="paint16_linear_224_16" x1="401.831" y1="1496.2" x2="639.69" y2="1407.29" gradientUnits="userSpaceOnUse">
<stop stop-color="#AA5837"/>
<stop offset="0.263441" stop-color="#AA5837"/>
<stop offset="1" stop-color="#A9AA38"/>
</linearGradient>
<linearGradient id="paint17_linear_224_16" x1="161.528" y1="1140.24" x2="399.388" y2="1051.33" gradientUnits="userSpaceOnUse">
<stop stop-color="#AA5837"/>
<stop offset="0.263441" stop-color="#AA5837"/>
<stop offset="1" stop-color="#A9AA38"/>
</linearGradient>
<linearGradient id="paint18_linear_224_16" x1="-223.863" y1="1539.1" x2="611.938" y2="1226.68" gradientUnits="userSpaceOnUse">
<stop stop-color="#ED1C24"/>
<stop offset="1" stop-color="#FFEF00"/>
</linearGradient>
<linearGradient id="paint19_linear_224_16" x1="685.962" y1="1188.68" x2="738.879" y2="1330.25" gradientUnits="userSpaceOnUse">
<stop stop-color="#F78D11"/>
<stop offset="0.263441" stop-color="#F78D11"/>
<stop offset="1" stop-color="#FFF000"/>
</linearGradient>
</defs>
</svg>
