<svg width="1343" height="1751" viewBox="0 0 1343 1751" fill="none" xmlns="http://www.w3.org/2000/svg">
<path d="M700 1376.02C700 1388.71 692.389 1399 683 1399C673.607 1399 666 1388.71 666 1376.02V22.9795C666 10.2899 673.607 4.44561e-06 683 4.44561e-06C692.389 4.44561e-06 700 10.2899 700 22.9795V1376.02Z" fill="#F79819"/>
<path d="M735.199 1700.67C737.981 1697.42 739.311 1692.31 738.397 1687.89C724.063 1688.84 709.721 1689.55 695.396 1690.07C695.836 1690.87 696.268 1691.67 696.766 1692.46C704.361 1704.42 723.892 1713.89 735.199 1700.67Z" fill="#EE7217"/>
<path d="M1049.41 1662.5C1049.22 1663.11 1048.87 1663.64 1048.39 1664.08C1047.94 1664.56 1047.42 1664.91 1046.81 1665.1C1046.22 1665.41 1045.59 1665.55 1044.91 1665.53C1044.4 1665.53 1043.91 1665.53 1043.4 1665.53C1042.51 1665.53 1041.69 1665.3 1040.92 1664.86L1039.92 1664.08C1039.3 1663.47 1038.89 1662.74 1038.65 1661.91C1038.59 1661.47 1038.54 1661.04 1038.47 1660.61C1038.45 1659.92 1038.59 1659.29 1038.9 1658.71C1039.1 1658.09 1039.44 1657.56 1039.92 1657.12C1040.36 1656.64 1040.89 1656.3 1041.51 1656.1C1042.09 1655.79 1042.72 1655.66 1043.4 1655.68C1043.91 1655.68 1044.4 1655.68 1044.91 1655.68C1045.8 1655.68 1046.63 1655.91 1047.4 1656.35L1048.39 1657.12C1049 1657.74 1049.43 1658.46 1049.66 1659.29C1049.71 1659.73 1049.78 1660.17 1049.84 1660.61C1049.86 1661.28 1049.72 1661.91 1049.41 1662.5V1662.5ZM1008.38 1661.63L1007.61 1662.62C1007.16 1663.1 1006.63 1663.44 1006.03 1663.64C1005.44 1663.94 1004.8 1664.09 1004.13 1664.07C1003.45 1664.09 1002.81 1663.94 1002.22 1663.64C1001.61 1663.44 1001.09 1663.1 1000.64 1662.62C1000.12 1662.14 999.598 1661.66 999.076 1661.18C998.464 1660.57 998.04 1659.84 997.811 1659C997.746 1658.57 997.689 1658.14 997.632 1657.69C997.632 1656.81 997.86 1655.97 998.301 1655.21L999.076 1654.21C999.525 1653.73 1000.05 1653.4 1000.66 1653.19C1001.25 1652.89 1001.87 1652.74 1002.56 1652.77C1003.24 1652.74 1003.86 1652.89 1004.45 1653.19C1005.06 1653.4 1005.59 1653.73 1006.03 1654.21C1006.57 1654.69 1007.09 1655.17 1007.61 1655.66C1008.22 1656.27 1008.64 1656.99 1008.87 1657.83C1008.93 1658.27 1008.99 1658.71 1009.05 1659.14C1009.05 1660.03 1008.82 1660.85 1008.38 1661.63V1661.63ZM810.989 1727.39C810.793 1728 810.451 1728.52 809.969 1728.97C809.529 1729.45 808.999 1729.79 808.387 1729.99C807.799 1730.3 807.163 1730.44 806.486 1730.42C805.988 1730.42 805.482 1730.42 804.977 1730.42C804.087 1730.41 803.263 1730.19 802.496 1729.74L801.493 1728.97C800.889 1728.36 800.465 1727.63 800.228 1726.8C800.171 1726.36 800.114 1725.93 800.057 1725.49C800.033 1724.81 800.171 1724.18 800.481 1723.6C800.677 1722.98 801.02 1722.45 801.493 1722.01C801.942 1721.52 802.472 1721.19 803.084 1720.99C803.671 1720.68 804.299 1720.54 804.977 1720.56C805.482 1720.56 805.988 1720.56 806.486 1720.56C807.375 1720.57 808.207 1720.79 808.974 1721.24L809.969 1722.01C810.581 1722.62 811.005 1723.34 811.242 1724.18C811.299 1724.62 811.356 1725.06 811.413 1725.49C811.438 1726.17 811.299 1726.8 810.989 1727.39V1727.39ZM774.799 1697.22C768.452 1697.22 768.461 1687.37 774.799 1687.37C781.146 1687.37 781.138 1697.22 774.799 1697.22ZM540.284 1727.39C540.085 1728 539.745 1728.52 539.266 1728.97C538.819 1729.45 538.291 1729.79 537.68 1729.99C537.094 1730.3 536.462 1730.44 535.783 1730.42C535.279 1730.42 534.777 1730.42 534.274 1730.42C533.385 1730.41 532.557 1730.19 531.788 1729.74L530.792 1728.97C530.181 1728.36 529.759 1727.63 529.525 1726.8C529.467 1726.36 529.407 1725.93 529.349 1725.49C529.324 1724.81 529.465 1724.18 529.773 1723.6C529.972 1722.98 530.311 1722.45 530.792 1722.01C531.237 1721.52 531.767 1721.19 532.376 1720.99C532.965 1720.68 533.596 1720.54 534.274 1720.56C534.777 1720.56 535.279 1720.56 535.783 1720.56C536.673 1720.57 537.501 1720.79 538.269 1721.24L539.266 1722.01C539.876 1722.62 540.298 1723.34 540.533 1724.18C540.591 1724.62 540.65 1725.06 540.709 1725.49C540.733 1726.17 540.591 1726.8 540.284 1727.39V1727.39ZM342.707 1659.6C342.508 1660.21 342.171 1660.73 341.689 1661.18C341.166 1661.66 340.643 1662.14 340.121 1662.62C339.505 1663.23 338.782 1663.65 337.947 1663.89C337.51 1663.94 337.074 1664.01 336.637 1664.07C335.748 1664.06 334.92 1663.84 334.15 1663.39L333.156 1662.62C332.674 1662.17 332.334 1661.64 332.136 1661.04C331.828 1660.45 331.687 1659.82 331.713 1659.14C331.687 1658.46 331.828 1657.83 332.136 1657.24C332.334 1656.63 332.674 1656.1 333.156 1655.66C333.678 1655.17 334.201 1654.69 334.724 1654.21C335.338 1653.6 336.063 1653.18 336.898 1652.95C337.333 1652.89 337.77 1652.83 338.207 1652.77C339.096 1652.78 339.925 1653 340.691 1653.44L341.689 1654.21C342.171 1654.66 342.508 1655.19 342.707 1655.8C343.017 1656.38 343.158 1657.02 343.132 1657.69C343.158 1658.37 343.017 1659.01 342.707 1659.6ZM301.862 1662.5C301.664 1663.11 301.326 1663.64 300.844 1664.08C300.397 1664.56 299.871 1664.91 299.259 1665.1C298.673 1665.41 298.041 1665.55 297.362 1665.53C296.858 1665.53 296.355 1665.53 295.852 1665.53C294.964 1665.53 294.136 1665.3 293.366 1664.86L292.371 1664.08C291.76 1663.47 291.338 1662.74 291.103 1661.91C291.046 1661.47 290.985 1661.04 290.928 1660.61C290.903 1659.92 291.043 1659.29 291.352 1658.71C291.55 1658.09 291.89 1657.56 292.371 1657.12C292.816 1656.64 293.345 1656.3 293.955 1656.1C294.543 1655.79 295.175 1655.66 295.852 1655.68C296.355 1655.68 296.858 1655.68 297.362 1655.68C298.252 1655.68 299.08 1655.91 299.848 1656.35L300.844 1657.12C301.455 1657.74 301.876 1658.46 302.111 1659.29C302.17 1659.73 302.229 1660.17 302.288 1660.61C302.314 1661.28 302.17 1661.91 301.862 1662.5V1662.5ZM1215.15 1548.41L1214.38 1549.4C1213.94 1549.88 1213.41 1550.22 1212.8 1550.42C1212.21 1550.72 1211.58 1550.87 1210.9 1550.85C1210.36 1550.86 1209.84 1550.75 1209.36 1550.55C1151.22 1586.14 1088.38 1614.06 1022.77 1635.29C1047.22 1636.68 1071.77 1636.61 1096.25 1635.02C1102.59 1634.62 1102.54 1644.47 1096.25 1644.88C1075.06 1646.26 1053.81 1646.56 1032.59 1645.71C1020.75 1645.24 1008.94 1644.38 997.159 1643.22C985.615 1646.62 973.973 1649.76 962.283 1652.78C962.307 1652.86 962.356 1652.93 962.38 1653.01C962.437 1653.45 962.503 1653.88 962.56 1654.33C962.552 1655.21 962.331 1656.04 961.883 1656.81L961.116 1657.8C960.667 1658.28 960.137 1658.62 959.533 1658.82C958.946 1659.13 958.309 1659.27 957.632 1659.24C956.955 1659.27 956.327 1659.13 955.731 1658.82C955.128 1658.62 954.597 1658.28 954.149 1657.8C953.374 1657.03 952.599 1656.25 951.824 1655.48C903.527 1667.39 854.17 1676.02 804.454 1681.82C818.625 1697.51 834.705 1711.47 852.416 1723.23C857.678 1726.72 852.743 1735.25 847.448 1731.73C826.955 1718.12 808.476 1701.73 792.527 1683.16C777.753 1684.74 762.954 1686.07 748.139 1687.16C750.937 1704.21 735.51 1717.45 718.891 1716.68C703.081 1715.94 690.705 1704.37 684.619 1690.41C675.041 1690.69 665.472 1690.86 655.91 1690.95C655.894 1690.98 655.886 1691.01 655.87 1691.05C648.976 1706.7 633.353 1718.99 615.575 1716.29C602.42 1714.31 591.781 1702.79 592.149 1690.2C584.67 1689.95 577.203 1689.66 569.756 1689.3C571.75 1692.16 570.519 1697.22 565.962 1697.22C561.205 1697.22 560.019 1691.68 562.393 1688.91C556.293 1688.59 550.202 1688.26 544.129 1687.86C529.145 1704.51 512.065 1719.28 493.316 1731.73C488.016 1735.25 483.09 1726.72 488.346 1723.23C504.059 1712.79 518.416 1700.56 531.369 1687C529.602 1686.87 527.823 1686.77 526.058 1686.63C453.069 1681.42 383.161 1667.34 315.46 1645.33C291.83 1646.54 268.13 1646.41 244.515 1644.88C238.212 1644.47 238.186 1634.62 244.515 1635.02C259.347 1635.99 274.206 1636.41 289.063 1636.3C233.487 1616.37 179.341 1591.12 126.176 1560.91C319.955 1754.83 658.896 1750.44 671.892 1750.19C685.68 1750.45 1066.87 1755.39 1251.69 1522.72C1239.94 1531.05 1227.93 1538.98 1215.73 1546.6C1215.64 1547.23 1215.48 1547.84 1215.15 1548.41" fill="#EE7217"/>
<path d="M643.999 1692.46C644.293 1691.99 644.538 1691.52 644.807 1691.04C630.522 1691.07 616.283 1690.87 602.086 1690.48C602.019 1694.2 603.31 1698.04 605.558 1700.67C616.87 1713.89 636.404 1704.42 643.999 1692.46Z" fill="#EE7217"/>
<path d="M1300.81 1433.84C1247.02 1473.53 1183.63 1498.82 1117.42 1507.68C1111.14 1508.53 1111.23 1498.67 1117.42 1497.83C1181.86 1489.21 1243.55 1463.91 1295.84 1425.33C1300.94 1421.56 1305.85 1430.11 1300.81 1433.84ZM1248.9 1521.85C1206.49 1528.1 1163.64 1530.9 1120.79 1530.04C1044.93 1528.51 969.233 1515.92 896.968 1492.83C860.64 1481.22 825.144 1466.94 790.904 1450.14C774.098 1441.9 757.602 1433.03 741.465 1423.56C726.707 1414.91 711.133 1405.57 703.065 1389.83C700.177 1384.19 708.678 1379.22 711.574 1384.86C720.605 1402.47 740.592 1411.87 757.08 1421.19C774.897 1431.26 793.131 1440.59 811.715 1449.18C878.996 1480.29 950.918 1501.42 1024.24 1512.2C1097.68 1523 1172.84 1523.17 1246.28 1512.36C1252.49 1511.44 1255.14 1520.93 1248.9 1521.85V1521.85ZM1171.66 1550.85C1165.32 1550.85 1165.33 1540.99 1171.66 1540.99C1178.02 1540.99 1178 1550.85 1171.66 1550.85ZM1135.42 1547.82C1135.23 1548.42 1134.89 1548.95 1134.4 1549.4C1133.96 1549.88 1133.43 1550.22 1132.82 1550.42C1132.23 1550.72 1131.6 1550.87 1130.92 1550.85C1130.42 1550.85 1129.92 1550.85 1129.41 1550.85C1128.52 1550.84 1127.7 1550.62 1126.93 1550.17L1125.93 1549.4C1125.32 1548.78 1124.9 1548.06 1124.66 1547.22C1124.61 1546.79 1124.55 1546.36 1124.49 1545.92C1124.46 1545.24 1124.61 1544.61 1124.92 1544.02C1125.11 1543.41 1125.45 1542.88 1125.93 1542.44C1126.38 1541.95 1126.91 1541.62 1127.52 1541.42C1128.11 1541.11 1128.73 1540.97 1129.41 1540.99C1129.92 1540.99 1130.42 1540.99 1130.92 1540.99C1131.81 1541 1132.64 1541.22 1133.41 1541.67L1134.4 1542.44C1135.02 1543.05 1135.44 1543.77 1135.68 1544.61C1135.73 1545.05 1135.79 1545.49 1135.85 1545.92C1135.87 1546.6 1135.73 1547.23 1135.42 1547.82V1547.82ZM1081.42 1542.84C1081.27 1543.49 1080.98 1544.04 1080.54 1544.52C1080.19 1545.05 1079.73 1545.48 1079.16 1545.79C1078.15 1546.29 1077.15 1546.8 1076.14 1547.31C1075.37 1547.75 1074.55 1547.98 1073.66 1547.98C1073.22 1547.92 1072.79 1547.86 1072.34 1547.8C1071.51 1547.57 1070.79 1547.14 1070.17 1546.53L1069.4 1545.54C1069.04 1544.97 1068.84 1544.36 1068.82 1543.71C1068.67 1543.05 1068.7 1542.39 1068.91 1541.74C1069.06 1541.1 1069.35 1540.54 1069.79 1540.07C1070.13 1539.53 1070.6 1539.11 1071.17 1538.8C1072.17 1538.29 1073.18 1537.79 1074.19 1537.29C1074.96 1536.84 1075.78 1536.61 1076.67 1536.61C1077.11 1536.67 1077.54 1536.72 1077.98 1536.79C1078.81 1537.02 1079.54 1537.44 1080.15 1538.05L1080.92 1539.05C1081.29 1539.61 1081.48 1540.22 1081.51 1540.88C1081.65 1541.54 1081.63 1542.19 1081.42 1542.84ZM1017.75 1535.75C1011.39 1535.75 1011.41 1525.91 1017.75 1525.91C1024.1 1525.91 1024.09 1535.75 1017.75 1535.75ZM964.909 1523.67C964.706 1524.28 964.371 1524.81 963.89 1525.25C963.441 1525.74 962.911 1526.08 962.307 1526.27C961.72 1526.58 961.083 1526.72 960.406 1526.7C959.9 1526.7 959.403 1526.7 958.897 1526.7C958.008 1526.7 957.184 1526.48 956.409 1526.03L955.413 1525.25C954.802 1524.64 954.385 1523.92 954.149 1523.08C954.092 1522.65 954.027 1522.21 953.969 1521.77C953.945 1521.09 954.084 1520.47 954.394 1519.88C954.598 1519.27 954.932 1518.74 955.413 1518.3C955.862 1517.81 956.392 1517.47 956.996 1517.28C957.583 1516.97 958.22 1516.83 958.897 1516.85C959.403 1516.85 959.9 1516.85 960.406 1516.85C961.295 1516.85 962.128 1517.08 962.894 1517.52L963.89 1518.3C964.502 1518.91 964.918 1519.63 965.154 1520.47C965.211 1520.9 965.268 1521.34 965.334 1521.77C965.358 1522.46 965.211 1523.08 964.909 1523.67ZM902.793 1512.19L902.018 1513.19C901.569 1513.67 901.047 1514 900.435 1514.21C899.848 1514.51 899.212 1514.66 898.535 1514.62C897.857 1514.66 897.229 1514.51 896.642 1514.21C896.03 1514 895.5 1513.67 895.059 1513.19C894.553 1512.68 894.048 1512.18 893.55 1511.68C892.938 1511.06 892.514 1510.33 892.277 1509.5C892.22 1509.07 892.163 1508.63 892.106 1508.2C892.106 1507.31 892.326 1506.47 892.775 1505.71L893.55 1504.71C893.991 1504.23 894.521 1503.89 895.133 1503.69C895.72 1503.38 896.348 1503.24 897.025 1503.27C897.702 1503.24 898.339 1503.38 898.926 1503.69C899.538 1503.89 900.068 1504.23 900.509 1504.71C901.015 1505.22 901.512 1505.72 902.018 1506.22C902.63 1506.83 903.054 1507.56 903.283 1508.39C903.348 1508.83 903.405 1509.26 903.462 1509.71C903.462 1510.59 903.234 1511.42 902.793 1512.19V1512.19ZM842.676 1488.97C842.48 1489.58 842.137 1490.11 841.664 1490.55C841.215 1491.03 840.685 1491.37 840.073 1491.57C839.486 1491.88 838.858 1492.02 838.18 1491.99C837.169 1491.99 836.165 1491.99 835.162 1491.99C834.273 1491.99 833.441 1491.77 832.674 1491.32L831.678 1490.55C831.066 1489.94 830.642 1489.21 830.414 1488.38C830.349 1487.94 830.291 1487.51 830.234 1487.07C830.21 1486.39 830.349 1485.76 830.659 1485.17C830.854 1484.56 831.197 1484.03 831.678 1483.58C832.127 1483.11 832.649 1482.77 833.261 1482.57C833.848 1482.26 834.485 1482.12 835.162 1482.15C836.165 1482.15 837.169 1482.15 838.18 1482.15C839.07 1482.15 839.894 1482.37 840.66 1482.82L841.664 1483.58C842.268 1484.2 842.692 1484.93 842.929 1485.76C842.986 1486.19 843.043 1486.63 843.1 1487.07C843.124 1487.74 842.986 1488.38 842.676 1488.97V1488.97ZM817.051 1607.39C823.398 1607.39 823.39 1617.24 817.051 1617.24C810.704 1617.24 810.712 1607.39 817.051 1607.39ZM848.345 1624.38C848.345 1623.5 848.566 1622.67 849.014 1621.9L849.781 1620.9C850.401 1620.3 851.127 1619.87 851.96 1619.64C852.392 1619.58 852.832 1619.52 853.265 1619.46C853.95 1619.43 854.578 1619.58 855.166 1619.89C855.778 1620.09 856.3 1620.43 856.748 1620.9C857.23 1621.35 857.572 1621.88 857.768 1622.49C858.078 1623.08 858.217 1623.71 858.192 1624.38C858.192 1624.89 858.192 1625.4 858.192 1625.89C858.192 1626.78 857.964 1627.62 857.523 1628.38L856.748 1629.38C856.137 1629.99 855.411 1630.41 854.578 1630.64C854.138 1630.71 853.705 1630.76 853.265 1630.82C852.588 1630.85 851.96 1630.71 851.372 1630.4C850.76 1630.2 850.23 1629.86 849.781 1629.38C849.308 1628.94 848.966 1628.41 848.762 1627.79C848.46 1627.21 848.313 1626.57 848.345 1625.89C848.345 1625.4 848.345 1624.89 848.345 1624.38V1624.38ZM901.578 1637.58C901.782 1636.97 902.116 1636.44 902.597 1635.99C903.046 1635.51 903.576 1635.18 904.188 1634.97C904.767 1634.67 905.404 1634.53 906.081 1634.55C906.587 1634.55 907.093 1634.55 907.59 1634.55C908.479 1634.56 909.312 1634.78 910.078 1635.23L911.074 1635.99C911.686 1636.61 912.11 1637.33 912.338 1638.17C912.395 1638.6 912.461 1639.04 912.518 1639.48C912.542 1640.15 912.404 1640.79 912.094 1641.37C911.898 1641.99 911.555 1642.51 911.074 1642.96C910.625 1643.44 910.103 1643.78 909.491 1643.98C908.904 1644.29 908.267 1644.43 907.59 1644.4C907.093 1644.4 906.587 1644.4 906.081 1644.4C905.192 1644.4 904.368 1644.18 903.601 1643.73L902.597 1642.96C901.986 1642.35 901.569 1641.62 901.333 1640.78C901.276 1640.35 901.219 1639.91 901.153 1639.48C901.129 1638.8 901.276 1638.16 901.578 1637.58V1637.58ZM746.132 1656.47C739.785 1656.47 739.793 1646.62 746.132 1646.62C752.479 1646.62 752.471 1656.47 746.132 1656.47ZM1305.23 1372.08C1274.57 1397.91 1242.5 1407.06 1206.99 1415.36C1149.25 1428.86 1090.1 1426.94 1031.43 1424.98C941.031 1421.96 849.341 1418.67 762.815 1384.75C739.295 1375.54 715.775 1363.7 697.183 1342.94C694.719 1340.18 692.508 1337.38 690.436 1334.54C684.064 1328.14 679.504 1321.46 676.29 1314.42C676.379 1317.58 676.412 1320.73 676.534 1323.88C676.559 1324.5 676.461 1325.04 676.314 1325.53C676.665 1326.05 676.918 1326.69 677.032 1327.48C683.322 1368.66 702.616 1407.35 731.977 1436.96C745.593 1450.68 761.428 1461.03 777.035 1472.24C792.421 1483.31 806.837 1496.06 814.726 1513.7C829.223 1546.13 822.174 1592.89 786.392 1608.39C771.014 1615.05 751.965 1614.44 738.186 1604.3C737.81 1604.03 737.5 1603.69 737.133 1603.4C735.861 1605.46 733.283 1606.75 730.55 1605.27C722.212 1600.75 712.985 1608.84 708.196 1615.08C702.714 1622.24 699.116 1630.95 696.065 1639.36C690.167 1655.62 686.83 1674.32 695.396 1690.07C709.722 1689.55 724.064 1688.84 738.398 1687.89C737.851 1685.21 736.481 1682.79 734.123 1681.17C729.301 1677.89 721.2 1679.88 719.397 1685.65C717.521 1691.7 708.009 1689.1 709.901 1683.03C715.783 1664.18 743.244 1666.65 747.78 1685.15C747.951 1685.82 748.033 1686.49 748.139 1687.16C762.954 1686.07 777.753 1684.74 792.527 1683.16C779.344 1667.79 767.881 1650.95 758.508 1632.89C755.587 1627.27 764.088 1622.3 767.008 1627.92C777.157 1647.46 789.778 1665.57 804.455 1681.82C854.17 1676.02 903.527 1667.39 951.824 1655.48C951.587 1655.25 951.359 1655.02 951.13 1654.79C950.519 1654.18 950.094 1653.45 949.866 1652.62C949.801 1652.18 949.743 1651.75 949.686 1651.31C949.686 1650.42 949.915 1649.59 950.355 1648.82L951.13 1647.82C951.579 1647.34 952.101 1647.01 952.713 1646.8C953.3 1646.49 953.937 1646.35 954.614 1646.38C955.291 1646.35 955.919 1646.49 956.507 1646.8C957.118 1647.01 957.649 1647.34 958.097 1647.82C959.101 1648.83 960.112 1649.84 961.116 1650.83C961.663 1651.39 962.038 1652.04 962.283 1652.78C973.973 1649.76 985.615 1646.62 997.159 1643.22C935.352 1637.13 874.647 1621.64 817.385 1597.42C811.56 1594.96 816.586 1586.47 822.354 1588.91C841.517 1597.02 861.113 1604.1 881.011 1610.16C927.113 1624.19 974.756 1632.58 1022.77 1635.29C1088.38 1614.06 1151.22 1586.14 1209.36 1550.55C1209.24 1550.5 1209.12 1550.48 1209 1550.42C1208.39 1550.22 1207.86 1549.88 1207.42 1549.4C1206.91 1548.9 1206.41 1548.39 1205.91 1547.89C1205.3 1547.28 1204.87 1546.56 1204.65 1545.72C1204.58 1545.28 1204.52 1544.85 1204.47 1544.41C1204.47 1543.52 1204.69 1542.7 1205.14 1541.92L1205.91 1540.93C1206.35 1540.45 1206.88 1540.11 1207.49 1539.91C1208.08 1539.6 1208.71 1539.46 1209.39 1539.48C1210.07 1539.46 1210.7 1539.6 1211.29 1539.91C1211.9 1540.11 1212.43 1540.45 1212.87 1540.93C1213.37 1541.43 1213.88 1541.94 1214.38 1542.44C1214.99 1543.05 1215.41 1543.77 1215.65 1544.61C1215.71 1545.05 1215.77 1545.49 1215.82 1545.92C1215.82 1546.16 1215.77 1546.38 1215.73 1546.6C1227.93 1538.98 1239.94 1531.05 1251.69 1522.72C1296.01 1466.92 1329.04 1397.48 1343 1311.02L1341.52 1310.99C1341.04 1322.2 1337.39 1333.28 1332.09 1342.36C1324.96 1354.59 1315.16 1363.71 1305.23 1372.08" fill="#F79819"/>
<path d="M634.006 1519.95C634.03 1519.92 634.055 1519.89 634.071 1519.81V1519.79C634.063 1519.8 634.038 1519.81 634.03 1519.82C634.022 1519.86 634.014 1519.92 634.006 1519.95Z" fill="#F79819"/>
<path d="M271.857 1544.36C271.69 1544.75 271.525 1545.14 271.361 1545.54C271.051 1546.11 270.626 1546.57 270.09 1546.91C269.615 1547.36 269.057 1547.65 268.416 1547.8C267.761 1548.01 267.108 1548.03 266.451 1547.89C265.797 1547.86 265.186 1547.67 264.621 1547.31C263.615 1546.8 262.612 1546.29 261.607 1545.79C260.865 1545.35 260.277 1544.76 259.84 1544.02C259.672 1543.63 259.507 1543.24 259.342 1542.84C259.108 1541.97 259.108 1541.1 259.342 1540.23C259.507 1539.83 259.672 1539.44 259.84 1539.05C260.147 1538.48 260.571 1538.01 261.107 1537.66C261.582 1537.23 262.141 1536.94 262.783 1536.79C263.436 1536.58 264.092 1536.55 264.746 1536.7C265.402 1536.73 266.012 1536.92 266.577 1537.29C267.582 1537.79 268.588 1538.29 269.593 1538.8C270.333 1539.24 270.922 1539.83 271.361 1540.57C271.525 1540.96 271.69 1541.35 271.857 1541.74C272.091 1542.62 272.091 1543.49 271.857 1544.36V1544.36ZM215.85 1547.82C215.651 1548.42 215.312 1548.95 214.832 1549.4C214.387 1549.88 213.858 1550.22 213.246 1550.42C212.659 1550.72 212.028 1550.87 211.35 1550.85C210.845 1550.85 210.343 1550.85 209.84 1550.85C208.951 1550.84 208.122 1550.62 207.354 1550.17L206.358 1549.4C205.748 1548.78 205.324 1548.07 205.092 1547.22C205.032 1546.79 204.975 1546.36 204.915 1545.92C204.889 1545.24 205.03 1544.61 205.338 1544.02C205.537 1543.41 205.876 1542.88 206.358 1542.44C206.803 1541.95 207.331 1541.62 207.941 1541.42C208.53 1541.11 209.161 1540.97 209.84 1540.99C210.343 1540.99 210.845 1540.99 211.35 1540.99C212.238 1541 213.067 1541.22 213.834 1541.67L214.832 1542.44C215.442 1543.05 215.865 1543.77 216.097 1544.61C216.157 1545.05 216.215 1545.49 216.274 1545.92C216.3 1546.6 216.16 1547.23 215.85 1547.82V1547.82ZM169.097 1550.85C162.749 1550.85 162.759 1540.99 169.097 1540.99C175.446 1540.99 175.437 1550.85 169.097 1550.85ZM135.874 1546.31C135.675 1546.91 135.335 1547.45 134.854 1547.89C134.351 1548.39 133.849 1548.9 133.346 1549.4C132.732 1550.01 132.007 1550.43 131.172 1550.67C130.737 1550.72 130.299 1550.79 129.864 1550.85C128.973 1550.84 128.145 1550.62 127.378 1550.17L126.381 1549.4C125.902 1548.95 125.562 1548.42 125.363 1547.82C125.055 1547.23 124.911 1546.6 124.938 1545.92C124.911 1545.24 125.055 1544.61 125.363 1544.02C125.562 1543.41 125.902 1542.88 126.381 1542.44C126.883 1541.94 127.386 1541.43 127.888 1540.93C128.505 1540.31 129.229 1539.9 130.063 1539.66C130.5 1539.61 130.935 1539.54 131.373 1539.48C132.261 1539.49 133.089 1539.71 133.859 1540.16L134.854 1540.93C135.335 1541.38 135.675 1541.91 135.874 1542.51C136.182 1543.1 136.323 1543.73 136.297 1544.41C136.323 1545.09 136.182 1545.72 135.874 1546.31ZM323.016 1525.91C329.364 1525.91 329.354 1535.75 323.016 1535.75C316.666 1535.75 316.676 1525.91 323.016 1525.91ZM375.856 1519.88C376.054 1519.27 376.394 1518.74 376.873 1518.3C377.32 1517.81 377.849 1517.47 378.459 1517.28C379.045 1516.97 379.679 1516.83 380.357 1516.85C380.86 1516.85 381.363 1516.85 381.865 1516.85C382.754 1516.85 383.582 1517.08 384.352 1517.52L385.347 1518.3C385.958 1518.91 386.381 1519.63 386.615 1520.47C386.672 1520.9 386.733 1521.34 386.79 1521.77C386.816 1522.46 386.675 1523.08 386.366 1523.67C386.168 1524.28 385.828 1524.81 385.347 1525.25C384.902 1525.74 384.373 1526.08 383.763 1526.27C383.177 1526.58 382.543 1526.72 381.865 1526.7C381.363 1526.7 380.86 1526.7 380.357 1526.7C379.466 1526.7 378.64 1526.48 377.87 1526.03L376.873 1525.25C376.263 1524.64 375.841 1523.92 375.607 1523.08C375.549 1522.65 375.49 1522.21 375.432 1521.77C375.407 1521.09 375.548 1520.47 375.856 1519.88ZM437.724 1507.8C437.923 1507.19 438.263 1506.67 438.743 1506.22C439.246 1505.72 439.749 1505.22 440.252 1504.71C440.866 1504.1 441.591 1503.68 442.424 1503.45C442.861 1503.39 443.298 1503.33 443.734 1503.27C444.624 1503.27 445.453 1503.5 446.22 1503.95L447.217 1504.71C447.696 1505.16 448.036 1505.68 448.235 1506.3C448.543 1506.88 448.684 1507.52 448.661 1508.2C448.684 1508.87 448.543 1509.5 448.235 1510.1C448.036 1510.7 447.696 1511.23 447.217 1511.68C446.715 1512.18 446.211 1512.68 445.707 1513.19C445.093 1513.8 444.369 1514.22 443.535 1514.45C443.097 1514.51 442.663 1514.57 442.225 1514.62C441.337 1514.62 440.508 1514.4 439.739 1513.96L438.743 1513.19C438.263 1512.74 437.923 1512.21 437.724 1511.6C437.415 1511.02 437.275 1510.38 437.301 1509.71C437.275 1509.03 437.415 1508.39 437.724 1507.8V1507.8ZM498.084 1485.17C498.283 1484.56 498.623 1484.03 499.102 1483.58C499.549 1483.11 500.077 1482.77 500.687 1482.57C501.274 1482.26 501.907 1482.12 502.585 1482.15C503.591 1482.15 504.596 1482.15 505.602 1482.15C506.492 1482.15 507.321 1482.37 508.088 1482.82L509.086 1483.58C509.696 1484.2 510.118 1484.93 510.352 1485.76C510.411 1486.19 510.468 1486.63 510.529 1487.07C510.554 1487.74 510.411 1488.38 510.103 1488.97C509.905 1489.58 509.565 1490.11 509.086 1490.55C508.639 1491.03 508.111 1491.37 507.501 1491.57C506.914 1491.88 506.282 1492.02 505.602 1491.99C504.596 1491.99 503.591 1491.99 502.585 1491.99C501.694 1491.99 500.869 1491.77 500.099 1491.33L499.102 1490.55C498.492 1489.94 498.07 1489.21 497.836 1488.38C497.778 1487.94 497.718 1487.51 497.66 1487.07C497.635 1486.39 497.776 1485.76 498.084 1485.17V1485.17ZM223.342 1507.68C157.135 1498.82 93.7464 1473.53 39.9579 1433.84C34.9064 1430.11 39.825 1421.57 44.9312 1425.33C97.2079 1463.91 158.899 1489.21 223.342 1497.84C229.543 1498.67 229.604 1508.52 223.342 1507.68ZM523.711 1617.24C517.361 1617.24 517.373 1607.39 523.711 1607.39C530.06 1607.39 530.048 1617.24 523.711 1617.24ZM492.419 1625.89C492.418 1626.78 492.193 1627.62 491.748 1628.38L490.977 1629.38C490.363 1629.99 489.637 1630.41 488.805 1630.64C488.368 1630.71 487.93 1630.76 487.495 1630.82C486.817 1630.85 486.183 1630.71 485.598 1630.4C484.987 1630.2 484.459 1629.86 484.012 1629.38C483.533 1628.94 483.193 1628.41 482.994 1627.8C482.686 1627.21 482.545 1626.57 482.571 1625.89C482.571 1625.4 482.571 1624.89 482.571 1624.38C482.572 1623.5 482.797 1622.67 483.242 1621.9L484.012 1620.9C484.627 1620.3 485.351 1619.87 486.186 1619.64C486.623 1619.58 487.058 1619.52 487.495 1619.46C488.173 1619.43 488.805 1619.58 489.393 1619.89C490.003 1620.09 490.532 1620.43 490.977 1620.9C491.458 1621.35 491.798 1621.88 491.997 1622.49C492.305 1623.08 492.446 1623.71 492.419 1624.38C492.419 1624.89 492.419 1625.4 492.419 1625.89V1625.89ZM594.634 1646.62C600.982 1646.62 600.971 1656.47 594.634 1656.47C588.284 1656.47 588.296 1646.62 594.634 1646.62ZM439.181 1641.37C438.982 1641.99 438.644 1642.51 438.163 1642.96C437.716 1643.44 437.189 1643.78 436.577 1643.98C435.991 1644.29 435.359 1644.43 434.679 1644.41C434.177 1644.41 433.674 1644.41 433.171 1644.41C432.282 1644.4 431.454 1644.18 430.685 1643.73L429.69 1642.96C429.079 1642.35 428.656 1641.62 428.421 1640.78C428.364 1640.35 428.304 1639.91 428.246 1639.48C428.22 1638.8 428.361 1638.16 428.67 1637.58C428.868 1636.97 429.208 1636.44 429.69 1635.99C430.135 1635.51 430.663 1635.18 431.272 1634.97C431.861 1634.67 432.493 1634.53 433.171 1634.55C433.674 1634.55 434.177 1634.55 434.679 1634.55C435.57 1634.56 436.398 1634.78 437.166 1635.23L438.163 1635.99C438.774 1636.61 439.195 1637.33 439.429 1638.17C439.488 1638.6 439.547 1639.04 439.606 1639.48C439.631 1640.15 439.488 1640.79 439.181 1641.37V1641.37ZM390.651 1653.21C390.453 1653.81 390.113 1654.34 389.634 1654.79C388.626 1655.79 387.619 1656.8 386.611 1657.8C385.997 1658.41 385.273 1658.84 384.439 1659.07C384.002 1659.13 383.566 1659.19 383.129 1659.24C382.242 1659.24 381.412 1659.02 380.643 1658.58L379.647 1657.8C379.167 1657.36 378.827 1656.83 378.628 1656.22C378.32 1655.63 378.179 1655 378.204 1654.33C378.179 1653.65 378.32 1653.01 378.628 1652.42C378.827 1651.81 379.167 1651.28 379.647 1650.83C380.652 1649.84 381.661 1648.83 382.668 1647.82C383.282 1647.21 384.008 1646.8 384.84 1646.56C385.277 1646.5 385.714 1646.44 386.15 1646.38C387.04 1646.39 387.867 1646.61 388.637 1647.06L389.634 1647.82C390.113 1648.27 390.453 1648.8 390.651 1649.41C390.959 1649.99 391.101 1650.63 391.075 1651.31C391.101 1651.98 390.959 1652.62 390.651 1653.21V1653.21ZM306.298 1635.93C379.061 1633.25 451.34 1617.29 518.406 1588.91C524.182 1586.47 529.197 1594.96 523.38 1597.42C504.001 1605.62 484.269 1612.91 464.158 1619.11C415.922 1633.95 365.85 1642.74 315.46 1645.33C383.161 1667.34 453.068 1681.42 526.058 1686.63C527.823 1686.77 529.602 1686.87 531.369 1687C548.141 1669.43 562.498 1649.59 573.751 1627.92C576.676 1622.29 585.174 1627.27 582.256 1632.89C571.915 1652.81 559.063 1671.27 544.129 1687.86C550.202 1688.26 556.293 1688.59 562.393 1688.91C563.187 1687.99 564.375 1687.37 565.962 1687.37C567.748 1687.37 568.976 1688.18 569.756 1689.3C577.202 1689.66 584.67 1689.95 592.149 1690.2C592.257 1686.52 593.259 1682.75 595.47 1679.09C603.806 1665.32 626.01 1667.48 630.856 1683.03C632.749 1689.11 623.245 1691.69 621.362 1685.65C619.564 1679.88 611.459 1677.89 606.637 1681.17C603.532 1683.3 602.152 1686.83 602.086 1690.48C616.283 1690.87 630.522 1691.07 644.807 1691.05C654.058 1675.1 650.721 1655.97 644.693 1639.36C641.641 1630.95 638.052 1622.24 632.57 1615.08C627.781 1608.84 618.55 1600.75 610.209 1605.27C607.416 1606.78 604.777 1605.4 603.536 1603.27C599.911 1606.18 595.806 1608.6 591.181 1610.23C575.321 1615.83 556.762 1612.15 543.576 1602.01C512.882 1578.41 512.062 1531.01 533.274 1500.98C544.375 1485.26 560.415 1474.47 576.014 1463.68C591.433 1453.01 605.649 1441.27 617.953 1427.05C642.253 1398.97 658.129 1364.15 663.726 1327.48C664.036 1325.44 665.251 1324.37 666.703 1324.03C666.703 1323.98 666.687 1323.94 666.687 1323.88C666.532 1319.91 666.475 1315.94 666.369 1311.98C663.138 1319.91 658.251 1327.4 651.154 1334.54C649.074 1337.37 646.871 1340.18 644.399 1342.94C625.815 1363.7 602.291 1375.54 578.77 1384.75C492.243 1418.67 400.554 1421.96 310.153 1424.98C251.49 1426.94 192.337 1428.86 134.594 1415.36C99.0843 1407.06 67.0162 1397.91 36.3634 1372.09C26.4341 1363.71 16.6247 1354.59 9.49367 1342.36C7.70458 1339.29 6.1015 1335.99 4.74316 1332.53C19.9263 1406.67 49.6123 1467.62 88.3229 1517.78C88.3734 1514.96 90.7964 1511.81 94.4896 1512.36C135.711 1518.43 177.44 1521 219.097 1520.21C293.247 1518.8 367.091 1506.65 437.831 1484.38C473.409 1473.19 508.174 1459.45 541.736 1443.18C558.049 1435.27 574.079 1426.77 589.778 1417.71C604.497 1409.2 621.121 1400.59 629.192 1384.86C632.088 1379.21 640.581 1384.2 637.693 1389.83C628.58 1407.61 609.875 1417.53 593.229 1427.09C574.721 1437.72 555.753 1447.56 536.41 1456.58C467.63 1488.67 394.223 1510.65 319.136 1521.7C243.801 1532.78 167.211 1532.95 91.87 1521.85C91.6848 1521.83 91.5339 1521.77 91.3642 1521.73C102.321 1535.6 113.944 1548.67 126.176 1560.91C179.34 1591.12 233.487 1616.37 289.063 1636.3C294.809 1636.25 300.555 1636.14 306.298 1635.93Z" fill="#F79819"/>
<path d="M648.919 1528.21C644.342 1537.88 629.372 1540.41 622.111 1532.43C619.422 1529.47 618.113 1525.83 617.914 1522.1C617.451 1519.85 617.558 1517.48 618.411 1515.13C618.993 1513.52 619.81 1512.06 620.802 1510.75C622.372 1508.14 624.509 1505.86 627.153 1504.27C628.67 1503.36 630.4 1503.51 631.844 1504.27C632.203 1504.21 632.562 1504.13 632.929 1504.1C638.819 1503.57 644.228 1507.14 647.475 1511.79C650.811 1516.59 651.407 1522.95 648.919 1528.21V1528.21ZM690.362 1520.01C690.999 1514.35 694.172 1509.1 699.157 1506.21C702.126 1504.48 705.545 1503.86 708.857 1504.26C710.342 1503.51 712.185 1503.41 713.613 1504.27C716.02 1505.72 717.929 1507.65 719.528 1509.95C719.797 1510.34 719.968 1510.79 720.213 1511.21C722.595 1514.53 723.794 1518.65 722.742 1522.69C722.677 1523.51 722.652 1524.32 722.489 1525.12C721.355 1530.5 717.301 1534.82 712.12 1536.48C701.629 1539.85 689.049 1531.52 690.362 1520.01V1520.01ZM692.41 1622.61C698.724 1609.2 712.675 1591.36 728.918 1594.4C723.028 1585.54 720.564 1574.44 722.44 1563.84C724.039 1554.84 728.926 1547.34 735.852 1542.44C738.12 1527.83 737.565 1511.52 728.91 1498.99C721.804 1488.69 708.376 1482.02 696.024 1485.86C689.946 1487.74 687.376 1478.23 693.405 1476.35C709.534 1471.35 726.601 1479.55 736.342 1492.53C745.968 1505.35 747.755 1521.9 746.303 1537.55C747.926 1537.12 749.591 1536.77 751.312 1536.58C764.879 1535.04 779.808 1541.32 785.421 1554.34C787.91 1560.11 779.417 1565.12 776.92 1559.31C771.487 1546.71 754.902 1542.71 743.244 1549.14C729.758 1556.57 729.024 1575.48 736.089 1587.58C743.839 1600.86 760.547 1605.2 774.873 1601.88C790.447 1598.26 802.137 1586.14 807.856 1571.51C814.13 1555.48 813.543 1537.45 807.375 1521.49C801.069 1505.14 788.587 1492.92 774.742 1482.7C761.616 1473.03 747.755 1464.44 735.436 1453.7C723.338 1443.16 712.61 1431.1 703.301 1418.04C687.637 1396.07 676.42 1370.98 670.391 1344.69C663.465 1374.78 649.694 1403.05 630.489 1427.29C620.488 1439.92 608.975 1451.28 596.237 1461.15C583.099 1471.32 568.592 1479.72 556.048 1490.66C542.611 1502.37 532.965 1517.05 529.619 1534.74C526.565 1550.9 529.36 1568.22 538.382 1582.08C546.93 1595.21 561.209 1603.48 577.018 1602.93C592.033 1602.41 604.875 1593.12 608.315 1578.27C611.186 1565.87 606.32 1551.39 593.316 1547.36C582.036 1543.86 568.691 1548.06 563.844 1559.31C561.338 1565.12 552.855 1560.1 555.338 1554.34C561.667 1539.65 579.635 1533.69 594.456 1537.46C593.015 1521.84 594.824 1505.34 604.418 1492.53C614.149 1479.54 631.24 1471.35 647.352 1476.35C653.398 1478.24 650.803 1487.74 644.734 1485.86C632.39 1482.02 618.946 1488.68 611.85 1498.99C603.23 1511.5 602.646 1527.73 604.896 1542.31C614.93 1549.49 620.057 1562.22 618.77 1575C618.049 1582.17 615.551 1588.71 611.761 1594.33C630.726 1590.35 645.231 1614.65 651.44 1629.69C659.386 1648.92 664.623 1671.06 655.91 1690.95C665.472 1690.86 675.041 1690.69 684.619 1690.41C683.86 1688.68 683.191 1686.92 682.628 1685.13C676.183 1664.36 683.526 1641.5 692.41 1622.61" fill="#F79819"/>
<path d="M634.038 1519.81C634.022 1519.81 634.071 1519.76 634.079 1519.75V1519.71L634.038 1519.77C634.038 1519.79 634.038 1519.8 634.038 1519.81Z" fill="#F79819"/>
<path d="M633.924 1519.94C633.924 1519.95 633.916 1519.98 633.916 1519.98L634.038 1519.77C634.047 1519.73 634.047 1519.7 634.063 1519.65C634.006 1519.73 633.965 1519.83 633.924 1519.94" fill="#F79819"/>
<path d="M634.079 1519.62C634.071 1519.63 634.071 1519.63 634.062 1519.63C634.062 1519.64 634.062 1519.65 634.062 1519.65C634.071 1519.65 634.071 1519.64 634.079 1519.63V1519.62Z" fill="#F79819"/>
<path d="M634.079 1519.71L634.104 1519.67L634.12 1519.59C634.104 1519.61 634.095 1519.62 634.079 1519.63V1519.71Z" fill="#F79819"/>
<path d="M746.017 1260.38C775.909 1259.45 805.808 1260.56 835.708 1260.11C927.667 1258.73 1019.66 1259.46 1111.58 1262.32C1155.26 1263.67 1199.01 1265.51 1242.3 1271.52C1263.55 1274.46 1290.07 1283.48 1295.52 1307.69C1297.95 1318.48 1294.04 1329.95 1287.39 1338.78C1280.74 1347.61 1271.6 1354.21 1262.34 1360.26C1245.61 1371.19 1228.4 1377.97 1210.38 1382.93C1197.63 1386.44 1184.47 1389.05 1170.75 1391.53C1116.91 1401.29 1061.75 1399.9 1007.05 1398.49C922.764 1396.3 837.275 1393.92 756.598 1369.42C736.089 1363.19 715.579 1355.3 698.838 1342.04C697.672 1341.12 696.53 1340.18 695.404 1339.2C693.625 1337.67 691.986 1336.11 690.436 1334.54C692.508 1337.38 694.719 1340.18 697.182 1342.94C715.775 1363.7 739.295 1375.54 762.815 1384.75C849.341 1418.67 941.03 1421.96 1031.43 1424.98C1090.1 1426.94 1149.25 1428.86 1206.99 1415.36C1242.5 1407.06 1274.57 1397.91 1305.23 1372.09C1315.16 1363.71 1324.96 1354.59 1332.09 1342.36C1337.39 1333.29 1341.04 1322.2 1341.52 1310.99C1341.69 1307.09 1341.48 1303.18 1340.81 1299.33C1334.96 1265.83 1306.52 1253.35 1283.72 1249.27C1237.29 1240.97 1190.38 1238.42 1143.53 1236.55C1044.94 1232.6 946.284 1231.58 847.66 1233.49C817.279 1234.07 786.881 1232.76 756.5 1233.72C751.891 1243.33 746.319 1252.34 739.629 1260.48C741.799 1260.47 743.937 1260.45 746.017 1260.38" fill="#F46920"/>
<path d="M9.49385 1342.36C16.6249 1354.59 26.4343 1363.71 36.3636 1372.09C67.0163 1397.91 99.0845 1407.06 134.594 1415.36C192.337 1428.86 251.491 1426.94 310.153 1424.98C400.554 1421.96 492.243 1418.67 578.771 1384.75C602.291 1375.54 625.815 1363.7 644.399 1342.94C646.871 1340.18 649.074 1337.37 651.154 1334.54C649.596 1336.11 647.956 1337.67 646.186 1339.2C644.595 1340.58 642.955 1341.88 641.291 1343.15C624.819 1355.74 604.911 1363.37 584.991 1369.42C504.313 1393.92 418.819 1396.3 334.529 1398.49C279.832 1399.9 224.676 1401.29 170.836 1391.53C165.162 1390.51 159.59 1389.45 154.094 1388.33C127.523 1382.91 102.926 1375.72 79.2422 1360.26C69.9851 1354.21 60.8398 1347.61 54.1917 1338.78C47.542 1329.95 43.635 1318.48 46.0629 1307.69C51.5166 1283.48 78.0405 1274.46 99.2909 1271.52C142.577 1265.51 186.325 1263.67 230.005 1262.32C321.931 1259.46 413.924 1258.73 505.882 1260.11C535.772 1260.56 565.68 1259.45 595.566 1260.38C597.32 1260.44 599.117 1260.47 600.933 1260.47C594.616 1252.33 589.256 1243.25 584.683 1233.71C554.439 1232.77 524.176 1234.07 493.929 1233.49C395.301 1231.58 296.644 1232.6 198.053 1236.55C151.206 1238.42 104.289 1240.97 57.8621 1249.27C35.0714 1253.35 6.62626 1265.83 0.777664 1299.33C-1.17214 1310.52 0.689544 1322.22 4.74334 1332.53C6.10168 1335.99 7.70476 1339.29 9.49385 1342.36" fill="#F46920"/>
<path d="M170.836 1391.53C224.676 1401.29 279.832 1399.9 334.529 1398.48C418.819 1396.3 504.313 1393.92 584.991 1369.42C604.911 1363.37 624.819 1355.74 641.291 1343.15C478.242 1347.68 315.09 1364.12 154.094 1388.33C159.59 1389.45 165.162 1390.51 170.836 1391.53" fill="#6B2016"/>
<path d="M666.01 1295.57C661.36 1295.41 656.726 1294.88 652.157 1293.94C630.245 1289.43 613.656 1276.87 600.933 1260.47C599.117 1260.46 597.32 1260.44 595.566 1260.38C565.68 1259.44 535.772 1260.56 505.882 1260.11C413.924 1258.73 321.931 1259.46 230.005 1262.32C186.325 1263.67 142.577 1265.51 99.2909 1271.52C78.0405 1274.46 51.5166 1283.48 46.0629 1307.69C43.635 1318.48 47.542 1329.95 54.1917 1338.78C60.8398 1347.61 69.9851 1354.21 79.2422 1360.26C102.926 1375.72 127.523 1382.91 154.094 1388.33C315.09 1364.12 478.242 1347.68 641.291 1343.15C642.955 1341.87 644.595 1340.58 646.186 1339.2C647.956 1337.67 649.596 1336.11 651.154 1334.54C658.252 1327.4 663.138 1319.91 666.369 1311.98C666.23 1306.51 666.083 1301.04 666.01 1295.57Z" fill="#A03B1E"/>
<path d="M675.865 1295.35C675.938 1301.7 676.101 1308.07 676.289 1314.42C679.503 1321.46 684.064 1328.15 690.435 1334.54C691.985 1336.11 693.625 1337.67 695.404 1339.2C696.529 1340.18 697.672 1341.12 698.838 1342.04C870.649 1340.28 1042.04 1352.29 1210.38 1382.93C1228.4 1377.97 1245.61 1371.19 1262.34 1360.26C1271.6 1354.21 1280.74 1347.61 1287.39 1338.78C1294.04 1329.95 1297.95 1318.48 1295.52 1307.69C1290.07 1283.48 1263.55 1274.46 1242.3 1271.52C1199.01 1265.51 1155.26 1263.67 1111.58 1262.32C1019.66 1259.46 927.667 1258.73 835.708 1260.11C805.808 1260.56 775.909 1259.45 746.017 1260.38C743.937 1260.45 741.799 1260.47 739.629 1260.48C735.289 1265.76 730.5 1270.7 725.214 1275.2C712.413 1286.1 696.293 1292.9 679.618 1294.96C679.161 1295.01 678.712 1295.06 678.255 1295.11C677.456 1295.19 676.664 1295.29 675.865 1295.35" fill="#A03B1E"/>
<path d="M698.839 1342.04C715.579 1355.3 736.089 1363.19 756.599 1369.42C837.275 1393.92 922.765 1396.3 1007.05 1398.48C1061.76 1399.9 1116.91 1401.29 1170.75 1391.53C1184.47 1389.05 1197.63 1386.44 1210.38 1382.93C1042.05 1352.29 870.65 1340.28 698.839 1342.04" fill="#6B2016"/>
<path d="M652.158 1293.94C656.726 1294.88 661.36 1295.41 666.01 1295.57C666.01 1295.54 666.01 1295.51 666.01 1295.49C662.722 1295.34 659.443 1295.06 656.22 1294.49C629.494 1289.74 612.826 1271.94 602.03 1251.56C593.451 1235.36 589.827 1215.64 589.73 1196.18C589.66 1182.37 591.355 1168.69 594.381 1156.52C605.996 1109.78 638.933 1068.8 677.66 1034.59C703.75 1063.16 726.911 1094.25 740.331 1128.72C745.919 1143.07 750.031 1159.91 751.63 1177.36C755.179 1216.08 746.319 1257.77 713.572 1281.81C703.995 1288.84 692.051 1293.34 679.618 1294.96C696.293 1292.9 712.414 1286.1 725.214 1275.2C730.5 1270.7 735.289 1265.76 739.63 1260.48C746.319 1252.34 751.891 1243.33 756.501 1233.72C772.515 1200.38 776.749 1159.58 773.682 1120.78C771.65 1094.99 766.413 1070.09 759.291 1048.88C742.199 997.926 712.699 951.963 679.471 909.728C630.139 960.301 588.191 1020.89 573.399 1089.98C569.545 1107.97 567.385 1128.19 567.475 1148.61C567.598 1177.37 572.216 1206.53 583.141 1230.47C583.638 1231.55 584.166 1232.63 584.683 1233.71C589.256 1243.25 594.616 1252.33 600.933 1260.47C613.656 1276.87 630.245 1289.43 652.158 1293.94" fill="#FCD268"/>
<path d="M675.865 1295.28C675.865 1295.31 675.865 1295.33 675.865 1295.35C676.664 1295.29 677.456 1295.19 678.255 1295.11C677.456 1295.2 676.656 1295.22 675.865 1295.28Z" fill="#FCD268"/>
<path d="M649.751 1281.42C632.847 1260.15 625.407 1234.64 627.504 1209.82C630.179 1178.14 647.703 1147.76 673.646 1123.11C690.175 1144.23 703.375 1167.09 709.803 1191.26C716.224 1215.42 715.661 1240.96 705.422 1264.32C700.862 1274.72 693.446 1286.29 681.29 1292.62C679.373 1293.61 677.57 1294.34 675.857 1294.84C675.857 1294.98 675.857 1295.14 675.865 1295.28C676.657 1295.22 677.456 1295.2 678.256 1295.11C678.712 1295.06 679.161 1295.01 679.618 1294.96C692.051 1293.34 703.995 1288.84 713.572 1281.81C746.319 1257.77 755.179 1216.08 751.63 1177.36C750.031 1159.91 745.919 1143.07 740.331 1128.72C726.911 1094.25 703.75 1063.16 677.66 1034.59C638.933 1068.8 605.996 1109.78 594.381 1156.52C591.355 1168.69 589.66 1182.37 589.73 1196.18C589.827 1215.64 593.451 1235.36 602.03 1251.56C612.826 1271.94 629.494 1289.74 656.22 1294.49C659.443 1295.06 662.722 1295.34 666.01 1295.49C666.01 1295.32 666.01 1295.16 666.01 1295C659.492 1293.16 654.548 1287.46 649.751 1281.42" fill="#FABB48"/>
<path d="M666.687 1323.88C666.687 1323.94 666.704 1323.98 666.704 1324.03C667.887 1323.76 669.216 1323.98 670.383 1324.6C672.431 1323.52 675.025 1323.64 676.314 1325.53C676.461 1325.04 676.559 1324.5 676.534 1323.88C676.412 1320.73 676.379 1317.58 676.29 1314.42C676.102 1308.07 675.939 1301.7 675.865 1295.35C675.865 1295.33 675.865 1295.31 675.865 1295.28C675.857 1295.14 675.857 1294.98 675.857 1294.84C672.162 1295.9 668.931 1295.82 666.01 1295C666.01 1295.16 666.01 1295.32 666.01 1295.49C666.01 1295.51 666.01 1295.55 666.01 1295.57C666.084 1301.04 666.231 1306.51 666.369 1311.98C666.475 1315.94 666.532 1319.91 666.687 1323.88" fill="#6B2016"/>
<path d="M319.137 1521.7C394.223 1510.65 467.63 1488.67 536.41 1456.58C555.753 1447.56 574.721 1437.72 593.229 1427.09C609.875 1417.53 628.58 1407.61 637.693 1389.83C640.581 1384.2 632.088 1379.21 629.192 1384.86C621.121 1400.59 604.497 1409.2 589.778 1417.71C574.079 1426.77 558.049 1435.27 541.737 1443.18C508.174 1459.45 473.409 1473.19 437.832 1484.38C367.091 1506.65 293.247 1518.8 219.097 1520.2C177.441 1521 135.711 1518.43 94.4898 1512.36C90.7966 1511.81 88.3736 1514.96 88.323 1517.78C88.292 1519.56 89.2139 1521.2 91.3644 1521.73C91.5341 1521.77 91.685 1521.83 91.8702 1521.85C167.211 1532.95 243.802 1532.78 319.137 1521.7" fill="#F8C14A"/>
<path d="M523.38 1597.42C529.197 1594.96 524.182 1586.47 518.406 1588.91C451.34 1617.29 379.061 1633.25 306.298 1635.93C300.555 1636.14 294.809 1636.25 289.063 1636.3C274.206 1636.41 259.347 1635.99 244.514 1635.02C238.185 1634.62 238.211 1644.47 244.514 1644.88C268.13 1646.41 291.829 1646.54 315.46 1645.33C365.85 1642.74 415.922 1633.95 464.158 1619.11C484.269 1612.91 504.001 1605.62 523.38 1597.42Z" fill="#F8C14A"/>
<path d="M573.751 1627.92C562.498 1649.59 548.141 1669.43 531.369 1687C518.415 1700.56 504.059 1712.79 488.346 1723.23C483.09 1726.72 488.016 1735.25 493.316 1731.73C512.064 1719.28 529.145 1704.51 544.129 1687.86C559.063 1671.27 571.915 1652.81 582.256 1632.89C585.174 1627.27 576.676 1622.29 573.751 1627.92Z" fill="#F8C14A"/>
<path d="M134.854 1540.93L133.86 1540.16C133.09 1539.71 132.262 1539.49 131.373 1539.48C130.936 1539.54 130.5 1539.61 130.063 1539.66C129.229 1539.9 128.506 1540.31 127.889 1540.93C127.386 1541.43 126.884 1541.94 126.381 1542.44C125.902 1542.88 125.562 1543.41 125.364 1544.02C125.056 1544.61 124.912 1545.24 124.938 1545.92C124.912 1546.6 125.056 1547.23 125.364 1547.82C125.562 1548.42 125.902 1548.95 126.381 1549.4L127.378 1550.17C128.146 1550.62 128.974 1550.84 129.865 1550.85C130.3 1550.79 130.738 1550.72 131.173 1550.67C132.007 1550.43 132.732 1550.02 133.347 1549.4C133.849 1548.9 134.352 1548.39 134.854 1547.89C135.336 1547.45 135.676 1546.91 135.874 1546.31C136.182 1545.72 136.324 1545.09 136.298 1544.41C136.324 1543.73 136.182 1543.1 135.874 1542.51C135.676 1541.91 135.336 1541.38 134.854 1540.93Z" fill="#F8C14A"/>
<path d="M169.098 1540.99C162.759 1540.99 162.75 1550.85 169.098 1550.85C175.437 1550.85 175.447 1540.99 169.098 1540.99Z" fill="#F8C14A"/>
<path d="M214.832 1542.44L213.834 1541.67C213.067 1541.22 212.238 1541 211.35 1540.99C210.845 1540.99 210.343 1540.99 209.84 1540.99C209.161 1540.97 208.53 1541.11 207.941 1541.42C207.331 1541.62 206.803 1541.95 206.358 1542.44C205.877 1542.88 205.537 1543.41 205.338 1544.02C205.031 1544.61 204.889 1545.24 204.915 1545.92C204.975 1546.36 205.032 1546.79 205.092 1547.22C205.324 1548.07 205.748 1548.78 206.358 1549.4L207.354 1550.17C208.122 1550.62 208.951 1550.84 209.84 1550.85C210.343 1550.85 210.845 1550.85 211.35 1550.85C212.028 1550.87 212.659 1550.72 213.246 1550.42C213.858 1550.22 214.387 1549.88 214.832 1549.4C215.312 1548.95 215.651 1548.42 215.85 1547.82C216.16 1547.23 216.3 1546.6 216.274 1545.92C216.215 1545.49 216.157 1545.05 216.097 1544.61C215.865 1543.77 215.442 1543.05 214.832 1542.44" fill="#F8C14A"/>
<path d="M271.361 1540.57C270.922 1539.83 270.333 1539.24 269.594 1538.8C268.588 1538.29 267.583 1537.79 266.577 1537.29C266.012 1536.92 265.402 1536.73 264.746 1536.7C264.092 1536.55 263.437 1536.58 262.783 1536.79C262.141 1536.94 261.582 1537.23 261.108 1537.66C260.571 1538.01 260.147 1538.48 259.84 1539.05C259.673 1539.44 259.508 1539.83 259.342 1540.22C259.108 1541.1 259.108 1541.97 259.342 1542.84C259.508 1543.24 259.673 1543.63 259.84 1544.02C260.277 1544.76 260.865 1545.35 261.607 1545.79C262.612 1546.29 263.615 1546.8 264.621 1547.31C265.186 1547.67 265.798 1547.86 266.451 1547.89C267.108 1548.03 267.761 1548.01 268.416 1547.8C269.057 1547.65 269.616 1547.36 270.091 1546.91C270.626 1546.57 271.051 1546.11 271.361 1545.54C271.526 1545.14 271.69 1544.75 271.858 1544.36C272.092 1543.49 272.092 1542.62 271.858 1541.74C271.69 1541.35 271.526 1540.96 271.361 1540.57" fill="#F8C14A"/>
<path d="M323.016 1535.75C329.354 1535.75 329.364 1525.91 323.016 1525.91C316.676 1525.91 316.666 1535.75 323.016 1535.75Z" fill="#F8C14A"/>
<path d="M376.874 1525.25L377.871 1526.03C378.64 1526.48 379.466 1526.7 380.357 1526.7C380.86 1526.7 381.363 1526.7 381.866 1526.7C382.544 1526.72 383.177 1526.58 383.763 1526.27C384.373 1526.08 384.902 1525.74 385.347 1525.25C385.828 1524.81 386.168 1524.28 386.366 1523.67C386.675 1523.08 386.816 1522.46 386.79 1521.77C386.733 1521.34 386.672 1520.9 386.615 1520.47C386.381 1519.63 385.959 1518.91 385.347 1518.3L384.352 1517.52C383.582 1517.08 382.754 1516.85 381.866 1516.85C381.363 1516.85 380.86 1516.85 380.357 1516.85C379.679 1516.83 379.045 1516.97 378.46 1517.28C377.849 1517.47 377.32 1517.81 376.874 1518.3C376.394 1518.74 376.055 1519.27 375.856 1519.88C375.548 1520.47 375.407 1521.09 375.432 1521.77C375.49 1522.21 375.55 1522.65 375.607 1523.08C375.842 1523.92 376.263 1524.64 376.874 1525.25Z" fill="#F8C14A"/>
<path d="M438.743 1513.19L439.739 1513.96C440.508 1514.4 441.337 1514.62 442.225 1514.62C442.662 1514.57 443.097 1514.51 443.535 1514.45C444.369 1514.22 445.093 1513.8 445.707 1513.19C446.21 1512.68 446.715 1512.18 447.217 1511.68C447.696 1511.23 448.036 1510.7 448.235 1510.1C448.543 1509.5 448.684 1508.87 448.66 1508.2C448.684 1507.52 448.543 1506.88 448.235 1506.3C448.036 1505.68 447.696 1505.16 447.217 1504.71L446.219 1503.95C445.453 1503.5 444.624 1503.27 443.734 1503.27C443.298 1503.33 442.861 1503.39 442.423 1503.45C441.591 1503.68 440.866 1504.1 440.252 1504.71C439.749 1505.22 439.246 1505.72 438.743 1506.22C438.263 1506.67 437.923 1507.19 437.723 1507.8C437.415 1508.39 437.275 1509.03 437.301 1509.71C437.275 1510.38 437.415 1511.02 437.723 1511.6C437.923 1512.21 438.263 1512.74 438.743 1513.19" fill="#F8C14A"/>
<path d="M499.102 1490.55L500.099 1491.32C500.869 1491.77 501.695 1491.99 502.586 1491.99C503.592 1491.99 504.597 1491.99 505.603 1491.99C506.282 1492.02 506.914 1491.88 507.501 1491.57C508.111 1491.37 508.639 1491.03 509.086 1490.55C509.566 1490.11 509.905 1489.58 510.103 1488.97C510.412 1488.38 510.555 1487.74 510.529 1487.07C510.469 1486.63 510.412 1486.19 510.352 1485.76C510.118 1484.93 509.696 1484.2 509.086 1483.58L508.088 1482.82C507.321 1482.37 506.493 1482.15 505.603 1482.15C504.597 1482.15 503.592 1482.15 502.586 1482.15C501.908 1482.12 501.275 1482.26 500.687 1482.57C500.078 1482.77 499.549 1483.11 499.102 1483.58C498.623 1484.03 498.283 1484.56 498.085 1485.17C497.776 1485.76 497.635 1486.39 497.661 1487.07C497.719 1487.51 497.779 1487.94 497.836 1488.38C498.07 1489.21 498.492 1489.94 499.102 1490.55" fill="#F8C14A"/>
<path d="M300.844 1657.12L299.847 1656.35C299.08 1655.91 298.252 1655.68 297.362 1655.68C296.858 1655.68 296.355 1655.68 295.852 1655.68C295.175 1655.66 294.543 1655.79 293.955 1656.1C293.345 1656.3 292.816 1656.64 292.371 1657.12C291.89 1657.56 291.55 1658.09 291.352 1658.71C291.043 1659.29 290.903 1659.92 290.928 1660.61C290.985 1661.04 291.046 1661.47 291.103 1661.91C291.338 1662.74 291.76 1663.47 292.371 1664.08L293.366 1664.86C294.136 1665.3 294.964 1665.53 295.852 1665.53C296.355 1665.53 296.858 1665.53 297.362 1665.53C298.041 1665.55 298.673 1665.41 299.259 1665.1C299.871 1664.91 300.397 1664.56 300.844 1664.08C301.326 1663.64 301.664 1663.11 301.862 1662.5C302.17 1661.91 302.314 1661.28 302.288 1660.61C302.229 1660.17 302.17 1659.73 302.111 1659.29C301.876 1658.46 301.455 1657.74 300.844 1657.12" fill="#F8C14A"/>
<path d="M341.689 1654.21L340.691 1653.44C339.924 1653 339.096 1652.78 338.207 1652.77C337.77 1652.83 337.333 1652.89 336.898 1652.95C336.063 1653.18 335.338 1653.6 334.724 1654.21C334.201 1654.69 333.678 1655.17 333.156 1655.66C332.674 1656.1 332.334 1656.63 332.136 1657.24C331.827 1657.83 331.687 1658.46 331.712 1659.14C331.687 1659.82 331.827 1660.45 332.136 1661.04C332.334 1661.64 332.674 1662.17 333.156 1662.62L334.15 1663.39C334.92 1663.84 335.748 1664.06 336.637 1664.07C337.074 1664.01 337.51 1663.94 337.947 1663.89C338.781 1663.65 339.505 1663.23 340.121 1662.62C340.643 1662.14 341.166 1661.66 341.689 1661.18C342.17 1660.73 342.508 1660.21 342.706 1659.6C343.017 1659.01 343.157 1658.37 343.131 1657.69C343.157 1657.02 343.017 1656.38 342.706 1655.8C342.508 1655.19 342.17 1654.66 341.689 1654.21Z" fill="#F8C14A"/>
<path d="M389.634 1647.82L388.637 1647.06C387.867 1646.61 387.04 1646.39 386.15 1646.38C385.714 1646.44 385.277 1646.5 384.84 1646.56C384.008 1646.8 383.282 1647.21 382.668 1647.82C381.661 1648.83 380.652 1649.84 379.647 1650.83C379.167 1651.28 378.827 1651.81 378.628 1652.42C378.32 1653.01 378.179 1653.65 378.204 1654.33C378.179 1655 378.32 1655.63 378.628 1656.22C378.827 1656.83 379.167 1657.36 379.647 1657.8L380.643 1658.58C381.412 1659.02 382.242 1659.24 383.129 1659.24C383.566 1659.19 384.002 1659.13 384.439 1659.07C385.273 1658.84 385.997 1658.41 386.611 1657.8C387.619 1656.8 388.626 1655.79 389.634 1654.79C390.113 1654.34 390.453 1653.81 390.651 1653.21C390.959 1652.62 391.101 1651.98 391.075 1651.31C391.101 1650.63 390.959 1649.99 390.651 1649.41C390.453 1648.8 390.113 1648.27 389.634 1647.82" fill="#F8C14A"/>
<path d="M438.163 1635.99L437.166 1635.23C436.398 1634.78 435.57 1634.56 434.679 1634.55C434.177 1634.55 433.674 1634.55 433.171 1634.55C432.493 1634.53 431.862 1634.67 431.273 1634.97C430.663 1635.18 430.135 1635.51 429.69 1635.99C429.209 1636.44 428.868 1636.97 428.67 1637.58C428.362 1638.16 428.221 1638.8 428.247 1639.48C428.305 1639.91 428.364 1640.35 428.421 1640.78C428.656 1641.62 429.08 1642.35 429.69 1642.96L430.685 1643.73C431.455 1644.18 432.283 1644.4 433.171 1644.4C433.674 1644.4 434.177 1644.4 434.679 1644.4C435.359 1644.43 435.991 1644.29 436.578 1643.98C437.19 1643.78 437.717 1643.44 438.163 1642.96C438.644 1642.51 438.982 1641.99 439.181 1641.37C439.489 1640.79 439.631 1640.15 439.606 1639.48C439.547 1639.04 439.489 1638.6 439.429 1638.17C439.195 1637.33 438.774 1636.61 438.163 1635.99" fill="#F8C14A"/>
<path d="M490.977 1620.9C490.532 1620.43 490.003 1620.09 489.393 1619.89C488.805 1619.58 488.173 1619.43 487.495 1619.46C487.058 1619.52 486.623 1619.58 486.186 1619.64C485.351 1619.87 484.628 1620.3 484.012 1620.9L483.242 1621.9C482.797 1622.67 482.573 1623.5 482.571 1624.38C482.571 1624.89 482.571 1625.4 482.571 1625.89C482.545 1626.57 482.686 1627.21 482.994 1627.79C483.193 1628.41 483.533 1628.94 484.012 1629.38C484.459 1629.86 484.987 1630.2 485.598 1630.4C486.183 1630.71 486.817 1630.85 487.495 1630.82C487.93 1630.76 488.368 1630.71 488.805 1630.64C489.638 1630.41 490.364 1629.99 490.977 1629.38L491.748 1628.38C492.194 1627.62 492.418 1626.78 492.42 1625.89C492.42 1625.4 492.42 1624.89 492.42 1624.38C492.446 1623.71 492.305 1623.08 491.997 1622.49C491.798 1621.88 491.458 1621.35 490.977 1620.9" fill="#F8C14A"/>
<path d="M523.711 1617.24C530.048 1617.24 530.06 1607.39 523.711 1607.39C517.373 1607.39 517.361 1617.24 523.711 1617.24Z" fill="#F8C14A"/>
<path d="M539.265 1722.01L538.268 1721.24C537.501 1720.79 536.673 1720.57 535.783 1720.56C535.279 1720.56 534.777 1720.56 534.274 1720.56C533.596 1720.54 532.965 1720.68 532.376 1720.99C531.766 1721.19 531.237 1721.52 530.792 1722.01C530.311 1722.45 529.971 1722.98 529.772 1723.6C529.465 1724.18 529.324 1724.81 529.349 1725.49C529.407 1725.93 529.467 1726.36 529.524 1726.8C529.759 1727.63 530.18 1728.36 530.792 1728.97L531.788 1729.74C532.557 1730.19 533.385 1730.41 534.274 1730.42C534.777 1730.42 535.279 1730.42 535.783 1730.42C536.462 1730.44 537.094 1730.3 537.68 1729.99C538.29 1729.79 538.819 1729.45 539.265 1728.97C539.745 1728.52 540.084 1728 540.284 1727.39C540.591 1726.8 540.733 1726.17 540.709 1725.49C540.65 1725.06 540.591 1724.62 540.532 1724.18C540.298 1723.34 539.876 1722.62 539.265 1722.01" fill="#F8C14A"/>
<path d="M565.962 1687.37C564.376 1687.37 563.187 1687.99 562.393 1688.91C560.019 1691.68 561.204 1697.22 565.962 1697.22C570.519 1697.22 571.75 1692.16 569.756 1689.3C568.976 1688.18 567.748 1687.37 565.962 1687.37" fill="#F8C14A"/>
<path d="M594.634 1656.47C600.971 1656.47 600.982 1646.62 594.634 1646.62C588.296 1646.62 588.284 1656.47 594.634 1656.47Z" fill="#F8C14A"/>
<path d="M223.342 1497.84C158.9 1489.21 97.2082 1463.91 44.9314 1425.33C39.8252 1421.57 34.9067 1430.11 39.9582 1433.84C93.7467 1473.53 157.135 1498.82 223.342 1507.68C229.604 1508.52 229.543 1498.67 223.342 1497.84Z" fill="#F8C14A"/>
<path d="M634.103 1519.67L634.079 1519.71V1519.75C634.071 1519.76 634.022 1519.81 634.038 1519.81C634.038 1519.8 634.038 1519.79 634.038 1519.77L633.916 1519.98C633.916 1519.98 633.924 1519.95 633.924 1519.94C633.965 1519.83 634.005 1519.73 634.062 1519.65C634.062 1519.65 634.062 1519.64 634.062 1519.63C634.071 1519.63 634.071 1519.63 634.079 1519.62V1519.63C634.095 1519.62 634.103 1519.61 634.12 1519.59L634.103 1519.67ZM634.071 1519.81C634.054 1519.89 634.03 1519.92 634.005 1519.95C634.014 1519.92 634.022 1519.86 634.03 1519.82C634.038 1519.81 634.062 1519.8 634.071 1519.79V1519.81ZM632.928 1504.1C632.561 1504.13 632.202 1504.21 631.843 1504.27C630.399 1503.5 628.67 1503.36 627.152 1504.27C624.509 1505.86 622.372 1508.14 620.802 1510.75C619.809 1512.06 618.993 1513.52 618.411 1515.13C617.558 1517.48 617.451 1519.85 617.914 1522.1C618.112 1525.83 619.422 1529.47 622.111 1532.43C629.372 1540.41 644.342 1537.88 648.918 1528.21C651.407 1522.95 650.811 1516.59 647.474 1511.79C644.228 1507.14 638.819 1503.57 632.928 1504.1" fill="#F8C14A"/>
<path d="M634.063 1519.65C634.046 1519.7 634.046 1519.73 634.038 1519.77L634.079 1519.71V1519.63C634.071 1519.64 634.071 1519.65 634.063 1519.65Z" fill="#F8C14A"/>
<path d="M670.383 1324.6C669.217 1323.98 667.887 1323.76 666.704 1324.03C665.252 1324.37 664.036 1325.44 663.726 1327.48C658.13 1364.15 642.254 1398.97 617.954 1427.05C605.65 1441.27 591.433 1453.01 576.014 1463.68C560.416 1474.47 544.376 1485.26 533.274 1500.98C512.062 1531.01 512.882 1578.41 543.576 1602.01C556.763 1612.15 575.322 1615.83 591.182 1610.23C595.807 1608.6 599.912 1606.18 603.537 1603.27C604.777 1605.4 607.417 1606.78 610.209 1605.27C618.55 1600.75 627.781 1608.84 632.57 1615.08C638.052 1622.24 641.642 1630.95 644.693 1639.36C650.722 1655.96 654.059 1675.1 644.807 1691.05C644.538 1691.52 644.293 1691.99 644 1692.46C636.404 1704.42 616.87 1713.89 605.558 1700.67C603.31 1698.04 602.019 1694.2 602.086 1690.48C602.152 1686.83 603.533 1683.29 606.638 1681.17C611.459 1677.89 619.564 1679.88 621.362 1685.65C623.245 1691.69 632.749 1689.11 630.857 1683.03C626.011 1667.48 603.807 1665.32 595.471 1679.09C593.259 1682.75 592.257 1686.52 592.149 1690.2C591.782 1702.79 602.421 1714.31 615.575 1716.29C633.353 1718.99 648.976 1706.7 655.87 1691.05C655.886 1691.01 655.894 1690.98 655.91 1690.95C664.623 1671.06 659.386 1648.92 651.44 1629.69C645.231 1614.65 630.726 1590.35 611.762 1594.33C615.551 1588.71 618.049 1582.17 618.77 1575C620.057 1562.22 614.93 1549.49 604.896 1542.31C602.647 1527.73 603.231 1511.5 611.851 1498.99C618.946 1488.68 632.39 1482.02 644.734 1485.86C650.803 1487.74 653.398 1478.24 647.353 1476.35C631.24 1471.35 614.15 1479.54 604.419 1492.53C594.825 1505.34 593.015 1521.84 594.456 1537.46C579.636 1533.69 561.667 1539.65 555.338 1554.34C552.856 1560.1 561.339 1565.12 563.844 1559.31C568.691 1548.06 582.037 1543.86 593.316 1547.36C606.32 1551.39 611.187 1565.87 608.316 1578.27C604.875 1593.12 592.033 1602.41 577.018 1602.93C561.21 1603.48 546.93 1595.21 538.382 1582.08C529.36 1568.22 526.565 1550.9 529.619 1534.74C532.965 1517.05 542.611 1502.37 556.048 1490.66C568.592 1479.72 583.1 1471.32 596.237 1461.15C608.975 1451.28 620.488 1439.92 630.49 1427.29C649.694 1403.05 663.465 1374.78 670.391 1344.69C676.42 1370.98 687.638 1396.07 703.301 1418.04C712.61 1431.1 723.338 1443.16 735.436 1453.7C747.755 1464.44 761.616 1473.03 774.742 1482.7C788.587 1492.92 801.069 1505.14 807.375 1521.49C813.543 1537.45 814.13 1555.48 807.857 1571.51C802.138 1586.14 790.447 1598.26 774.873 1601.88C760.547 1605.2 743.839 1600.86 736.089 1587.58C729.024 1575.48 729.758 1556.57 743.244 1549.14C754.902 1542.71 771.487 1546.71 776.921 1559.31C779.417 1565.12 787.91 1560.11 785.422 1554.34C779.809 1541.32 764.879 1535.04 751.312 1536.58C749.591 1536.77 747.927 1537.12 746.303 1537.55C747.755 1521.9 745.969 1505.35 736.342 1492.53C726.601 1479.55 709.534 1471.35 693.405 1476.35C687.377 1478.23 689.946 1487.74 696.024 1485.86C708.376 1482.02 721.804 1488.69 728.91 1498.99C737.566 1511.52 738.12 1527.83 735.853 1542.44C728.926 1547.34 724.039 1554.84 722.44 1563.84C720.564 1574.44 723.028 1585.54 728.918 1594.4C712.675 1591.36 698.725 1609.2 692.41 1622.61C683.526 1641.5 676.184 1664.36 682.629 1685.13C683.191 1686.92 683.86 1688.68 684.619 1690.41C690.705 1704.37 703.081 1715.94 718.892 1716.68C735.51 1717.45 750.937 1704.21 748.139 1687.16C748.033 1686.49 747.951 1685.82 747.78 1685.15C743.244 1666.65 715.783 1664.18 709.901 1683.03C708.009 1689.1 717.521 1691.7 719.397 1685.65C721.2 1679.88 729.301 1677.89 734.123 1681.17C736.481 1682.79 737.851 1685.21 738.398 1687.89C739.312 1692.31 737.982 1697.42 735.2 1700.67C723.893 1713.89 704.362 1704.42 696.767 1692.46C696.269 1691.67 695.837 1690.87 695.396 1690.07C686.83 1674.32 690.167 1655.62 696.065 1639.36C699.116 1630.95 702.714 1622.24 708.196 1615.08C712.985 1608.84 722.212 1600.75 730.55 1605.27C733.283 1606.75 735.861 1605.46 737.133 1603.4C737.5 1603.69 737.81 1604.03 738.186 1604.3C751.965 1614.44 771.014 1615.05 786.392 1608.39C822.174 1592.89 829.223 1546.13 814.726 1513.7C806.837 1496.06 792.421 1483.31 777.035 1472.24C761.428 1461.03 745.593 1450.68 731.977 1436.96C702.616 1407.35 683.322 1368.66 677.032 1327.48C676.918 1326.69 676.665 1326.05 676.314 1325.53C675.025 1323.64 672.431 1323.52 670.383 1324.6" fill="#F8C14A"/>
<path d="M1246.28 1512.36C1172.84 1523.17 1097.68 1523 1024.24 1512.2C950.918 1501.42 878.996 1480.29 811.715 1449.18C793.131 1440.59 774.897 1431.26 757.08 1421.19C740.592 1411.87 720.605 1402.47 711.574 1384.86C708.677 1379.22 700.177 1384.19 703.065 1389.83C711.133 1405.57 726.707 1414.91 741.465 1423.56C757.602 1433.03 774.098 1441.9 790.904 1450.14C825.144 1466.94 860.64 1481.22 896.968 1492.83C969.233 1515.92 1044.93 1528.51 1120.79 1530.04C1163.64 1530.9 1206.49 1528.1 1248.9 1521.85C1255.14 1520.93 1252.49 1511.44 1246.28 1512.36" fill="#F8C14A"/>
<path d="M1096.25 1644.88C1102.54 1644.47 1102.59 1634.61 1096.25 1635.02C1071.77 1636.61 1047.22 1636.68 1022.77 1635.29C974.756 1632.58 927.113 1624.19 881.011 1610.16C861.113 1604.1 841.517 1597.02 822.353 1588.91C816.586 1586.47 811.56 1594.96 817.385 1597.42C874.647 1621.64 935.352 1637.13 997.159 1643.22C1008.94 1644.38 1020.75 1645.24 1032.59 1645.71C1053.81 1646.56 1075.06 1646.26 1096.25 1644.88" fill="#F8C14A"/>
<path d="M847.448 1731.73C852.743 1735.25 857.679 1726.72 852.417 1723.23C834.705 1711.46 818.625 1697.51 804.455 1681.82C789.778 1665.57 777.157 1647.46 767.009 1627.92C764.088 1622.3 755.587 1627.27 758.508 1632.89C767.882 1650.95 779.344 1667.79 792.527 1683.16C808.477 1701.73 826.955 1718.12 847.448 1731.73Z" fill="#F8C14A"/>
<path d="M1212.8 1550.42C1213.41 1550.22 1213.94 1549.88 1214.38 1549.4L1215.15 1548.41C1215.48 1547.84 1215.64 1547.23 1215.73 1546.6C1215.76 1546.38 1215.82 1546.16 1215.82 1545.92C1215.76 1545.49 1215.71 1545.05 1215.65 1544.61C1215.41 1543.77 1214.99 1543.05 1214.38 1542.44C1213.88 1541.94 1213.37 1541.43 1212.87 1540.93C1212.43 1540.45 1211.9 1540.11 1211.29 1539.91C1210.7 1539.61 1210.07 1539.46 1209.39 1539.48C1208.71 1539.46 1208.08 1539.61 1207.49 1539.91C1206.88 1540.11 1206.35 1540.45 1205.91 1540.93L1205.13 1541.92C1204.69 1542.7 1204.47 1543.52 1204.47 1544.41C1204.52 1544.85 1204.58 1545.28 1204.65 1545.72C1204.87 1546.56 1205.3 1547.28 1205.91 1547.89C1206.41 1548.39 1206.91 1548.9 1207.42 1549.4C1207.86 1549.88 1208.39 1550.22 1209 1550.42C1209.12 1550.48 1209.24 1550.5 1209.36 1550.55C1209.84 1550.75 1210.36 1550.86 1210.9 1550.85C1211.58 1550.87 1212.21 1550.72 1212.8 1550.42" fill="#F8C14A"/>
<path d="M1171.66 1540.99C1165.33 1540.99 1165.31 1550.85 1171.66 1550.85C1178 1550.85 1178.02 1540.99 1171.66 1540.99Z" fill="#F8C14A"/>
<path d="M1134.4 1542.44L1133.41 1541.67C1132.64 1541.22 1131.81 1541 1130.92 1540.99C1130.42 1540.99 1129.92 1540.99 1129.41 1540.99C1128.73 1540.97 1128.11 1541.11 1127.52 1541.42C1126.91 1541.62 1126.38 1541.95 1125.93 1542.44C1125.45 1542.88 1125.11 1543.41 1124.92 1544.02C1124.61 1544.61 1124.46 1545.24 1124.49 1545.92C1124.55 1546.36 1124.61 1546.79 1124.66 1547.22C1124.9 1548.07 1125.32 1548.78 1125.93 1549.4L1126.93 1550.17C1127.7 1550.62 1128.52 1550.84 1129.41 1550.85C1129.92 1550.85 1130.42 1550.85 1130.92 1550.85C1131.6 1550.87 1132.23 1550.72 1132.82 1550.42C1133.43 1550.22 1133.96 1549.88 1134.4 1549.4C1134.89 1548.95 1135.23 1548.42 1135.42 1547.82C1135.73 1547.23 1135.87 1546.6 1135.85 1545.92C1135.79 1545.49 1135.73 1545.05 1135.68 1544.61C1135.44 1543.77 1135.02 1543.05 1134.4 1542.44" fill="#F8C14A"/>
<path d="M1080.92 1539.05L1080.15 1538.05C1079.54 1537.44 1078.81 1537.02 1077.98 1536.79C1077.54 1536.73 1077.11 1536.67 1076.67 1536.61C1075.78 1536.61 1074.95 1536.84 1074.19 1537.29C1073.18 1537.79 1072.17 1538.29 1071.17 1538.8C1070.6 1539.11 1070.13 1539.53 1069.79 1540.07C1069.35 1540.54 1069.06 1541.1 1068.91 1541.74C1068.7 1542.39 1068.67 1543.05 1068.82 1543.71C1068.84 1544.36 1069.04 1544.97 1069.4 1545.54L1070.17 1546.53C1070.79 1547.14 1071.51 1547.57 1072.34 1547.8C1072.78 1547.86 1073.22 1547.92 1073.66 1547.98C1074.55 1547.98 1075.37 1547.75 1076.14 1547.31C1077.15 1546.8 1078.15 1546.29 1079.16 1545.79C1079.73 1545.48 1080.19 1545.05 1080.53 1544.52C1080.98 1544.04 1081.27 1543.49 1081.42 1542.84C1081.63 1542.19 1081.65 1541.54 1081.51 1540.88C1081.48 1540.22 1081.29 1539.61 1080.92 1539.05Z" fill="#F8C14A"/>
<path d="M1017.75 1525.91C1011.41 1525.91 1011.39 1535.75 1017.75 1535.75C1024.09 1535.75 1024.1 1525.91 1017.75 1525.91Z" fill="#F8C14A"/>
<path d="M963.889 1518.3L962.894 1517.52C962.127 1517.08 961.295 1516.85 960.406 1516.85C959.9 1516.85 959.402 1516.85 958.897 1516.85C958.22 1516.83 957.583 1516.97 956.996 1517.28C956.392 1517.47 955.862 1517.81 955.413 1518.3C954.932 1518.74 954.597 1519.27 954.393 1519.88C954.083 1520.47 953.945 1521.09 953.969 1521.77C954.026 1522.21 954.091 1522.65 954.149 1523.08C954.385 1523.92 954.801 1524.64 955.413 1525.25L956.408 1526.03C957.183 1526.48 958.007 1526.7 958.897 1526.7C959.402 1526.7 959.9 1526.7 960.406 1526.7C961.083 1526.72 961.719 1526.58 962.307 1526.27C962.91 1526.08 963.441 1525.74 963.889 1525.25C964.371 1524.81 964.705 1524.28 964.909 1523.67C965.211 1523.08 965.358 1522.46 965.333 1521.77C965.268 1521.34 965.211 1520.9 965.154 1520.47C964.917 1519.63 964.501 1518.91 963.889 1518.3Z" fill="#F8C14A"/>
<path d="M902.018 1506.22C901.512 1505.72 901.014 1505.22 900.508 1504.71C900.068 1504.23 899.538 1503.89 898.926 1503.69C898.338 1503.38 897.702 1503.24 897.025 1503.27C896.348 1503.24 895.72 1503.38 895.132 1503.69C894.52 1503.89 893.99 1504.23 893.549 1504.71L892.774 1505.71C892.326 1506.47 892.105 1507.31 892.105 1508.2C892.163 1508.63 892.22 1509.07 892.277 1509.5C892.513 1510.33 892.938 1511.06 893.549 1511.68C894.047 1512.18 894.553 1512.68 895.059 1513.19C895.499 1513.67 896.03 1514 896.641 1514.21C897.229 1514.51 897.857 1514.66 898.534 1514.62C899.211 1514.66 899.848 1514.51 900.435 1514.21C901.047 1514 901.569 1513.67 902.018 1513.19L902.793 1512.19C903.233 1511.42 903.462 1510.59 903.462 1509.71C903.405 1509.26 903.347 1508.83 903.282 1508.39C903.054 1507.56 902.63 1506.83 902.018 1506.22" fill="#F8C14A"/>
<path d="M841.664 1483.58L840.66 1482.82C839.893 1482.37 839.07 1482.15 838.18 1482.15C837.169 1482.15 836.165 1482.15 835.162 1482.15C834.485 1482.12 833.848 1482.26 833.261 1482.57C832.649 1482.77 832.127 1483.11 831.678 1483.58C831.197 1484.03 830.854 1484.56 830.658 1485.17C830.348 1485.76 830.21 1486.39 830.234 1487.07C830.291 1487.51 830.348 1487.94 830.414 1488.38C830.642 1489.21 831.066 1489.94 831.678 1490.55L832.674 1491.32C833.44 1491.77 834.273 1491.99 835.162 1491.99C836.165 1491.99 837.169 1491.99 838.18 1491.99C838.857 1492.02 839.486 1491.88 840.073 1491.57C840.685 1491.37 841.215 1491.03 841.664 1490.55C842.137 1490.11 842.48 1489.58 842.675 1488.97C842.985 1488.38 843.124 1487.74 843.1 1487.07C843.043 1486.63 842.985 1486.19 842.928 1485.76C842.692 1484.93 842.268 1484.2 841.664 1483.58" fill="#F8C14A"/>
<path d="M1048.39 1657.12L1047.4 1656.35C1046.63 1655.91 1045.8 1655.68 1044.91 1655.68C1044.4 1655.68 1043.9 1655.68 1043.4 1655.68C1042.72 1655.66 1042.09 1655.79 1041.51 1656.1C1040.89 1656.3 1040.36 1656.64 1039.92 1657.12C1039.44 1657.56 1039.1 1658.09 1038.9 1658.71C1038.59 1659.29 1038.45 1659.92 1038.47 1660.61C1038.54 1661.04 1038.59 1661.47 1038.65 1661.91C1038.89 1662.74 1039.3 1663.47 1039.92 1664.08L1040.92 1664.86C1041.69 1665.3 1042.51 1665.53 1043.4 1665.53C1043.9 1665.53 1044.4 1665.53 1044.91 1665.53C1045.59 1665.55 1046.22 1665.41 1046.81 1665.1C1047.42 1664.91 1047.94 1664.56 1048.39 1664.08C1048.87 1663.64 1049.22 1663.11 1049.41 1662.5C1049.72 1661.91 1049.86 1661.28 1049.84 1660.61C1049.78 1660.17 1049.71 1659.73 1049.66 1659.29C1049.43 1658.46 1049 1657.74 1048.39 1657.12" fill="#F8C14A"/>
<path d="M1007.61 1655.66C1007.09 1655.17 1006.57 1654.69 1006.03 1654.21C1005.59 1653.73 1005.06 1653.4 1004.45 1653.19C1003.86 1652.89 1003.24 1652.74 1002.56 1652.77C1001.87 1652.74 1001.25 1652.89 1000.66 1653.19C1000.05 1653.4 999.525 1653.73 999.076 1654.21L998.301 1655.21C997.86 1655.97 997.632 1656.81 997.632 1657.69C997.689 1658.14 997.746 1658.57 997.811 1659C998.04 1659.84 998.464 1660.57 999.076 1661.18C999.598 1661.66 1000.12 1662.14 1000.64 1662.62C1001.09 1663.1 1001.61 1663.44 1002.22 1663.64C1002.81 1663.94 1003.45 1664.09 1004.13 1664.07C1004.8 1664.09 1005.44 1663.94 1006.03 1663.64C1006.63 1663.44 1007.16 1663.1 1007.61 1662.62L1008.38 1661.63C1008.82 1660.85 1009.05 1660.03 1009.05 1659.14C1008.99 1658.71 1008.93 1658.27 1008.87 1657.83C1008.64 1656.99 1008.22 1656.27 1007.61 1655.66" fill="#F8C14A"/>
<path d="M955.731 1658.82C956.327 1659.13 956.955 1659.27 957.632 1659.24C958.309 1659.27 958.946 1659.13 959.533 1658.82C960.137 1658.62 960.667 1658.28 961.116 1657.8L961.883 1656.8C962.331 1656.04 962.551 1655.21 962.56 1654.32C962.503 1653.88 962.437 1653.45 962.38 1653.01C962.356 1652.93 962.307 1652.86 962.282 1652.77C962.038 1652.04 961.662 1651.39 961.116 1650.83C960.112 1649.84 959.101 1648.83 958.097 1647.82C957.648 1647.34 957.118 1647.01 956.506 1646.8C955.919 1646.49 955.291 1646.35 954.614 1646.38C953.936 1646.35 953.3 1646.49 952.713 1646.8C952.101 1647.01 951.579 1647.34 951.13 1647.82L950.355 1648.82C949.914 1649.59 949.686 1650.42 949.686 1651.31C949.743 1651.75 949.8 1652.18 949.866 1652.62C950.094 1653.45 950.518 1654.18 951.13 1654.79C951.358 1655.02 951.587 1655.25 951.823 1655.48C952.599 1656.25 953.374 1657.03 954.149 1657.8C954.597 1658.28 955.128 1658.62 955.731 1658.82" fill="#F8C14A"/>
<path d="M902.597 1642.96L903.6 1643.73C904.367 1644.18 905.191 1644.4 906.081 1644.4C906.586 1644.4 907.092 1644.4 907.59 1644.4C908.267 1644.43 908.903 1644.29 909.491 1643.98C910.103 1643.78 910.625 1643.44 911.073 1642.96C911.555 1642.51 911.897 1641.99 912.093 1641.37C912.403 1640.79 912.542 1640.15 912.517 1639.48C912.46 1639.04 912.395 1638.6 912.338 1638.17C912.109 1637.33 911.685 1636.61 911.073 1635.99L910.078 1635.23C909.311 1634.78 908.479 1634.56 907.59 1634.55C907.092 1634.55 906.586 1634.55 906.081 1634.55C905.403 1634.53 904.767 1634.67 904.188 1634.97C903.576 1635.18 903.046 1635.51 902.597 1635.99C902.116 1636.44 901.781 1636.97 901.577 1637.58C901.275 1638.16 901.129 1638.8 901.153 1639.48C901.218 1639.91 901.275 1640.35 901.333 1640.78C901.569 1641.62 901.985 1642.35 902.597 1642.96" fill="#F8C14A"/>
<path d="M849.781 1629.38C850.23 1629.86 850.76 1630.2 851.372 1630.4C851.959 1630.71 852.588 1630.85 853.265 1630.82C853.705 1630.76 854.138 1630.71 854.578 1630.64C855.41 1630.41 856.136 1629.99 856.748 1629.38L857.523 1628.38C857.964 1627.62 858.192 1626.78 858.192 1625.89C858.192 1625.4 858.192 1624.89 858.192 1624.38C858.217 1623.71 858.078 1623.08 857.768 1622.49C857.572 1621.88 857.23 1621.35 856.748 1620.9C856.3 1620.43 855.777 1620.09 855.166 1619.89C854.578 1619.58 853.95 1619.43 853.265 1619.46C852.832 1619.52 852.392 1619.58 851.959 1619.64C851.127 1619.87 850.401 1620.3 849.781 1620.9L849.014 1621.9C848.566 1622.67 848.345 1623.5 848.345 1624.38C848.345 1624.89 848.345 1625.4 848.345 1625.89C848.313 1626.57 848.46 1627.21 848.761 1627.79C848.965 1628.41 849.308 1628.94 849.781 1629.38" fill="#F8C14A"/>
<path d="M817.051 1617.24C823.39 1617.24 823.398 1607.39 817.051 1607.39C810.712 1607.39 810.704 1617.24 817.051 1617.24Z" fill="#F8C14A"/>
<path d="M809.969 1722.01L808.974 1721.24C808.207 1720.79 807.375 1720.57 806.486 1720.56C805.988 1720.56 805.482 1720.56 804.976 1720.56C804.299 1720.54 803.671 1720.68 803.084 1720.99C802.472 1721.19 801.941 1721.52 801.493 1722.01C801.02 1722.45 800.677 1722.98 800.481 1723.6C800.171 1724.18 800.032 1724.81 800.057 1725.49C800.114 1725.93 800.171 1726.36 800.228 1726.8C800.465 1727.63 800.889 1728.36 801.493 1728.97L802.496 1729.74C803.263 1730.19 804.087 1730.41 804.976 1730.42C805.482 1730.42 805.988 1730.42 806.486 1730.42C807.163 1730.44 807.799 1730.3 808.386 1729.99C808.998 1729.79 809.529 1729.45 809.969 1728.97C810.45 1728.52 810.793 1728 810.989 1727.39C811.299 1726.8 811.438 1726.17 811.413 1725.49C811.356 1725.06 811.299 1724.62 811.242 1724.18C811.005 1723.34 810.581 1722.62 809.969 1722.01" fill="#F8C14A"/>
<path d="M774.799 1687.37C768.46 1687.37 768.452 1697.22 774.799 1697.22C781.138 1697.22 781.146 1687.37 774.799 1687.37Z" fill="#F8C14A"/>
<path d="M746.132 1646.62C739.793 1646.62 739.785 1656.47 746.132 1656.47C752.471 1656.47 752.479 1646.62 746.132 1646.62Z" fill="#F8C14A"/>
<path d="M1295.84 1425.33C1243.55 1463.91 1181.86 1489.21 1117.42 1497.83C1111.23 1498.67 1111.14 1508.53 1117.42 1507.68C1183.63 1498.82 1247.02 1473.53 1300.81 1433.84C1305.85 1430.11 1300.94 1421.56 1295.84 1425.33Z" fill="#F8C14A"/>
<path d="M712.12 1536.48C717.3 1534.82 721.355 1530.5 722.489 1525.12C722.652 1524.32 722.677 1523.51 722.742 1522.69C723.794 1518.65 722.595 1514.53 720.213 1511.21C719.968 1510.79 719.797 1510.34 719.527 1509.95C717.928 1507.65 716.019 1505.72 713.613 1504.27C712.185 1503.41 710.341 1503.51 708.857 1504.26C705.544 1503.86 702.126 1504.48 699.156 1506.21C694.172 1509.1 690.998 1514.35 690.362 1520.01C689.049 1531.52 701.628 1539.85 712.12 1536.48" fill="#F8C14A"/>
<path d="M449.179 1133.78C456.558 1137.12 463.94 1140.46 471.319 1143.8C473.659 1144.86 476.726 1144.55 478.058 1142.03C479.196 1139.88 478.795 1136.43 476.29 1135.29C468.91 1131.95 461.531 1128.61 454.152 1125.28C451.809 1124.22 448.742 1124.52 447.413 1127.04C446.274 1129.2 446.673 1132.64 449.179 1133.78Z" fill="#F8C14A"/>
<path d="M476.858 1017.09C487.068 1021.52 496.812 1026.94 505.958 1033.28C508.082 1034.75 511.52 1033.74 512.697 1031.51C514.025 1029 513.196 1026.34 510.93 1024.78C501.785 1018.44 492.041 1013.01 481.829 1008.59C479.472 1007.57 476.436 1007.81 475.091 1010.35C473.967 1012.48 474.334 1016 476.858 1017.09" fill="#F8C14A"/>
<path d="M528.086 906.359C539.86 914.828 551.637 923.304 563.413 931.78C565.572 933.338 568.898 932.156 570.15 930.018C571.603 927.53 570.55 924.838 568.383 923.271C556.608 914.803 544.833 906.327 533.058 897.85C530.897 896.292 527.572 897.475 526.318 899.621C524.868 902.101 525.921 904.801 528.086 906.359Z" fill="#F8C14A"/>
<path d="M620.19 857.027C621.582 859.197 624.624 860.282 626.932 858.797C629.094 857.402 630.188 854.375 628.695 852.058C624.061 844.855 619.43 837.651 614.796 830.447C613.405 828.285 610.36 827.2 608.059 828.685C605.894 830.08 604.799 833.099 606.291 835.424C610.925 842.627 615.558 849.831 620.19 857.027Z" fill="#F8C14A"/>
<path d="M866.514 1142.03C868.08 1144.46 870.731 1144.94 873.252 1143.8C880.635 1140.46 888.01 1137.12 895.394 1133.78C897.743 1132.72 898.494 1129.12 897.156 1127.04C895.589 1124.61 892.938 1124.13 890.417 1125.28C883.042 1128.61 875.659 1131.95 868.284 1135.29C865.926 1136.35 865.176 1139.95 866.514 1142.03Z" fill="#F8C14A"/>
<path d="M838.613 1033.28C847.758 1026.94 857.499 1021.52 867.713 1017.09C870.087 1016.06 870.805 1012.41 869.483 1010.35C867.892 1007.89 865.282 1007.49 862.745 1008.59C852.531 1013.01 842.79 1018.44 833.644 1024.78C831.523 1026.24 830.357 1029.16 831.874 1031.51C833.228 1033.61 836.345 1034.85 838.613 1033.28Z" fill="#F8C14A"/>
<path d="M781.163 931.78C792.935 923.303 804.707 914.827 816.488 906.359C818.641 904.801 819.686 902.068 818.25 899.62C817.002 897.491 813.681 896.284 811.511 897.85C799.739 906.326 787.959 914.803 776.186 923.271C774.033 924.829 772.988 927.562 774.424 930.018C775.664 932.147 778.993 933.346 781.163 931.78Z" fill="#F8C14A"/>
<path d="M717.643 858.797C720.091 860.086 722.889 859.351 724.382 857.026C729.016 849.831 733.65 842.627 738.284 835.423C739.679 833.253 738.797 829.892 736.513 828.685C734.066 827.388 731.268 828.13 729.775 830.447C725.141 837.651 720.507 844.854 715.873 852.058C714.478 854.228 715.359 857.589 717.643 858.797Z" fill="#F8C14A"/>
<path d="M705.422 1264.32C715.66 1240.96 716.223 1215.42 709.803 1191.26C703.374 1167.09 690.174 1144.23 673.646 1123.11C647.703 1147.76 630.179 1178.14 627.503 1209.82C625.406 1234.64 632.847 1260.15 649.75 1281.42C654.547 1287.46 659.491 1293.16 666.01 1295C668.93 1295.82 672.161 1295.9 675.857 1294.84C677.57 1294.34 679.373 1293.61 681.29 1292.62C693.446 1286.29 700.861 1274.72 705.422 1264.32Z" fill="#FFF8CD"/>
</svg>
