<svg width="922" height="1827" viewBox="0 0 922 1827" fill="none" xmlns="http://www.w3.org/2000/svg">
<path d="M476 1031.77C476 1041.28 470.18 1049 463 1049C455.817 1049 450 1041.28 450 1031.77V17.2305C450 7.71558 455.817 -8.19503e-06 463 -8.19503e-06C470.18 -8.19503e-06 476 7.71558 476 17.2305V1031.77Z" fill="#530709"/>
<path d="M460.779 1826.32C206.736 1826.32 0 1619.6 0 1365.5C0 1111.4 206.736 904.677 460.779 904.677C503.221 904.677 537.575 939.065 537.575 981.481C537.575 1023.9 503.221 1058.28 460.779 1058.28C291.417 1058.28 153.593 1196.1 153.593 1365.5C153.593 1534.9 291.417 1672.71 460.779 1672.71C630.191 1672.71 767.964 1534.9 767.964 1365.5C767.964 1292.18 734.174 1223.53 698.438 1150.87C645.141 1042.63 584.779 919.94 663.726 788.355C685.536 751.986 732.74 740.194 769.091 762.012C805.441 783.834 817.267 831.012 795.406 867.391C761.206 924.426 787.266 983.508 836.211 1083.04C876.247 1164.3 921.557 1256.42 921.557 1365.5C921.557 1619.6 714.872 1826.32 460.779 1826.32" fill="#F4F4F4"/>
<path d="M477.059 906.443C471.786 905.307 466.359 904.677 460.779 904.677C449.822 904.677 438.968 905.086 428.217 905.839C420.383 956.432 420.537 1009.48 428.627 1059.97C439.224 1058.87 449.925 1058.28 460.779 1058.28C466.359 1058.28 471.786 1057.65 477.059 1056.52C466.922 1007.89 466.922 955.07 477.059 906.443" fill="#9B158F"/>
<path d="M339.388 1083.34C354.287 1076.92 369.749 1071.62 385.722 1067.6C360.687 1023.3 344.559 971.496 339.9 920.8C323.978 925.132 308.414 930.283 293.208 936.238C300.735 986.888 316.657 1037.52 339.388 1083.34" fill="#337AA8"/>
<path d="M537.575 981.48C537.575 967.527 533.786 954.491 527.284 943.211C516.225 976.068 508.494 1010.36 504.45 1044.64C524.468 1030.78 537.575 1007.68 537.575 981.48Z" fill="#F16B23"/>
<path d="M112.891 1063.68C143.148 1104.96 180.727 1142.36 222.198 1172.3C232.488 1159.61 243.751 1147.75 255.936 1136.83C213.186 1109.3 174.789 1071.01 147.04 1028.33C135.059 1039.51 123.642 1051.3 112.891 1063.68" fill="#F16B23"/>
<path d="M275.392 1120.74C288.345 1110.88 302.117 1102.05 316.606 1094.33C281.689 1057.33 253.582 1010.94 236.942 962.843C222.556 970.861 208.681 979.606 195.319 989.064C214.774 1036.4 242.318 1081.72 275.392 1120.74" fill="#00ADEF"/>
<path d="M796.123 995.08C750.864 1022.49 708.882 1059.09 674.272 1100.72C681.799 1117.02 689.683 1133.03 697.414 1148.76C728.235 1104.98 770.114 1066.56 815.885 1040.83C808.205 1024.47 801.55 1009.3 796.123 995.08Z" fill="#337AA8"/>
<path d="M267.609 1604.13C254.912 1593.84 243.085 1582.56 232.129 1570.4C204.636 1613.15 166.34 1651.56 123.642 1679.27C134.854 1691.27 146.629 1702.69 159.019 1713.45C200.284 1683.19 237.659 1645.58 267.609 1604.13" fill="#337AA8"/>
<path d="M765.813 1333.41C767.145 1344.02 767.964 1354.7 767.964 1365.5C767.964 1371.13 767.81 1376.71 767.503 1382.26C817.216 1371.54 871.485 1371.47 921.249 1382.08C921.454 1376.58 921.557 1371.05 921.557 1365.5C921.557 1354.45 921.096 1343.58 920.225 1332.88C869.488 1325.07 816.397 1325.23 765.813 1333.41Z" fill="#00ADEF"/>
<path d="M175.505 1251.85C181.598 1236.59 188.817 1221.91 197.213 1207.96C148.166 1194.34 100.091 1169.17 60.9761 1136.61C52.8357 1150.78 45.4633 1165.45 38.8076 1180.51C79.9705 1210.98 127.021 1235.54 175.505 1251.85Z" fill="#9B158F"/>
<path d="M757.264 1291.24C801.345 1266.04 853.055 1249.63 903.74 1244.74C899.133 1228.82 893.91 1213.31 888.176 1198.15C837.695 1205.91 787.214 1221.9 741.597 1244.72C747.69 1260.2 752.963 1275.68 757.264 1291.24" fill="#F16B23"/>
<path d="M731.819 1221.38C769.091 1186.23 815.834 1157.97 864.267 1141.33C857.355 1126.35 850.291 1111.72 843.328 1097.44C795.816 1116.23 750.199 1143.25 710.674 1175.82C718.098 1191.12 725.214 1206.28 731.819 1221.38Z" fill="#9B158F"/>
<path d="M634.697 992.955C639.202 1011.72 645.141 1030.2 652.052 1048.36C684.563 1003.08 730.641 963.637 780.763 937.79C778.408 916.884 780.814 897.765 789.262 879.153C732.074 905.578 678.01 945.583 634.697 992.955Z" fill="#00ADEF"/>
<path d="M646.165 1610.25C633.212 1620.1 619.44 1628.94 605.002 1636.66C639.919 1673.66 668.026 1720.05 684.665 1768.15C699.001 1760.13 712.926 1751.38 726.289 1741.92C706.783 1694.59 679.238 1649.26 646.165 1610.25" fill="#00ADEF"/>
<path d="M460.778 1826.32C471.734 1826.32 482.588 1825.91 493.391 1825.15C501.173 1774.56 501.07 1721.52 492.93 1671.02C482.383 1672.13 471.632 1672.71 460.778 1672.71C455.146 1672.71 449.565 1672.54 444.036 1672.24C454.736 1721.97 454.839 1776.21 444.19 1825.99C449.719 1826.18 455.249 1826.32 460.778 1826.32" fill="#9B158F"/>
<path d="M582.22 1647.65C567.321 1654.07 551.859 1659.36 535.886 1663.39C560.921 1707.7 577.049 1759.49 581.708 1810.19C597.63 1805.85 613.194 1800.7 628.399 1794.75C620.822 1744.1 604.951 1693.47 582.22 1647.65Z" fill="#337AA8"/>
<path d="M167.007 1275.72C116.168 1274.23 63.4342 1261.28 17.6635 1239.02C13.1581 1254.69 9.5229 1270.7 6.70703 1287C54.0136 1306.72 105.57 1319.3 156.563 1323.53C158.815 1307.15 162.297 1291.17 167.007 1275.72" fill="#337AA8"/>
<path d="M754.55 1455.27C805.441 1456.76 858.123 1469.71 903.945 1491.96C908.399 1476.3 912.034 1460.29 914.85 1444C867.594 1424.27 816.039 1411.68 765.046 1407.47C762.793 1423.84 759.312 1439.82 754.55 1455.27" fill="#337AA8"/>
<path d="M746.103 1479.14C740.01 1494.4 732.74 1509.07 724.395 1523.01C773.391 1536.64 821.466 1561.81 860.632 1594.37C868.772 1580.2 876.145 1565.54 882.749 1550.47C841.638 1520.01 794.587 1495.45 746.103 1479.14" fill="#9B158F"/>
<path d="M808.717 1667.32C778.459 1626.04 740.829 1588.64 699.41 1558.69C689.119 1571.39 677.856 1583.25 665.671 1594.16C708.421 1621.7 746.819 1659.98 774.517 1702.66C786.548 1691.48 797.965 1679.7 808.717 1667.32Z" fill="#F16B23"/>
<path d="M162.911 1440.59C118.625 1465.61 66.8126 1481.77 16.127 1486.4C20.4788 1502.33 25.5986 1517.92 31.5887 1533.12C82.2232 1525.55 132.858 1509.67 178.679 1486.92C172.228 1472.04 166.955 1456.56 162.911 1440.59Z" fill="#F16B23"/>
<path d="M155.282 1397.66C154.207 1387.09 153.593 1376.36 153.593 1365.5C153.593 1359.87 153.797 1354.28 154.053 1348.72C104.34 1359.46 50.1226 1359.52 0.358483 1348.9C0.153693 1354.41 0 1359.94 0 1365.5C0 1376.46 0.409481 1387.32 1.17745 1398.09C51.7607 1405.9 104.801 1405.77 155.282 1397.66" fill="#00ADEF"/>
<path d="M418.847 1669.77C402.464 1667.52 386.491 1664.04 371.029 1659.3C369.544 1710.17 356.591 1762.88 334.32 1808.68C349.987 1813.15 366.012 1816.8 382.293 1819.6C402.004 1772.33 414.598 1720.77 418.847 1669.77Z" fill="#F16B23"/>
<path d="M347.17 1650.84C331.914 1644.74 317.22 1637.5 303.294 1629.13C289.675 1678.15 264.486 1726.22 231.925 1765.36C246.107 1773.5 260.749 1780.89 275.852 1787.52C306.264 1746.36 330.838 1699.32 347.17 1650.84" fill="#00ADEF"/>
<path d="M189.636 1509.71C152.671 1544.61 106.286 1572.73 58.1602 1589.39C66.1982 1603.74 74.9529 1617.65 84.4244 1631.01C131.731 1611.53 177.041 1583.97 216.054 1550.91C206.224 1537.94 197.366 1524.17 189.636 1509.71Z" fill="#9B158F"/>
<path d="M806.362 1365.5C806.362 1556.38 651.643 1711.12 460.778 1711.12C269.914 1711.12 115.194 1556.38 115.194 1365.5C115.194 1174.62 269.914 1019.88 460.778 1019.88C651.643 1019.88 806.362 1174.62 806.362 1365.5" fill="#ED1C24"/>
<path d="M499.177 1672.71C492.726 1672.71 486.326 1672.51 479.978 1672.13C640.687 1662.21 767.964 1528.72 767.964 1365.5C767.964 1202.28 640.687 1068.79 479.978 1058.87C486.326 1058.48 492.726 1058.28 499.177 1058.28C668.846 1058.28 806.362 1195.83 806.362 1365.5C806.362 1535.17 668.846 1672.71 499.177 1672.71" fill="#F1471D"/>
<path d="M793.562 866.275C794.433 866.275 795.252 866.188 796.071 866.147C816.908 829.947 805.031 783.593 769.09 762.016C732.74 740.194 685.535 751.986 663.725 788.355C647.905 814.709 637.768 840.689 631.982 866.275H793.562Z" fill="#41AE3C"/>
<path d="M767.964 1365.5C767.964 1535.17 630.447 1672.71 460.778 1672.71C291.161 1672.71 153.593 1535.17 153.593 1365.5C153.593 1195.83 291.161 1058.28 460.778 1058.28C630.447 1058.28 767.964 1195.83 767.964 1365.5" fill="#F68712"/>
<path d="M460.778 1672.71C454.532 1672.71 448.389 1672.47 442.194 1672.1L425.094 1520.01L379.221 1600.83L390.228 1508.59L287.628 1619.25C279.744 1613.86 272.115 1608.12 264.743 1602.01L339.491 1470.44L254.094 1509.18L316.964 1441.38L171.921 1470.14C168.594 1461.06 165.727 1451.79 163.32 1442.34L298.841 1380.82L206.992 1361.95L298.329 1343.86L165.112 1282.3C167.775 1272.77 170.898 1263.44 174.43 1254.31L318.04 1283.8L255.323 1215.04L340.413 1254.35L268.634 1125.9C276.262 1119.75 284.249 1113.96 292.492 1108.55L390.894 1216.43L380.552 1124.5L426.22 1206.23L443.781 1058.78C449.413 1058.47 455.096 1058.28 460.778 1058.28C464.925 1058.28 468.97 1058.43 473.066 1058.59L489.705 1205.89L535.629 1124.97L524.622 1217.25L626.761 1107.03C634.799 1112.23 642.632 1117.79 650.158 1123.69L575.359 1255.36L660.756 1216.63L597.886 1284.45L747.332 1254.8C750.711 1263.48 753.629 1272.33 756.24 1281.36L616.01 1344.99L707.858 1363.85L616.522 1381.95L757.008 1446.85C754.55 1455.78 751.734 1464.57 748.56 1473.15L596.811 1442L659.528 1510.75L574.437 1471.42L650.261 1607.2C643.042 1612.88 635.567 1618.24 627.836 1623.27L523.905 1509.36L534.298 1601.3L488.528 1519.45L470.301 1672.47C467.127 1672.57 463.953 1672.71 460.778 1672.71" fill="#FABC09"/>
<path d="M528.974 1409.23L577.407 1422.08L538.035 1391.68L684.922 1395.96L542.899 1358.26L589.285 1340.33L539.213 1338.87L660.859 1255.78L524.11 1308.68L550.937 1267.2L509.57 1295.45L559.129 1156.71L479.363 1280.07L476.65 1230.49L459.908 1277.31L418.54 1136.3L426.579 1283.33L395.041 1244.54L408.915 1291.95L292.901 1202.33L385.876 1316.56L337.443 1303.71L376.814 1334.12L229.928 1329.83L371.951 1367.54L325.565 1385.47L375.637 1386.94L253.991 1470.02L390.74 1417.14L363.912 1458.61L405.28 1430.36L355.721 1569.1L435.487 1445.76L438.2 1495.3L454.891 1448.55L496.258 1589.52L488.22 1442.41L519.809 1481.26L505.883 1433.85L621.948 1523.5L528.974 1409.23Z" fill="#FFF200"/>
<path d="M774.876 880.591L816.448 891.63L782.658 865.527L908.758 869.199L786.805 836.828L826.636 821.421L783.63 820.172L888.074 748.821L770.678 794.243L793.717 758.627L758.185 782.886L800.782 663.749L732.279 769.676L729.924 727.101L715.589 767.311L680.007 646.217L686.918 772.482L659.835 739.17L671.764 779.886L572.133 702.919L651.95 801.017L610.378 789.983L644.168 816.091L518.068 812.405L640.021 844.795L600.19 860.192L643.196 861.446L538.752 932.792L656.148 887.381L633.109 922.992L668.641 898.732L626.044 1017.87L694.547 911.963L696.902 954.502L711.237 914.359L746.768 1035.42L739.857 909.09L766.991 942.454L755.062 901.732L854.693 978.721L774.876 880.591Z" fill="#F68712"/>
<path d="M647.598 868.779C676.678 849.772 685.485 834.688 674.17 821.985C672.839 823.562 671.508 825.088 670.177 826.45C654.51 842.44 637.666 857.345 620.361 870.832C601.214 885.793 583.499 907.575 562.764 918.978C579.301 913.561 596.298 901.789 612.477 894.831C625.788 889.081 638.639 882.563 651.694 876.976C633.109 919.367 607.101 1016.08 600.189 1058.28C662.702 921.784 681.337 908.45 699.564 879.362C700.434 881.098 701.458 882.798 702.38 884.539C702.277 849.097 684.921 844.371 647.598 868.779" fill="#F9A72B"/>
<path d="M694.392 784.259L689.426 784.709L672.172 766.584L671.354 766.246C678.931 775.324 688.146 787.096 694.136 795.344C694.7 792.144 694.802 788.457 694.392 784.259" fill="#F9A72B"/>
<path d="M690.297 804.407C688.812 805.523 687.379 806.798 685.996 808.16C687.686 807.187 689.068 805.892 690.297 804.407Z" fill="#F9A72B"/>
<path d="M701.663 783.609L699.052 783.834C710.879 803.562 725.572 802.139 744.72 779.825C730.18 767.541 716.767 753.343 658.248 684.189L659.374 686.488L725.47 780.419L709.65 780.562L669.409 706.774L705.554 779.794C703.045 778.755 699.103 777.224 694.752 775.544C695.366 776.937 696.032 778.156 696.646 779.405L701.663 783.609" fill="#F9A72B"/>
<path d="M692.959 774.832C691.884 774.433 690.809 774.013 689.734 773.593L693.318 776.625C693.216 776.056 693.062 775.431 692.959 774.832Z" fill="#F9A72B"/>
<path d="M784.552 835.026C802.829 818.785 818.444 798.268 835.237 779.876C850.648 763.005 868.976 746.763 881.059 727.281C853.361 758.842 820.39 766.635 788.289 790.772C774.62 752.949 768.373 721.782 763.612 682.904C762.23 712.57 756.649 742.657 751.427 771.479C751.888 770.844 752.349 770.296 752.86 769.635C752.297 770.362 751.888 771.033 751.376 771.745C750.659 775.708 749.942 779.646 749.277 783.552C747.997 782.528 746.768 781.535 745.59 780.526C725.879 812.912 738.474 826.736 785.422 825.113C743.594 826.562 730.897 838.846 746.358 864.38C746.358 862.076 746.307 859.757 746.409 857.463L747.331 857.688L746.512 856.756L758.441 853.828L763.765 861.539C788.494 867.56 811.789 874.826 835.903 884.744C820.902 870.489 794.842 853.229 784.552 835.026" fill="#F9A72B"/>
<path d="M703.967 887.447C715.23 908.133 728.285 928.205 739.6 949.254C750.3 969.295 759.311 993.984 771.036 1011.4C763.458 965.454 747.792 915.803 746.461 869.716C724.395 851.657 710.827 857.31 703.967 887.447Z" fill="#F9A72B"/>
<path d="M689.171 760.527C690.809 765.729 692.038 770.455 692.96 774.833C693.574 775.089 694.137 775.309 694.752 775.544C692.806 771.177 690.963 766.185 689.171 760.527Z" fill="#FFF200"/>
<path d="M751.375 771.745L751.427 771.479C749.123 774.546 746.921 777.306 744.719 779.825L745.59 780.526C747.279 777.736 749.174 774.817 751.375 771.745Z" fill="#FFF200"/>
<path d="M762.383 885.189C755.369 877.448 750.096 870.54 746.359 864.381C746.359 866.157 746.41 867.939 746.461 869.716C751.325 873.741 756.598 878.81 762.383 885.189" fill="#FFF200"/>
<path d="M642.324 804.643C657.991 809.947 668.538 815.677 674.169 821.985C677.958 817.459 681.747 812.385 685.996 808.16C677.651 812.978 663.213 811.724 642.324 804.643" fill="#FFF200"/>
<path d="M701.048 904.625C701.816 898.2 702.789 892.501 703.967 887.447C703.455 886.474 702.891 885.512 702.379 884.539C702.379 890.417 701.97 897.042 701.048 904.625Z" fill="#FFF200"/>
<path d="M697.824 800.505C696.8 799.01 695.622 797.321 694.138 795.344C693.523 799.036 692.192 802.026 690.298 804.407C692.602 802.635 695.111 801.325 697.824 800.505Z" fill="#FFF200"/>
<path d="M699.667 799.87C699.052 800.004 698.438 800.306 697.824 800.505C698.131 800.971 698.489 801.514 698.796 801.924L699.667 799.87" fill="#FFF200"/>
<path d="M696.646 779.405C696.032 778.156 695.366 776.937 694.752 775.544C694.137 775.309 693.574 775.089 692.96 774.833C693.062 775.432 693.216 776.056 693.318 776.625L696.646 779.405Z" fill="#FFF200"/>
<path d="M752.86 769.636C752.348 770.296 751.888 770.844 751.427 771.479L751.375 771.745C751.887 771.034 752.297 770.363 752.86 769.636Z" fill="#FFF200"/>
<path d="M724.959 847.914C715.538 850.894 705.811 846.598 703.2 838.313C700.537 830.024 706.067 820.894 715.487 817.909C724.856 814.924 734.635 819.22 737.246 827.515C739.908 835.799 734.379 844.929 724.959 847.914V847.914ZM785.423 825.113C738.475 826.737 725.88 812.912 745.591 780.526L744.721 779.825C725.573 802.139 710.879 803.562 699.052 783.834L694.393 784.259C694.803 788.458 694.701 792.144 694.137 795.344C695.622 797.321 696.8 799.01 697.824 800.505C698.438 800.306 699.052 800.004 699.667 799.871L698.796 801.924C698.489 801.514 698.131 800.971 697.824 800.505C695.11 801.325 692.602 802.636 690.298 804.407C689.069 805.892 687.686 807.187 685.997 808.16C681.747 812.384 677.959 817.459 674.17 821.985C685.485 834.688 676.679 849.773 647.599 868.779C684.922 844.371 702.278 849.097 702.38 884.539C702.892 885.512 703.456 886.474 703.968 887.447C710.828 857.309 724.395 851.657 746.462 869.716C746.41 867.939 746.359 866.157 746.359 864.381C730.897 838.846 743.594 826.562 785.423 825.113" fill="#FFF200"/>
<path d="M655.586 818.508L650.568 819.558L653.64 821.616L655.586 818.508Z" fill="#F9A72B"/>
<path d="M651.029 825.712L638.639 830.147L632.086 823.429L499.177 851.257L645.909 833.879L651.029 825.712Z" fill="#F9A72B"/>
<path d="M654.869 680.077L669.409 706.774L659.374 686.488L654.869 680.077Z" fill="#F9A72B"/>
<path d="M725.47 780.419L659.373 686.488L669.408 706.774L709.649 780.562L725.47 780.419Z" fill="#F9A72B"/>
<path d="M673.555 798.938L556.774 611L661.32 800.034L673.555 798.938Z" fill="#F9A72B"/>
<path d="M635.925 728.458L672.173 766.584C676.217 768.325 683.027 770.987 689.734 773.593L635.925 728.458" fill="#F9A72B"/>
<path d="M694.393 784.259C694.188 781.863 693.83 779.354 693.318 776.625L689.734 773.593C683.027 770.987 676.218 768.325 672.173 766.584L689.427 784.709L694.393 784.259" fill="#F9A72B"/>
<path d="M696.646 779.405C697.465 780.977 698.232 782.472 699.051 783.834L701.663 783.608L696.646 779.405" fill="#F9A72B"/>
<path d="M693.318 776.625C693.83 779.354 694.188 781.863 694.393 784.259L699.052 783.834C698.233 782.472 697.465 780.977 696.646 779.405L693.318 776.625Z" fill="#F9A72B"/>
<path d="M656.711 823.695L653.639 821.616L651.028 825.712L656.711 823.695Z" fill="#F9A72B"/>
<path d="M584.42 774.597L632.085 823.429L650.568 819.558L584.42 774.597Z" fill="#F9A72B"/>
<path d="M651.028 825.713L653.64 821.616L650.568 819.558L632.085 823.429L638.638 830.147L651.028 825.713Z" fill="#F9A72B"/>
<path d="M805.03 920.734L763.765 861.539C758.338 860.207 752.912 858.892 747.331 857.688L805.03 920.734Z" fill="#F9A72B"/>
<path d="M746.512 856.756L747.332 857.688C752.912 858.892 758.339 860.207 763.766 861.539L758.441 853.828L746.512 856.756" fill="#F9A72B"/>
<path d="M695.622 836.547C696.236 853.848 693.625 858.139 676.832 867.765C696.083 865.927 700.69 867.949 710.162 882.46C709.547 865.148 712.107 860.858 728.951 851.237C709.65 853.065 705.093 851.047 695.622 836.547" fill="white"/>
</svg>
