<svg width="1795" height="2181" viewBox="0 0 1795 2181" fill="none" xmlns="http://www.w3.org/2000/svg">
<path d="M920 1376.02C920 1388.71 912.389 1399 903 1399C893.607 1399 886 1388.71 886 1376.02V22.9795C886 10.2899 893.607 4.44561e-06 903 4.44561e-06C912.389 4.44561e-06 920 10.2899 920 22.9795V1376.02Z" fill="#F79819"/>
<path d="M982.638 2114.38C986.356 2110.04 988.134 2103.2 986.912 2097.29C967.754 2098.57 948.585 2099.52 929.438 2100.21C930.027 2101.28 930.605 2102.35 931.27 2103.4C941.421 2119.38 967.525 2132.04 982.638 2114.38Z" fill="#EE7217"/>
<path d="M1402.6 2063.36C1402.34 2064.18 1401.88 2064.89 1401.24 2065.47C1400.64 2066.12 1399.94 2066.58 1399.12 2066.84C1398.34 2067.25 1397.49 2067.44 1396.58 2067.4C1395.91 2067.4 1395.24 2067.4 1394.57 2067.4C1393.38 2067.4 1392.28 2067.1 1391.25 2066.51L1389.91 2065.47C1389.09 2064.66 1388.54 2063.69 1388.22 2062.57C1388.14 2061.99 1388.07 2061.41 1387.98 2060.83C1387.95 2059.91 1388.14 2059.07 1388.55 2058.29C1388.82 2057.47 1389.28 2056.76 1389.91 2056.16C1390.51 2055.53 1391.22 2055.07 1392.04 2054.81C1392.82 2054.4 1393.66 2054.21 1394.57 2054.24C1395.24 2054.24 1395.91 2054.24 1396.58 2054.24C1397.77 2054.24 1398.88 2054.55 1399.91 2055.14L1401.24 2056.16C1402.06 2056.99 1402.62 2057.96 1402.93 2059.07C1403.01 2059.66 1403.09 2060.24 1403.17 2060.83C1403.2 2061.73 1403.02 2062.57 1402.6 2063.36V2063.36ZM1347.76 2062.19L1346.73 2063.52C1346.13 2064.17 1345.42 2064.61 1344.61 2064.89C1343.83 2065.29 1342.98 2065.49 1342.07 2065.45C1341.17 2065.49 1340.32 2065.29 1339.53 2064.89C1338.72 2064.61 1338.02 2064.17 1337.42 2063.52C1336.72 2062.88 1336.02 2062.24 1335.32 2061.59C1334.51 2060.77 1333.94 2059.8 1333.63 2058.68C1333.55 2058.1 1333.47 2057.53 1333.39 2056.94C1333.39 2055.75 1333.7 2054.64 1334.29 2053.61L1335.32 2052.28C1335.92 2051.64 1336.62 2051.19 1337.44 2050.92C1338.23 2050.51 1339.06 2050.32 1339.98 2050.35C1340.89 2050.32 1341.73 2050.51 1342.51 2050.92C1343.33 2051.19 1344.04 2051.64 1344.63 2052.28C1345.33 2052.92 1346.03 2053.57 1346.73 2054.21C1347.55 2055.03 1348.1 2056 1348.42 2057.11C1348.5 2057.7 1348.57 2058.29 1348.66 2058.87C1348.65 2060.06 1348.35 2061.16 1347.76 2062.19V2062.19ZM1083.94 2150.09C1083.67 2150.91 1083.22 2151.6 1082.57 2152.2C1081.98 2152.85 1081.27 2153.29 1080.46 2153.57C1079.67 2153.98 1078.82 2154.17 1077.92 2154.13C1077.25 2154.13 1076.58 2154.13 1075.9 2154.13C1074.71 2154.12 1073.61 2153.83 1072.58 2153.23L1071.24 2152.2C1070.44 2151.39 1069.87 2150.42 1069.55 2149.3C1069.48 2148.71 1069.4 2148.14 1069.32 2147.55C1069.29 2146.64 1069.48 2145.79 1069.89 2145.02C1070.15 2144.2 1070.61 2143.49 1071.24 2142.89C1071.84 2142.25 1072.55 2141.8 1073.37 2141.53C1074.15 2141.13 1074.99 2140.93 1075.9 2140.96C1076.58 2140.96 1077.25 2140.96 1077.92 2140.96C1079.11 2140.97 1080.22 2141.27 1081.24 2141.87L1082.57 2142.89C1083.39 2143.71 1083.96 2144.68 1084.27 2145.8C1084.35 2146.38 1084.43 2146.97 1084.5 2147.55C1084.54 2148.45 1084.35 2149.3 1083.94 2150.09V2150.09ZM1035.57 2109.77C1027.08 2109.77 1027.09 2096.59 1035.57 2096.59C1044.05 2096.59 1044.04 2109.77 1035.57 2109.77ZM722.122 2150.09C721.855 2150.91 721.402 2151.6 720.761 2152.2C720.164 2152.85 719.458 2153.29 718.642 2153.57C717.858 2153.98 717.014 2154.17 716.106 2154.13C715.433 2154.13 714.761 2154.13 714.09 2154.13C712.901 2154.12 711.794 2153.83 710.766 2153.23L709.436 2152.2C708.618 2151.39 708.054 2150.42 707.741 2149.3C707.664 2148.71 707.584 2148.14 707.507 2147.55C707.473 2146.64 707.662 2145.79 708.073 2145.02C708.339 2144.2 708.793 2143.49 709.436 2142.89C710.03 2142.25 710.738 2141.8 711.552 2141.53C712.34 2141.13 713.184 2140.93 714.09 2140.96C714.761 2140.96 715.433 2140.96 716.106 2140.96C717.295 2140.97 718.402 2141.27 719.428 2141.87L720.761 2142.89C721.576 2143.71 722.141 2144.68 722.454 2145.8C722.533 2146.38 722.611 2146.97 722.69 2147.55C722.722 2148.45 722.533 2149.3 722.122 2150.09V2150.09ZM458.048 2059.48C457.783 2060.29 457.331 2060.99 456.688 2061.59C455.989 2062.24 455.29 2062.88 454.592 2063.52C453.769 2064.34 452.802 2064.9 451.686 2065.21C451.102 2065.29 450.52 2065.38 449.935 2065.45C448.748 2065.44 447.641 2065.15 446.612 2064.55L445.283 2063.52C444.639 2062.92 444.185 2062.21 443.92 2061.41C443.507 2060.62 443.32 2059.77 443.354 2058.87C443.32 2057.96 443.507 2057.11 443.92 2056.33C444.185 2055.52 444.639 2054.81 445.283 2054.21C445.98 2053.57 446.679 2052.92 447.378 2052.28C448.199 2051.46 449.169 2050.91 450.284 2050.59C450.865 2050.51 451.45 2050.44 452.034 2050.35C453.222 2050.36 454.33 2050.66 455.354 2051.26L456.688 2052.28C457.331 2052.88 457.783 2053.59 458.048 2054.41C458.463 2055.18 458.651 2056.03 458.616 2056.94C458.651 2057.84 458.463 2058.69 458.048 2059.48ZM403.456 2063.36C403.191 2064.18 402.74 2064.89 402.097 2065.47C401.499 2066.12 400.796 2066.58 399.978 2066.84C399.194 2067.25 398.35 2067.44 397.442 2067.4C396.769 2067.4 396.096 2067.4 395.425 2067.4C394.237 2067.4 393.13 2067.1 392.101 2066.51L390.772 2065.47C389.955 2064.66 389.39 2063.69 389.076 2062.57C389 2061.99 388.919 2061.41 388.843 2060.83C388.809 2059.91 388.997 2059.07 389.409 2058.29C389.674 2057.47 390.129 2056.76 390.772 2056.16C391.366 2055.53 392.073 2055.07 392.888 2054.81C393.674 2054.4 394.519 2054.21 395.425 2054.24C396.096 2054.24 396.769 2054.24 397.442 2054.24C398.631 2054.24 399.738 2054.55 400.764 2055.14L402.097 2056.16C402.912 2056.99 403.476 2057.96 403.79 2059.07C403.868 2059.66 403.947 2060.24 404.025 2060.83C404.06 2061.73 403.869 2062.57 403.456 2063.36V2063.36ZM1624.13 1910.87L1623.09 1912.2C1622.5 1912.84 1621.79 1913.29 1620.97 1913.56C1620.19 1913.96 1619.35 1914.16 1618.44 1914.13C1617.71 1914.15 1617.03 1914 1616.38 1913.74C1538.67 1961.3 1454.69 1998.61 1366.99 2026.99C1399.67 2028.85 1432.48 2028.76 1465.2 2026.63C1473.67 2026.09 1473.61 2039.26 1465.2 2039.81C1436.88 2041.65 1408.48 2042.05 1380.12 2040.92C1364.3 2040.29 1348.51 2039.14 1332.76 2037.59C1317.33 2042.13 1301.77 2046.34 1286.15 2050.36C1286.18 2050.47 1286.25 2050.57 1286.28 2050.68C1286.36 2051.27 1286.44 2051.84 1286.52 2052.43C1286.51 2053.61 1286.21 2054.72 1285.61 2055.75L1284.59 2057.08C1283.99 2057.72 1283.28 2058.18 1282.47 2058.44C1281.69 2058.86 1280.84 2059.04 1279.93 2059.01C1279.03 2059.04 1278.19 2058.86 1277.39 2058.44C1276.59 2058.18 1275.88 2057.72 1275.28 2057.08C1274.24 2056.04 1273.21 2055.01 1272.17 2053.97C1207.62 2069.9 1141.65 2081.43 1075.2 2089.18C1094.14 2110.15 1115.63 2128.8 1139.31 2144.53C1146.34 2149.19 1139.74 2160.6 1132.66 2155.89C1105.27 2137.7 1080.58 2115.8 1059.26 2090.97C1039.51 2093.08 1019.73 2094.86 999.932 2096.32C1003.67 2119.11 983.053 2136.81 960.841 2135.77C939.71 2134.78 923.169 2119.32 915.034 2100.66C902.233 2101.03 889.443 2101.26 876.663 2101.38C876.642 2101.42 876.631 2101.47 876.609 2101.52C867.395 2122.44 846.514 2138.86 822.752 2135.26C805.171 2132.61 790.951 2117.21 791.443 2100.38C781.446 2100.05 771.466 2099.66 761.513 2099.18C764.178 2103.01 762.532 2109.77 756.443 2109.77C750.083 2109.77 748.499 2102.36 751.672 2098.65C743.519 2098.23 735.378 2097.78 727.262 2097.26C707.234 2119.51 684.405 2139.25 659.347 2155.89C652.262 2160.6 645.679 2149.19 652.704 2144.53C673.705 2130.57 692.894 2114.23 710.207 2096.1C707.845 2095.93 705.467 2095.8 703.108 2095.61C605.553 2088.65 512.118 2069.82 421.631 2040.41C390.048 2042.03 358.372 2041.86 326.808 2039.81C318.384 2039.26 318.349 2026.09 326.808 2026.63C346.633 2027.92 366.493 2028.49 386.35 2028.34C312.07 2001.7 239.699 1967.96 168.642 1927.57C427.639 2186.77 880.654 2180.89 898.024 2180.56C916.452 2180.91 1425.94 2187.51 1672.96 1876.53C1657.25 1887.66 1641.2 1898.26 1624.9 1908.46C1624.78 1909.3 1624.56 1910.12 1624.13 1910.87" fill="#EE7217"/>
<path d="M860.744 2103.4C861.136 2102.78 861.464 2102.14 861.823 2101.51C842.731 2101.54 823.699 2101.27 804.724 2100.76C804.635 2105.73 806.36 2110.87 809.365 2114.38C824.484 2132.04 850.592 2119.38 860.744 2103.4Z" fill="#EE7217"/>
<path d="M1738.61 1757.74C1666.72 1810.79 1581.99 1844.59 1493.5 1856.44C1485.11 1857.57 1485.23 1844.39 1493.5 1843.27C1579.63 1831.75 1662.08 1797.94 1731.96 1746.37C1738.79 1741.33 1745.34 1752.76 1738.61 1757.74ZM1669.22 1875.38C1612.55 1883.73 1555.28 1887.47 1498 1886.32C1396.62 1884.27 1295.44 1867.45 1198.85 1836.58C1150.3 1821.06 1102.85 1801.98 1057.09 1779.53C1034.63 1768.52 1012.58 1756.66 991.013 1744.01C971.287 1732.44 950.472 1719.95 939.688 1698.92C935.828 1691.38 947.19 1684.73 951.061 1692.28C963.131 1715.81 989.846 1728.38 1011.88 1740.83C1035.7 1754.29 1060.07 1766.76 1084.91 1778.24C1174.83 1819.83 1270.96 1848.06 1368.96 1862.48C1467.11 1876.91 1567.57 1877.14 1665.72 1862.68C1674.02 1861.46 1677.57 1874.14 1669.22 1875.38V1875.38ZM1566 1914.13C1557.51 1914.13 1557.54 1900.96 1566 1900.96C1574.49 1900.96 1574.47 1914.13 1566 1914.13ZM1517.56 1910.08C1517.3 1910.89 1516.84 1911.6 1516.2 1912.2C1515.61 1912.84 1514.9 1913.29 1514.08 1913.56C1513.3 1913.96 1512.45 1914.16 1511.54 1914.13C1510.88 1914.13 1510.2 1914.13 1509.53 1914.13C1508.34 1914.12 1507.24 1913.82 1506.21 1913.22L1504.87 1912.2C1504.06 1911.37 1503.5 1910.41 1503.18 1909.29C1503.1 1908.71 1503.03 1908.13 1502.95 1907.54C1502.91 1906.64 1503.1 1905.79 1503.52 1905C1503.78 1904.18 1504.23 1903.49 1504.87 1902.89C1505.47 1902.24 1506.18 1901.8 1507 1901.52C1507.78 1901.11 1508.62 1900.92 1509.53 1900.96C1510.2 1900.96 1510.88 1900.96 1511.54 1900.96C1512.73 1900.97 1513.84 1901.26 1514.87 1901.86L1516.2 1902.89C1517.02 1903.7 1517.58 1904.67 1517.9 1905.79C1517.98 1906.38 1518.05 1906.96 1518.13 1907.54C1518.16 1908.45 1517.98 1909.3 1517.56 1910.08V1910.08ZM1445.38 1903.43C1445.18 1904.29 1444.79 1905.03 1444.2 1905.67C1443.74 1906.39 1443.12 1906.95 1442.36 1907.37C1441.02 1908.04 1439.67 1908.72 1438.32 1909.4C1437.3 1909.98 1436.2 1910.29 1435.01 1910.29C1434.42 1910.21 1433.84 1910.14 1433.25 1910.05C1432.14 1909.74 1431.17 1909.18 1430.35 1908.36L1429.32 1907.03C1428.84 1906.28 1428.57 1905.46 1428.54 1904.59C1428.35 1903.7 1428.38 1902.83 1428.66 1901.96C1428.86 1901.1 1429.25 1900.36 1429.84 1899.72C1430.3 1899 1430.92 1898.44 1431.68 1898.02C1433.02 1897.35 1434.36 1896.67 1435.72 1896.01C1436.74 1895.41 1437.84 1895.1 1439.03 1895.1C1439.62 1895.18 1440.2 1895.25 1440.79 1895.34C1441.9 1895.65 1442.87 1896.21 1443.69 1897.03L1444.71 1898.36C1445.2 1899.11 1445.46 1899.93 1445.5 1900.8C1445.69 1901.69 1445.66 1902.56 1445.38 1903.43ZM1360.28 1893.96C1351.79 1893.96 1351.81 1880.79 1360.28 1880.79C1368.77 1880.79 1368.76 1893.96 1360.28 1893.96ZM1289.66 1877.81C1289.39 1878.62 1288.94 1879.33 1288.3 1879.92C1287.7 1880.57 1286.99 1881.02 1286.18 1881.29C1285.4 1881.7 1284.55 1881.89 1283.64 1881.85C1282.96 1881.85 1282.3 1881.85 1281.62 1881.85C1280.43 1881.85 1279.33 1881.56 1278.3 1880.96L1276.97 1879.92C1276.15 1879.1 1275.59 1878.13 1275.28 1877.02C1275.2 1876.44 1275.11 1875.86 1275.04 1875.27C1275 1874.36 1275.19 1873.52 1275.6 1872.74C1275.88 1871.92 1276.32 1871.21 1276.97 1870.62C1277.57 1869.98 1278.28 1869.52 1279.08 1869.26C1279.87 1868.84 1280.72 1868.66 1281.62 1868.69C1282.3 1868.69 1282.96 1868.69 1283.64 1868.69C1284.83 1868.69 1285.94 1869 1286.97 1869.59L1288.3 1870.62C1289.11 1871.44 1289.67 1872.41 1289.99 1873.52C1290.06 1874.1 1290.14 1874.69 1290.23 1875.27C1290.26 1876.18 1290.06 1877.02 1289.66 1877.81ZM1206.64 1862.47L1205.6 1863.8C1205 1864.44 1204.3 1864.89 1203.49 1865.16C1202.7 1865.56 1201.85 1865.76 1200.95 1865.71C1200.04 1865.76 1199.2 1865.56 1198.42 1865.16C1197.6 1864.89 1196.89 1864.44 1196.3 1863.8C1195.62 1863.12 1194.95 1862.44 1194.28 1861.78C1193.47 1860.95 1192.9 1859.98 1192.58 1858.87C1192.51 1858.29 1192.43 1857.7 1192.35 1857.12C1192.35 1855.93 1192.65 1854.82 1193.25 1853.8L1194.28 1852.47C1194.87 1851.82 1195.58 1851.37 1196.4 1851.1C1197.18 1850.69 1198.02 1850.5 1198.93 1850.54C1199.83 1850.5 1200.68 1850.69 1201.47 1851.1C1202.29 1851.37 1203 1851.82 1203.58 1852.47C1204.26 1853.14 1204.93 1853.81 1205.6 1854.48C1206.42 1855.3 1206.99 1856.27 1207.29 1857.38C1207.38 1857.97 1207.45 1858.55 1207.53 1859.14C1207.53 1860.33 1207.23 1861.43 1206.64 1862.47V1862.47ZM1126.29 1831.42C1126.02 1832.24 1125.57 1832.95 1124.93 1833.54C1124.33 1834.18 1123.63 1834.64 1122.81 1834.9C1122.02 1835.31 1121.18 1835.5 1120.28 1835.47C1118.93 1835.47 1117.58 1835.47 1116.24 1835.47C1115.06 1835.47 1113.94 1835.16 1112.92 1834.57L1111.59 1833.54C1110.77 1832.72 1110.2 1831.75 1109.9 1830.64C1109.81 1830.05 1109.73 1829.47 1109.66 1828.88C1109.63 1827.98 1109.81 1827.14 1110.22 1826.35C1110.49 1825.53 1110.94 1824.83 1111.59 1824.23C1112.19 1823.59 1112.89 1823.14 1113.7 1822.87C1114.49 1822.46 1115.34 1822.27 1116.24 1822.31C1117.58 1822.31 1118.93 1822.31 1120.28 1822.31C1121.47 1822.31 1122.57 1822.6 1123.59 1823.2L1124.93 1824.23C1125.74 1825.05 1126.31 1826.02 1126.62 1827.14C1126.7 1827.71 1126.78 1828.3 1126.85 1828.88C1126.89 1829.79 1126.7 1830.64 1126.29 1831.42V1831.42ZM1092.04 1989.7C1100.52 1989.7 1100.51 2002.86 1092.04 2002.86C1083.55 2002.86 1083.56 1989.7 1092.04 1989.7ZM1133.86 2012.42C1133.86 2011.23 1134.16 2010.13 1134.76 2009.1L1135.78 2007.76C1136.61 2006.95 1137.58 2006.39 1138.69 2006.07C1139.27 2005.99 1139.86 2005.92 1140.44 2005.83C1141.36 2005.8 1142.2 2005.99 1142.98 2006.41C1143.8 2006.67 1144.5 2007.13 1145.1 2007.76C1145.74 2008.36 1146.2 2009.07 1146.46 2009.89C1146.87 2010.67 1147.06 2011.51 1147.03 2012.42C1147.03 2013.09 1147.03 2013.77 1147.03 2014.43C1147.03 2015.62 1146.72 2016.73 1146.13 2017.76L1145.1 2019.09C1144.28 2019.91 1143.31 2020.47 1142.2 2020.78C1141.61 2020.87 1141.03 2020.94 1140.44 2021.02C1139.53 2021.05 1138.69 2020.87 1137.91 2020.45C1137.09 2020.19 1136.38 2019.73 1135.78 2019.09C1135.15 2018.5 1134.69 2017.79 1134.42 2016.97C1134.02 2016.19 1133.82 2015.34 1133.86 2014.43C1133.86 2013.77 1133.86 2013.09 1133.86 2012.42V2012.42ZM1205.01 2030.05C1205.28 2029.24 1205.73 2028.53 1206.38 2027.93C1206.98 2027.29 1207.68 2026.84 1208.5 2026.57C1209.28 2026.17 1210.13 2025.97 1211.03 2026C1211.71 2026 1212.38 2026 1213.05 2026C1214.24 2026.01 1215.35 2026.31 1216.37 2026.91L1217.7 2027.93C1218.52 2028.75 1219.09 2029.72 1219.39 2030.84C1219.47 2031.42 1219.56 2032 1219.63 2032.59C1219.67 2033.49 1219.48 2034.34 1219.07 2035.12C1218.81 2035.95 1218.35 2036.64 1217.7 2037.24C1217.1 2037.89 1216.41 2038.33 1215.59 2038.61C1214.8 2039.02 1213.95 2039.21 1213.05 2039.17C1212.38 2039.17 1211.71 2039.17 1211.03 2039.17C1209.84 2039.16 1208.74 2038.87 1207.72 2038.27L1206.38 2037.24C1205.56 2036.43 1205 2035.46 1204.69 2034.33C1204.61 2033.75 1204.53 2033.17 1204.45 2032.59C1204.41 2031.68 1204.61 2030.83 1205.01 2030.05V2030.05ZM997.25 2055.3C988.766 2055.3 988.777 2042.14 997.25 2042.14C1005.73 2042.14 1005.72 2055.3 997.25 2055.3ZM1744.52 1675.2C1703.54 1709.72 1660.68 1721.95 1613.21 1733.04C1536.04 1751.08 1456.98 1748.52 1378.57 1745.9C1257.74 1741.86 1135.19 1737.46 1019.55 1692.14C988.112 1679.83 956.676 1663.99 931.826 1636.25C928.533 1632.56 925.578 1628.82 922.809 1625.02C914.293 1616.47 908.198 1607.53 903.901 1598.13C904.021 1602.35 904.065 1606.56 904.228 1610.77C904.261 1611.6 904.13 1612.32 903.934 1612.98C904.403 1613.67 904.741 1614.53 904.894 1615.58C913.301 1670.62 939.088 1722.34 978.331 1761.91C996.53 1780.25 1017.69 1794.08 1038.55 1809.07C1059.12 1823.87 1078.39 1840.91 1088.93 1864.48C1108.31 1907.83 1098.88 1970.32 1051.06 1991.03C1030.51 1999.94 1005.05 1999.12 986.629 1985.57C986.128 1985.21 985.713 1984.75 985.223 1984.37C983.522 1987.12 980.076 1988.84 976.423 1986.87C965.279 1980.83 952.947 1991.63 946.547 1999.99C939.219 2009.55 934.41 2021.19 930.332 2032.44C922.449 2054.17 917.989 2079.16 929.438 2100.21C948.586 2099.52 967.755 2098.57 986.913 2097.29C986.182 2093.72 984.35 2090.48 981.199 2088.32C974.755 2083.92 963.927 2086.59 961.518 2094.3C959.01 2102.38 946.296 2098.92 948.825 2090.8C956.687 2065.6 993.39 2068.91 999.452 2093.63C999.681 2094.53 999.79 2095.43 999.932 2096.32C1019.73 2094.86 1039.51 2093.08 1059.26 2090.97C1041.64 2070.44 1026.32 2047.92 1013.79 2023.79C1009.89 2016.28 1021.25 2009.62 1025.15 2017.14C1038.72 2043.26 1055.59 2067.46 1075.2 2089.18C1141.65 2081.43 1207.62 2069.9 1272.17 2053.97C1271.85 2053.67 1271.55 2053.36 1271.24 2053.05C1270.42 2052.24 1269.86 2051.27 1269.55 2050.15C1269.47 2049.57 1269.39 2048.99 1269.31 2048.4C1269.31 2047.21 1269.62 2046.11 1270.21 2045.07L1271.24 2043.74C1271.84 2043.1 1272.54 2042.65 1273.36 2042.38C1274.14 2041.97 1274.99 2041.78 1275.9 2041.81C1276.8 2041.78 1277.64 2041.97 1278.43 2042.38C1279.25 2042.65 1279.95 2043.1 1280.55 2043.74C1281.9 2045.08 1283.25 2046.44 1284.59 2047.77C1285.32 2048.51 1285.82 2049.38 1286.15 2050.36C1301.77 2046.34 1317.33 2042.13 1332.76 2037.59C1250.15 2029.45 1169.02 2008.75 1092.48 1976.38C1084.7 1973.09 1091.42 1961.75 1099.12 1965.01C1124.74 1975.84 1150.93 1985.31 1177.52 1993.4C1239.14 2012.15 1302.82 2023.36 1366.99 2026.99C1454.69 1998.61 1538.67 1961.3 1616.38 1913.74C1616.22 1913.67 1616.06 1913.64 1615.9 1913.56C1615.09 1913.29 1614.38 1912.84 1613.79 1912.2C1613.11 1911.52 1612.44 1910.85 1611.77 1910.18C1610.95 1909.36 1610.39 1908.39 1610.08 1907.28C1609.99 1906.69 1609.92 1906.11 1609.84 1905.52C1609.84 1904.34 1610.15 1903.24 1610.74 1902.2L1611.77 1900.87C1612.36 1900.23 1613.07 1899.78 1613.89 1899.51C1614.67 1899.1 1615.51 1898.91 1616.43 1898.94C1617.33 1898.91 1618.17 1899.1 1618.96 1899.51C1619.77 1899.78 1620.48 1900.23 1621.07 1900.87C1621.75 1901.54 1622.42 1902.22 1623.09 1902.89C1623.91 1903.7 1624.47 1904.67 1624.79 1905.79C1624.87 1906.38 1624.94 1906.96 1625.02 1907.54C1625.02 1907.86 1624.94 1908.15 1624.9 1908.46C1641.2 1898.26 1657.25 1887.66 1672.96 1876.53C1732.19 1801.96 1776.34 1709.15 1795 1593.59L1793.02 1593.54C1792.38 1608.52 1787.5 1623.34 1780.42 1635.47C1770.89 1651.81 1757.79 1664.01 1744.52 1675.2" fill="#F79819"/>
<path d="M847.387 1872.83C847.419 1872.79 847.452 1872.76 847.474 1872.65V1872.62C847.463 1872.63 847.43 1872.65 847.419 1872.66C847.409 1872.72 847.398 1872.79 847.387 1872.83Z" fill="#F79819"/>
<path d="M363.354 1905.46C363.13 1905.98 362.91 1906.51 362.69 1907.03C362.276 1907.79 361.709 1908.41 360.992 1908.87C360.358 1909.46 359.611 1909.85 358.755 1910.05C357.879 1910.33 357.006 1910.37 356.128 1910.17C355.255 1910.14 354.437 1909.88 353.682 1909.4C352.338 1908.72 350.997 1908.04 349.653 1907.37C348.662 1906.78 347.876 1905.99 347.291 1905C347.068 1904.48 346.848 1903.95 346.626 1903.43C346.313 1902.26 346.313 1901.1 346.626 1899.93C346.848 1899.41 347.068 1898.88 347.291 1898.36C347.703 1897.6 348.268 1896.98 348.986 1896.51C349.621 1895.93 350.367 1895.54 351.226 1895.34C352.099 1895.06 352.975 1895.02 353.849 1895.22C354.726 1895.26 355.541 1895.52 356.296 1896.01C357.64 1896.67 358.984 1897.35 360.328 1898.02C361.316 1898.61 362.103 1899.4 362.69 1900.39C362.91 1900.91 363.13 1901.44 363.354 1901.96C363.667 1903.13 363.667 1904.29 363.354 1905.46V1905.46ZM288.497 1910.08C288.231 1910.89 287.778 1911.6 287.136 1912.2C286.542 1912.84 285.834 1913.29 285.016 1913.56C284.232 1913.96 283.388 1914.16 282.482 1914.13C281.807 1914.13 281.136 1914.13 280.464 1914.13C279.276 1914.12 278.168 1913.82 277.141 1913.22L275.81 1912.2C274.994 1911.37 274.428 1910.41 274.118 1909.29C274.038 1908.71 273.962 1908.13 273.881 1907.54C273.846 1906.64 274.036 1905.79 274.447 1905C274.713 1904.18 275.167 1903.49 275.81 1902.89C276.405 1902.24 277.111 1901.8 277.926 1901.52C278.714 1901.11 279.557 1900.92 280.464 1900.96C281.136 1900.96 281.807 1900.96 282.482 1900.96C283.669 1900.97 284.777 1901.26 285.802 1901.86L287.136 1902.89C287.951 1903.7 288.517 1904.67 288.827 1905.79C288.908 1906.38 288.985 1906.96 289.064 1907.54C289.099 1908.45 288.911 1909.3 288.497 1910.08V1910.08ZM226.009 1914.13C217.524 1914.13 217.537 1900.96 226.009 1900.96C234.495 1900.96 234.482 1914.13 226.009 1914.13ZM181.604 1908.07C181.339 1908.87 180.884 1909.58 180.241 1910.18C179.569 1910.85 178.897 1911.52 178.226 1912.2C177.404 1913.02 176.435 1913.57 175.32 1913.89C174.738 1913.96 174.153 1914.05 173.572 1914.13C172.381 1914.12 171.274 1913.82 170.248 1913.22L168.916 1912.2C168.276 1911.6 167.821 1910.89 167.556 1910.08C167.144 1909.3 166.952 1908.45 166.987 1907.54C166.952 1906.64 167.144 1905.79 167.556 1905C167.821 1904.18 168.276 1903.49 168.916 1902.89C169.587 1902.22 170.259 1901.55 170.931 1900.87C171.755 1900.05 172.722 1899.5 173.837 1899.18C174.421 1899.1 175.003 1899.02 175.588 1898.94C176.775 1898.95 177.882 1899.24 178.911 1899.84L180.241 1900.87C180.884 1901.47 181.339 1902.18 181.604 1902.98C182.016 1903.77 182.204 1904.62 182.169 1905.52C182.204 1906.43 182.016 1907.28 181.604 1908.07ZM431.73 1880.79C440.214 1880.79 440.201 1893.96 431.73 1893.96C423.244 1893.96 423.257 1880.79 431.73 1880.79ZM502.355 1872.74C502.62 1871.92 503.073 1871.21 503.714 1870.62C504.311 1869.98 505.018 1869.52 505.834 1869.26C506.617 1868.84 507.464 1868.66 508.37 1868.69C509.042 1868.69 509.715 1868.69 510.386 1868.69C511.574 1868.69 512.681 1869 513.71 1869.59L515.039 1870.62C515.857 1871.44 516.422 1872.41 516.735 1873.52C516.811 1874.1 516.892 1874.69 516.968 1875.27C517.003 1876.18 516.814 1877.02 516.402 1877.81C516.137 1878.63 515.682 1879.33 515.039 1879.92C514.445 1880.57 513.738 1881.02 512.923 1881.29C512.139 1881.7 511.293 1881.89 510.386 1881.85C509.715 1881.85 509.042 1881.85 508.37 1881.85C507.18 1881.85 506.075 1881.56 505.047 1880.96L503.714 1879.92C502.899 1879.1 502.335 1878.13 502.022 1877.02C501.945 1876.44 501.865 1875.86 501.788 1875.27C501.754 1874.36 501.943 1873.52 502.355 1872.74ZM585.044 1856.6C585.31 1855.78 585.765 1855.08 586.407 1854.48C587.079 1853.81 587.752 1853.14 588.423 1852.47C589.245 1851.65 590.214 1851.08 591.326 1850.78C591.911 1850.7 592.495 1850.61 593.077 1850.54C594.267 1850.54 595.375 1850.84 596.4 1851.44L597.733 1852.47C598.373 1853.07 598.828 1853.76 599.093 1854.58C599.505 1855.37 599.694 1856.22 599.662 1857.12C599.694 1858.03 599.505 1858.87 599.093 1859.66C598.828 1860.47 598.373 1861.18 597.733 1861.78C597.061 1862.44 596.388 1863.12 595.715 1863.8C594.894 1864.61 593.927 1865.17 592.811 1865.49C592.227 1865.56 591.646 1865.64 591.061 1865.71C589.874 1865.71 588.766 1865.42 587.738 1864.82L586.407 1863.8C585.765 1863.2 585.31 1862.49 585.044 1861.67C584.632 1860.9 584.445 1860.04 584.48 1859.14C584.445 1858.23 584.632 1857.38 585.044 1856.6V1856.6ZM665.72 1826.35C665.985 1825.53 666.44 1824.83 667.08 1824.23C667.677 1823.59 668.384 1823.14 669.198 1822.87C669.983 1822.46 670.83 1822.27 671.736 1822.31C673.08 1822.31 674.424 1822.31 675.768 1822.31C676.958 1822.31 678.065 1822.6 679.09 1823.2L680.424 1824.23C681.24 1825.05 681.803 1826.02 682.116 1827.14C682.196 1827.71 682.272 1828.3 682.353 1828.88C682.387 1829.79 682.196 1830.64 681.784 1831.42C681.519 1832.24 681.065 1832.95 680.424 1833.54C679.826 1834.18 679.121 1834.64 678.305 1834.9C677.521 1835.31 676.676 1835.5 675.768 1835.47C674.424 1835.47 673.08 1835.47 671.736 1835.47C670.545 1835.47 669.442 1835.16 668.412 1834.57L667.08 1833.54C666.264 1832.72 665.7 1831.75 665.387 1830.64C665.311 1830.05 665.231 1829.47 665.153 1828.88C665.119 1827.98 665.308 1827.14 665.72 1826.35V1826.35ZM298.51 1856.44C210.02 1844.59 125.298 1810.79 53.4065 1757.74C46.6548 1752.76 53.2288 1741.35 60.0535 1746.37C129.925 1797.94 212.379 1831.75 298.51 1843.27C306.798 1844.39 306.879 1857.56 298.51 1856.44ZM699.971 2002.86C691.485 2002.86 691.5 1989.7 699.971 1989.7C708.458 1989.7 708.441 2002.86 699.971 2002.86ZM658.148 2014.43C658.146 2015.62 657.846 2016.73 657.251 2017.76L656.221 2019.09C655.401 2019.91 654.43 2020.47 653.318 2020.78C652.734 2020.87 652.148 2020.94 651.567 2021.02C650.661 2021.05 649.813 2020.87 649.031 2020.45C648.215 2020.19 647.508 2019.73 646.911 2019.09C646.271 2018.5 645.817 2017.79 645.551 2016.97C645.139 2016.19 644.95 2015.34 644.985 2014.43C644.985 2013.77 644.985 2013.09 644.985 2012.42C644.987 2011.23 645.287 2010.13 645.883 2009.1L646.911 2007.76C647.734 2006.95 648.701 2006.39 649.817 2006.07C650.401 2005.99 650.982 2005.92 651.567 2005.83C652.473 2005.8 653.318 2005.99 654.103 2006.41C654.919 2006.67 655.626 2007.13 656.221 2007.76C656.864 2008.36 657.317 2009.07 657.584 2009.89C657.996 2010.67 658.184 2011.51 658.148 2012.42C658.148 2013.09 658.148 2013.77 658.148 2014.43V2014.43ZM794.764 2042.14C803.249 2042.14 803.235 2055.3 794.764 2055.3C786.277 2055.3 786.293 2042.14 794.764 2042.14ZM586.992 2035.12C586.726 2035.95 586.274 2036.64 585.631 2037.24C585.035 2037.89 584.33 2038.33 583.512 2038.61C582.728 2039.02 581.883 2039.21 580.975 2039.17C580.303 2039.17 579.632 2039.17 578.959 2039.17C577.771 2039.16 576.665 2038.87 575.636 2038.27L574.306 2037.24C573.491 2036.43 572.925 2035.46 572.611 2034.33C572.534 2033.75 572.455 2033.17 572.377 2032.59C572.342 2031.68 572.531 2030.83 572.943 2030.05C573.208 2029.24 573.663 2028.53 574.306 2027.93C574.902 2027.29 575.607 2026.84 576.422 2026.57C577.209 2026.17 578.053 2025.97 578.959 2026C579.632 2026 580.303 2026 580.975 2026C582.166 2026.01 583.272 2026.31 584.298 2026.91L585.631 2027.93C586.448 2028.75 587.01 2029.72 587.323 2030.84C587.403 2031.42 587.481 2032 587.56 2032.59C587.594 2033.49 587.403 2034.34 586.992 2035.12V2035.12ZM522.129 2050.94C521.864 2051.75 521.409 2052.45 520.769 2053.05C519.423 2054.4 518.076 2055.74 516.729 2057.08C515.908 2057.9 514.941 2058.46 513.826 2058.78C513.242 2058.86 512.66 2058.93 512.075 2059.01C510.889 2059.01 509.78 2058.7 508.753 2058.11L507.422 2057.08C506.779 2056.49 506.325 2055.78 506.06 2054.96C505.648 2054.18 505.459 2053.34 505.493 2052.43C505.459 2051.53 505.648 2050.68 506.06 2049.89C506.325 2049.07 506.779 2048.37 507.422 2047.77C508.765 2046.44 510.113 2045.08 511.459 2043.74C512.279 2042.92 513.25 2042.37 514.362 2042.05C514.946 2041.98 515.531 2041.89 516.113 2041.81C517.303 2041.82 518.407 2042.12 519.437 2042.72L520.769 2043.74C521.409 2044.34 521.864 2045.05 522.129 2045.86C522.541 2046.64 522.73 2047.49 522.696 2048.4C522.73 2049.3 522.541 2050.15 522.129 2050.94V2050.94ZM409.386 2027.84C506.638 2024.27 603.243 2002.93 692.882 1965.01C700.601 1961.75 707.304 1973.09 699.529 1976.38C673.628 1987.34 647.255 1997.08 620.375 2005.36C555.905 2025.21 488.981 2036.95 421.631 2040.41C512.118 2069.82 605.553 2088.64 703.108 2095.61C705.467 2095.8 707.845 2095.93 710.207 2096.1C732.624 2072.63 751.813 2046.1 766.853 2017.14C770.763 2009.61 782.12 2016.28 778.221 2023.79C764.399 2050.4 747.221 2075.08 727.262 2097.26C735.378 2097.78 743.519 2098.23 751.672 2098.65C752.733 2097.42 754.322 2096.59 756.443 2096.59C758.829 2096.59 760.471 2097.68 761.513 2099.18C771.466 2099.66 781.446 2100.05 791.443 2100.38C791.587 2095.46 792.926 2090.42 795.882 2085.54C807.024 2067.13 836.701 2070.02 843.178 2090.8C845.707 2098.93 833.004 2102.37 830.488 2094.3C828.084 2086.59 817.251 2083.92 810.807 2088.32C806.657 2091.15 804.812 2095.87 804.724 2100.76C823.699 2101.27 842.731 2101.54 861.823 2101.51C874.188 2080.19 869.729 2054.62 861.671 2032.44C857.593 2021.19 852.795 2009.55 845.467 1999.99C839.067 1991.63 826.729 1980.83 815.581 1986.87C811.849 1988.89 808.321 1987.04 806.663 1984.2C801.818 1988.09 796.331 1991.32 790.15 1993.5C768.952 2000.98 744.146 1996.06 726.522 1982.51C685.498 1950.96 684.402 1887.62 712.753 1847.48C727.591 1826.47 749.029 1812.05 769.877 1797.62C790.486 1783.36 809.487 1767.68 825.932 1748.67C858.41 1711.14 879.629 1664.59 887.109 1615.58C887.524 1612.86 889.148 1611.43 891.089 1610.98C891.089 1610.9 891.067 1610.85 891.067 1610.77C890.86 1605.46 890.784 1600.16 890.642 1594.86C886.324 1605.47 879.793 1615.48 870.307 1625.02C867.526 1628.81 864.582 1632.56 861.278 1636.25C836.439 1663.99 804.999 1679.83 773.562 1692.14C657.913 1737.46 535.365 1741.86 414.538 1745.9C336.132 1748.52 257.07 1751.08 179.893 1733.04C132.432 1721.95 89.5714 1709.72 48.6023 1675.2C35.3311 1664.01 22.2203 1651.81 12.6892 1635.47C10.298 1631.37 8.15534 1626.96 6.33984 1622.34C26.6331 1721.42 66.3102 1802.89 118.049 1869.93C118.117 1866.16 121.355 1861.95 126.291 1862.68C181.387 1870.8 237.16 1874.23 292.836 1873.17C391.943 1871.3 490.64 1855.05 585.188 1825.29C632.74 1810.33 679.205 1791.97 724.064 1770.22C745.866 1759.65 767.291 1748.29 788.274 1736.18C807.947 1724.81 830.166 1713.3 840.953 1692.28C844.824 1684.72 856.175 1691.39 852.315 1698.92C840.135 1722.68 815.135 1735.94 792.887 1748.72C768.149 1762.92 742.797 1776.07 716.944 1788.13C625.016 1831.02 526.903 1860.4 426.545 1875.17C325.856 1889.99 223.488 1890.21 122.79 1875.38C122.543 1875.34 122.341 1875.27 122.114 1875.21C136.758 1893.75 152.293 1911.22 168.642 1927.57C239.699 1967.96 312.07 2001.7 386.35 2028.34C394.03 2028.27 401.71 2028.13 409.386 2027.84Z" fill="#F79819"/>
<path d="M867.319 1883.87C861.202 1896.8 841.193 1900.18 831.489 1889.51C827.895 1885.56 826.144 1880.69 825.879 1875.7C825.26 1872.7 825.403 1869.53 826.544 1866.39C827.321 1864.24 828.413 1862.29 829.74 1860.54C831.837 1857.05 834.694 1854 838.227 1851.88C840.255 1850.66 842.567 1850.85 844.497 1851.88C844.977 1851.8 845.456 1851.69 845.947 1851.65C853.82 1850.94 861.049 1855.7 865.389 1861.93C869.848 1868.34 870.644 1876.84 867.319 1883.87V1883.87ZM922.71 1872.91C923.561 1865.34 927.803 1858.33 934.465 1854.46C938.434 1852.16 943.003 1851.33 947.43 1851.86C949.414 1850.85 951.878 1850.72 953.787 1851.88C957.003 1853.82 959.555 1856.39 961.692 1859.47C962.052 1859.99 962.281 1860.59 962.608 1861.15C965.792 1865.59 967.395 1871.1 965.988 1876.5C965.901 1877.59 965.868 1878.68 965.65 1879.75C964.134 1886.93 958.715 1892.7 951.791 1894.93C937.769 1899.43 920.955 1888.3 922.71 1872.91V1872.91ZM925.447 2010.04C933.887 1992.12 952.533 1968.28 974.242 1972.34C966.37 1960.49 963.077 1945.66 965.585 1931.5C967.722 1919.47 974.253 1909.44 983.511 1902.9C986.542 1883.37 985.8 1861.57 974.231 1844.81C964.734 1831.05 946.786 1822.14 930.278 1827.27C922.154 1829.79 918.72 1817.07 926.778 1814.56C948.335 1807.88 971.146 1818.84 984.165 1836.19C997.031 1853.32 999.419 1875.44 997.478 1896.35C999.648 1895.78 1001.87 1895.32 1004.17 1895.06C1022.31 1893.01 1042.26 1901.39 1049.76 1918.79C1053.09 1926.5 1041.74 1933.2 1038.4 1925.44C1031.14 1908.6 1008.97 1903.26 993.389 1911.85C975.365 1921.78 974.384 1947.05 983.827 1963.23C994.185 1980.97 1016.52 1986.77 1035.66 1982.33C1056.48 1977.5 1072.1 1961.3 1079.75 1941.75C1088.13 1920.32 1087.35 1896.22 1079.1 1874.88C1070.68 1853.03 1053.99 1836.7 1035.49 1823.05C1017.94 1810.12 999.419 1798.64 982.954 1784.28C966.784 1770.2 952.445 1754.08 940.004 1736.62C919.069 1707.26 904.076 1673.73 896.018 1638.59C886.76 1678.8 868.355 1716.59 842.687 1748.99C829.319 1765.87 813.931 1781.06 796.907 1794.24C779.347 1807.84 759.957 1819.06 743.191 1833.68C725.232 1849.34 712.339 1868.95 707.868 1892.6C703.785 1914.2 707.521 1937.35 719.58 1955.87C731.005 1973.42 750.09 1984.47 771.219 1983.74C791.287 1983.04 808.452 1970.63 813.05 1950.79C816.887 1934.21 810.383 1914.86 793.002 1909.47C777.926 1904.79 760.09 1910.4 753.611 1925.44C750.262 1933.2 738.924 1926.49 742.242 1918.79C750.702 1899.16 774.717 1891.2 794.525 1896.23C792.6 1875.35 795.018 1853.31 807.841 1836.19C820.847 1818.83 843.69 1807.88 865.225 1814.56C873.305 1817.08 869.837 1829.79 861.725 1827.27C845.227 1822.14 827.258 1831.04 817.775 1844.81C806.254 1861.54 805.473 1883.23 808.479 1902.72C821.891 1912.32 828.743 1929.33 827.023 1946.4C826.059 1955.99 822.721 1964.73 817.656 1972.25C843.003 1966.92 862.39 1999.41 870.688 2019.5C881.308 2045.21 888.309 2074.8 876.663 2101.38C889.443 2101.26 902.233 2101.03 915.034 2100.66C914.02 2098.35 913.126 2095.99 912.374 2093.61C903.759 2065.84 913.573 2035.29 925.447 2010.04" fill="#F79819"/>
<path d="M847.43 1872.65C847.408 1872.65 847.474 1872.58 847.485 1872.56V1872.51L847.43 1872.59C847.43 1872.62 847.43 1872.63 847.43 1872.65Z" fill="#F79819"/>
<path d="M847.277 1872.82C847.277 1872.84 847.267 1872.87 847.267 1872.88L847.43 1872.6C847.441 1872.54 847.441 1872.5 847.463 1872.43C847.387 1872.54 847.332 1872.67 847.277 1872.82" fill="#F79819"/>
<path d="M847.484 1872.39C847.473 1872.4 847.473 1872.4 847.462 1872.41C847.462 1872.42 847.462 1872.43 847.462 1872.43C847.473 1872.43 847.473 1872.42 847.484 1872.41V1872.39Z" fill="#F79819"/>
<path d="M847.485 1872.51L847.518 1872.46L847.539 1872.36C847.518 1872.38 847.507 1872.39 847.485 1872.41V1872.51Z" fill="#F79819"/>
<path d="M997.097 1525.91C1037.05 1524.65 1077.01 1526.15 1116.97 1525.54C1239.88 1523.69 1362.84 1524.67 1485.69 1528.49C1544.07 1530.3 1602.55 1532.76 1660.4 1540.79C1688.81 1544.73 1724.26 1556.78 1731.54 1589.14C1734.79 1603.55 1729.57 1618.88 1720.68 1630.69C1711.79 1642.49 1699.57 1651.31 1687.19 1659.39C1664.83 1674 1641.83 1683.06 1617.75 1689.69C1600.7 1694.38 1583.12 1697.87 1564.78 1701.2C1492.82 1714.24 1419.1 1712.38 1345.99 1710.49C1233.33 1707.57 1119.07 1704.39 1011.24 1671.64C983.827 1663.32 956.414 1652.77 934.04 1635.04C932.48 1633.81 930.954 1632.56 929.449 1631.25C927.072 1629.2 924.88 1627.12 922.809 1625.02C925.578 1628.82 928.533 1632.56 931.826 1636.25C956.676 1663.99 988.112 1679.83 1019.55 1692.14C1135.19 1737.46 1257.74 1741.86 1378.57 1745.9C1456.98 1748.52 1536.04 1751.08 1613.21 1733.04C1660.67 1721.95 1703.54 1709.72 1744.51 1675.2C1757.78 1664.01 1770.89 1651.81 1780.42 1635.47C1787.5 1623.34 1792.38 1608.52 1793.02 1593.54C1793.24 1588.33 1792.97 1583.11 1792.07 1577.96C1784.26 1533.19 1746.24 1516.51 1715.77 1511.06C1653.72 1499.95 1591.01 1496.55 1528.4 1494.05C1396.63 1488.77 1264.77 1487.4 1132.95 1489.96C1092.34 1490.74 1051.71 1488.99 1011.11 1490.27C1004.95 1503.12 997.5 1515.15 988.559 1526.04C991.459 1526.03 994.316 1525.99 997.097 1525.91" fill="#F46920"/>
<path d="M12.6891 1635.47C22.2202 1651.81 35.331 1664.01 48.6022 1675.2C89.5714 1709.72 132.432 1721.95 179.893 1733.04C257.07 1751.08 336.132 1748.52 414.538 1745.9C535.365 1741.86 657.913 1737.46 773.562 1692.14C804.999 1679.83 836.439 1663.99 861.278 1636.25C864.582 1632.56 867.526 1628.81 870.306 1625.02C868.224 1627.12 866.032 1629.2 863.666 1631.25C861.54 1633.09 859.348 1634.83 857.124 1636.53C835.109 1653.35 808.5 1663.56 781.876 1671.64C674.044 1704.39 559.777 1707.57 447.118 1710.49C374.012 1712.38 300.292 1714.24 228.332 1701.2C220.75 1699.82 213.301 1698.42 205.956 1696.91C170.442 1689.67 137.567 1680.07 105.912 1659.39C93.5393 1651.31 81.316 1642.49 72.4304 1630.69C63.5427 1618.88 58.3208 1603.55 61.5658 1589.14C68.855 1556.78 104.306 1544.73 132.708 1540.79C190.563 1532.76 249.034 1530.3 307.416 1528.49C430.28 1524.67 553.234 1523.69 676.142 1525.54C716.091 1526.15 756.065 1524.65 796.009 1525.91C798.354 1525.98 800.756 1526.02 803.183 1526.03C794.74 1515.14 787.576 1503.01 781.464 1490.25C741.041 1489 700.593 1490.74 660.165 1489.96C528.344 1487.4 396.482 1488.77 264.71 1494.05C202.096 1496.55 139.389 1499.95 77.3361 1511.06C46.875 1516.51 8.85639 1533.19 1.03939 1577.96C-1.56664 1592.91 0.921617 1608.56 6.33976 1622.34C8.15526 1626.96 10.2979 1631.37 12.6891 1635.47" fill="#F46920"/>
<path d="M228.332 1701.2C300.292 1714.24 374.012 1712.38 447.117 1710.49C559.776 1707.56 674.044 1704.39 781.876 1671.64C808.5 1663.56 835.108 1653.35 857.123 1636.53C639.199 1642.59 421.137 1664.56 205.956 1696.91C213.301 1698.42 220.749 1699.82 228.332 1701.2" fill="#6B2016"/>
<path d="M890.162 1572.93C883.947 1572.72 877.754 1572.02 871.648 1570.75C842.36 1564.72 820.188 1547.94 803.183 1526.03C800.756 1526.01 798.354 1525.98 796.01 1525.91C756.065 1524.65 716.092 1526.15 676.142 1525.54C553.234 1523.69 430.28 1524.67 307.416 1528.49C249.034 1530.3 190.563 1532.76 132.708 1540.79C104.306 1544.73 68.8551 1556.77 61.5658 1589.14C58.3208 1603.55 63.5427 1618.88 72.4305 1630.69C81.3161 1642.49 93.5393 1651.31 105.912 1659.39C137.567 1680.07 170.442 1689.67 205.956 1696.91C421.137 1664.56 639.199 1642.59 857.124 1636.53C859.348 1634.82 861.54 1633.09 863.666 1631.25C866.032 1629.2 868.224 1627.12 870.306 1625.02C879.793 1615.48 886.324 1605.47 890.642 1594.86C890.457 1587.56 890.261 1580.24 890.162 1572.93Z" fill="#A03B1E"/>
<path d="M903.334 1572.64C903.432 1581.13 903.65 1589.64 903.901 1598.13C908.197 1607.53 914.292 1616.47 922.808 1625.02C924.88 1627.12 927.072 1629.2 929.449 1631.25C930.954 1632.56 932.48 1633.81 934.039 1635.04C1163.68 1632.69 1392.76 1648.75 1617.75 1689.69C1641.83 1683.06 1664.83 1674 1687.19 1659.39C1699.57 1651.31 1711.79 1642.49 1720.68 1630.69C1729.57 1618.88 1734.79 1603.55 1731.54 1589.14C1724.26 1556.77 1688.81 1544.73 1660.4 1540.79C1602.55 1532.76 1544.07 1530.3 1485.69 1528.49C1362.83 1524.67 1239.88 1523.69 1116.97 1525.54C1077.01 1526.15 1037.05 1524.65 997.097 1525.91C994.316 1525.99 991.459 1526.03 988.559 1526.04C982.758 1533.09 976.357 1539.69 969.292 1545.71C952.183 1560.28 930.637 1569.37 908.35 1572.12C907.739 1572.19 907.14 1572.25 906.529 1572.32C905.46 1572.43 904.403 1572.56 903.334 1572.64" fill="#A03B1E"/>
<path d="M934.04 1635.04C956.415 1652.77 983.827 1663.32 1011.24 1671.64C1119.07 1704.39 1233.33 1707.56 1345.99 1710.49C1419.1 1712.38 1492.82 1714.24 1564.78 1701.2C1583.12 1697.87 1600.7 1694.38 1617.75 1689.69C1392.76 1648.75 1163.68 1632.69 934.04 1635.04" fill="#6B2016"/>
<path d="M871.648 1570.75C877.754 1572.02 883.947 1572.72 890.162 1572.93C890.162 1572.9 890.162 1572.86 890.162 1572.83C885.768 1572.63 881.385 1572.26 877.078 1571.5C841.356 1565.15 819.079 1541.35 804.649 1514.11C793.183 1492.46 788.339 1466.1 788.209 1440.09C788.116 1421.63 790.381 1403.36 794.426 1387.09C809.95 1324.62 853.972 1269.84 905.733 1224.12C940.604 1262.3 971.56 1303.86 989.497 1349.93C996.966 1369.11 1002.46 1391.61 1004.6 1414.94C1009.34 1466.69 997.5 1522.42 953.732 1554.55C940.931 1563.94 924.967 1569.96 908.35 1572.12C930.638 1569.37 952.184 1560.28 969.292 1545.71C976.358 1539.69 982.758 1533.09 988.559 1526.04C997.5 1515.15 1004.95 1503.12 1011.11 1490.27C1032.51 1445.71 1038.17 1391.18 1034.07 1339.32C1031.36 1304.85 1024.36 1271.57 1014.84 1243.22C991.994 1175.12 952.565 1113.68 908.154 1057.24C842.218 1124.83 786.152 1205.81 766.382 1298.15C761.231 1322.2 758.344 1349.22 758.464 1376.51C758.629 1414.95 764.801 1453.93 779.403 1485.92C780.067 1487.37 780.773 1488.81 781.464 1490.25C787.576 1503.01 794.74 1515.14 803.183 1526.03C820.188 1547.94 842.36 1564.72 871.648 1570.75" fill="#FCD268"/>
<path d="M903.334 1572.55C903.334 1572.59 903.334 1572.62 903.334 1572.64C904.403 1572.56 905.46 1572.43 906.529 1572.32C905.46 1572.44 904.392 1572.47 903.334 1572.55Z" fill="#FCD268"/>
<path d="M868.431 1554.03C845.838 1525.6 835.894 1491.5 838.696 1458.32C842.272 1415.98 865.694 1375.38 900.368 1342.44C922.46 1370.66 940.102 1401.22 948.694 1433.52C957.276 1465.81 956.523 1499.94 942.839 1531.17C936.744 1545.06 926.832 1560.53 910.585 1568.99C908.023 1570.32 905.613 1571.29 903.323 1571.95C903.323 1572.15 903.323 1572.36 903.334 1572.55C904.392 1572.47 905.461 1572.44 906.529 1572.32C907.14 1572.25 907.739 1572.19 908.35 1572.12C924.968 1569.96 940.931 1563.94 953.732 1554.55C997.5 1522.42 1009.34 1466.69 1004.6 1414.94C1002.46 1391.61 996.966 1369.11 989.497 1349.93C971.56 1303.86 940.604 1262.3 905.733 1224.12C853.972 1269.84 809.95 1324.62 794.426 1387.09C790.381 1403.36 788.116 1421.63 788.209 1440.09C788.339 1466.1 793.183 1492.46 804.649 1514.11C819.079 1541.35 841.356 1565.15 877.078 1571.49C881.385 1572.26 885.768 1572.63 890.162 1572.83C890.162 1572.61 890.162 1572.39 890.162 1572.17C881.45 1569.72 874.842 1562.1 868.431 1554.03" fill="#FABB48"/>
<path d="M891.068 1610.77C891.068 1610.85 891.089 1610.9 891.089 1610.98C892.67 1610.62 894.448 1610.91 896.007 1611.74C898.744 1610.29 902.211 1610.46 903.934 1612.98C904.13 1612.32 904.261 1611.6 904.229 1610.77C904.065 1606.56 904.021 1602.35 903.902 1598.13C903.651 1589.64 903.433 1581.13 903.334 1572.64C903.334 1572.62 903.334 1572.59 903.334 1572.55C903.324 1572.36 903.324 1572.15 903.324 1571.95C898.384 1573.37 894.066 1573.27 890.163 1572.17C890.163 1572.39 890.163 1572.61 890.163 1572.83C890.163 1572.86 890.163 1572.9 890.163 1572.93C890.261 1580.24 890.457 1587.56 890.642 1594.86C890.784 1600.16 890.86 1605.46 891.068 1610.77" fill="#6B2016"/>
<path d="M426.545 1875.17C526.902 1860.4 625.015 1831.02 716.944 1788.13C742.797 1776.07 768.149 1762.92 792.886 1748.72C815.135 1735.94 840.135 1722.68 852.315 1698.92C856.175 1691.39 844.824 1684.72 840.953 1692.28C830.166 1713.3 807.947 1724.81 788.274 1736.18C767.291 1748.29 745.865 1759.65 724.063 1770.22C679.205 1791.97 632.74 1810.33 585.188 1825.29C490.639 1855.05 391.943 1871.3 292.836 1873.17C237.16 1874.23 181.386 1870.8 126.291 1862.68C121.355 1861.95 118.116 1866.16 118.049 1869.93C118.007 1872.31 119.24 1874.5 122.114 1875.21C122.341 1875.27 122.542 1875.34 122.79 1875.38C223.487 1890.21 325.855 1889.99 426.545 1875.17" fill="#F8C14A"/>
<path d="M699.529 1976.38C707.304 1973.09 700.6 1961.75 692.882 1965.01C603.243 2002.93 506.638 2024.27 409.386 2027.84C401.709 2028.13 394.03 2028.27 386.35 2028.34C366.493 2028.49 346.633 2027.92 326.808 2026.63C318.349 2026.09 318.384 2039.26 326.808 2039.81C358.372 2041.86 390.048 2042.03 421.631 2040.41C488.981 2036.95 555.905 2025.21 620.375 2005.36C647.255 1997.08 673.627 1987.34 699.529 1976.38Z" fill="#F8C14A"/>
<path d="M766.852 2017.14C751.812 2046.1 732.624 2072.63 710.206 2096.1C692.893 2114.23 673.704 2130.57 652.704 2144.53C645.678 2149.19 652.262 2160.6 659.346 2155.89C684.405 2139.25 707.234 2119.51 727.261 2097.26C747.221 2075.08 764.399 2050.4 778.22 2023.79C782.12 2016.28 770.762 2009.61 766.852 2017.14Z" fill="#F8C14A"/>
<path d="M180.241 1900.87L178.911 1899.84C177.882 1899.24 176.775 1898.95 175.588 1898.94C175.003 1899.02 174.421 1899.1 173.837 1899.18C172.722 1899.49 171.755 1900.05 170.931 1900.87C170.259 1901.54 169.588 1902.22 168.916 1902.89C168.276 1903.49 167.821 1904.18 167.556 1905C167.144 1905.79 166.952 1906.64 166.987 1907.54C166.952 1908.45 167.144 1909.3 167.556 1910.08C167.821 1910.89 168.276 1911.6 168.916 1912.2L170.248 1913.22C171.274 1913.82 172.381 1914.12 173.572 1914.13C174.153 1914.05 174.739 1913.96 175.32 1913.89C176.435 1913.57 177.405 1913.02 178.226 1912.2C178.897 1911.52 179.569 1910.85 180.241 1910.18C180.884 1909.58 181.339 1908.87 181.604 1908.07C182.016 1907.28 182.204 1906.43 182.17 1905.52C182.204 1904.62 182.016 1903.77 181.604 1902.98C181.339 1902.18 180.884 1901.47 180.241 1900.87Z" fill="#F8C14A"/>
<path d="M226.009 1900.96C217.537 1900.96 217.524 1914.13 226.009 1914.13C234.482 1914.13 234.495 1900.96 226.009 1900.96Z" fill="#F8C14A"/>
<path d="M287.136 1902.89L285.802 1901.86C284.777 1901.26 283.669 1900.97 282.482 1900.96C281.807 1900.96 281.136 1900.96 280.464 1900.96C279.557 1900.92 278.714 1901.11 277.926 1901.52C277.111 1901.8 276.405 1902.24 275.81 1902.89C275.167 1903.49 274.713 1904.18 274.447 1905C274.036 1905.79 273.846 1906.64 273.881 1907.54C273.962 1908.13 274.038 1908.71 274.118 1909.29C274.428 1910.41 274.994 1911.37 275.81 1912.2L277.141 1913.22C278.168 1913.82 279.276 1914.12 280.464 1914.13C281.136 1914.13 281.807 1914.13 282.482 1914.13C283.388 1914.16 284.232 1913.96 285.016 1913.56C285.834 1913.29 286.542 1912.84 287.136 1912.2C287.778 1911.6 288.231 1910.89 288.497 1910.08C288.911 1909.3 289.099 1908.45 289.064 1907.54C288.985 1906.96 288.908 1906.38 288.827 1905.79C288.517 1904.67 287.951 1903.7 287.136 1902.89" fill="#F8C14A"/>
<path d="M362.69 1900.39C362.103 1899.4 361.316 1898.61 360.328 1898.02C358.984 1897.35 357.64 1896.67 356.296 1896.01C355.541 1895.52 354.726 1895.26 353.849 1895.22C352.975 1895.02 352.099 1895.06 351.226 1895.34C350.367 1895.54 349.621 1895.93 348.986 1896.51C348.268 1896.98 347.703 1897.6 347.291 1898.36C347.068 1898.88 346.848 1899.41 346.626 1899.93C346.313 1901.1 346.313 1902.26 346.626 1903.43C346.848 1903.95 347.068 1904.48 347.291 1905C347.876 1905.99 348.662 1906.78 349.653 1907.37C350.997 1908.04 352.338 1908.72 353.682 1909.4C354.437 1909.88 355.255 1910.14 356.128 1910.17C357.006 1910.37 357.879 1910.33 358.755 1910.05C359.611 1909.85 360.358 1909.46 360.992 1908.87C361.709 1908.41 362.276 1907.79 362.69 1907.03C362.91 1906.51 363.13 1905.98 363.354 1905.46C363.667 1904.29 363.667 1903.13 363.354 1901.96C363.13 1901.44 362.91 1900.91 362.69 1900.39" fill="#F8C14A"/>
<path d="M431.73 1893.96C440.201 1893.96 440.214 1880.8 431.73 1880.8C423.257 1880.8 423.244 1893.96 431.73 1893.96Z" fill="#F8C14A"/>
<path d="M503.714 1879.92L505.047 1880.96C506.075 1881.56 507.18 1881.85 508.37 1881.85C509.042 1881.85 509.715 1881.85 510.386 1881.85C511.292 1881.88 512.139 1881.7 512.923 1881.29C513.738 1881.02 514.445 1880.57 515.039 1879.92C515.682 1879.33 516.137 1878.62 516.402 1877.81C516.814 1877.02 517.003 1876.18 516.968 1875.27C516.892 1874.69 516.811 1874.1 516.735 1873.52C516.422 1872.41 515.857 1871.44 515.039 1870.62L513.71 1869.59C512.681 1869 511.574 1868.69 510.386 1868.69C509.715 1868.69 509.042 1868.69 508.37 1868.69C507.464 1868.66 506.617 1868.84 505.834 1869.26C505.018 1869.52 504.311 1869.98 503.714 1870.62C503.073 1871.21 502.62 1871.92 502.355 1872.74C501.942 1873.52 501.754 1874.36 501.788 1875.27C501.865 1875.86 501.945 1876.44 502.022 1877.02C502.335 1878.13 502.899 1879.1 503.714 1879.92Z" fill="#F8C14A"/>
<path d="M586.407 1863.8L587.737 1864.82C588.766 1865.42 589.873 1865.71 591.061 1865.71C591.645 1865.64 592.226 1865.56 592.811 1865.49C593.926 1865.17 594.894 1864.61 595.715 1863.8C596.387 1863.12 597.061 1862.44 597.733 1861.78C598.373 1861.18 598.828 1860.47 599.093 1859.66C599.505 1858.87 599.693 1858.03 599.662 1857.12C599.693 1856.22 599.505 1855.37 599.093 1854.58C598.828 1853.76 598.373 1853.07 597.733 1852.47L596.399 1851.44C595.374 1850.84 594.267 1850.54 593.077 1850.54C592.495 1850.61 591.91 1850.7 591.326 1850.78C590.214 1851.08 589.244 1851.65 588.423 1852.47C587.751 1853.14 587.079 1853.81 586.407 1854.48C585.765 1855.08 585.31 1855.78 585.044 1856.6C584.632 1857.38 584.444 1858.23 584.479 1859.14C584.444 1860.04 584.632 1860.9 585.044 1861.67C585.31 1862.49 585.765 1863.2 586.407 1863.8" fill="#F8C14A"/>
<path d="M667.08 1833.54L668.412 1834.57C669.442 1835.16 670.545 1835.47 671.736 1835.47C673.08 1835.47 674.424 1835.47 675.768 1835.47C676.676 1835.5 677.521 1835.31 678.305 1834.9C679.121 1834.64 679.827 1834.18 680.424 1833.54C681.065 1832.95 681.519 1832.24 681.784 1831.42C682.196 1830.64 682.387 1829.79 682.353 1828.88C682.272 1828.3 682.196 1827.71 682.116 1827.14C681.803 1826.02 681.24 1825.05 680.424 1824.23L679.091 1823.2C678.066 1822.6 676.958 1822.31 675.768 1822.31C674.424 1822.31 673.08 1822.31 671.736 1822.31C670.83 1822.27 669.984 1822.46 669.199 1822.87C668.384 1823.14 667.678 1823.59 667.08 1824.23C666.44 1824.83 665.985 1825.53 665.72 1826.35C665.308 1827.14 665.119 1827.98 665.153 1828.88C665.231 1829.47 665.311 1830.05 665.388 1830.64C665.701 1831.75 666.264 1832.72 667.08 1833.54" fill="#F8C14A"/>
<path d="M402.096 2056.16L400.764 2055.14C399.738 2054.55 398.631 2054.24 397.442 2054.24C396.769 2054.24 396.096 2054.24 395.424 2054.24C394.519 2054.21 393.674 2054.4 392.888 2054.81C392.072 2055.07 391.366 2055.53 390.772 2056.16C390.128 2056.76 389.674 2057.47 389.409 2058.29C388.996 2059.07 388.809 2059.91 388.843 2060.83C388.919 2061.41 389 2061.98 389.076 2062.57C389.39 2063.69 389.955 2064.66 390.772 2065.47L392.101 2066.51C393.13 2067.1 394.237 2067.4 395.424 2067.4C396.096 2067.4 396.769 2067.4 397.442 2067.4C398.35 2067.44 399.194 2067.25 399.978 2066.84C400.796 2066.58 401.499 2066.12 402.096 2065.47C402.74 2064.89 403.191 2064.18 403.456 2063.36C403.868 2062.57 404.06 2061.73 404.025 2060.83C403.947 2060.24 403.868 2059.66 403.79 2059.07C403.476 2057.96 402.912 2056.99 402.096 2056.16" fill="#F8C14A"/>
<path d="M456.688 2052.28L455.354 2051.26C454.329 2050.66 453.221 2050.36 452.034 2050.35C451.45 2050.44 450.865 2050.51 450.284 2050.59C449.169 2050.91 448.199 2051.46 447.378 2052.28C446.679 2052.92 445.98 2053.57 445.282 2054.21C444.639 2054.81 444.184 2055.52 443.919 2056.33C443.507 2057.11 443.32 2057.96 443.353 2058.87C443.32 2059.77 443.507 2060.62 443.919 2061.41C444.184 2062.21 444.639 2062.92 445.282 2063.52L446.612 2064.55C447.641 2065.15 448.748 2065.44 449.935 2065.45C450.52 2065.38 451.102 2065.29 451.686 2065.21C452.802 2064.9 453.769 2064.34 454.592 2063.52C455.29 2062.88 455.989 2062.24 456.688 2061.59C457.331 2060.99 457.783 2060.3 458.048 2059.48C458.463 2058.69 458.651 2057.84 458.616 2056.94C458.651 2056.03 458.463 2055.18 458.048 2054.41C457.783 2053.59 457.331 2052.88 456.688 2052.28Z" fill="#F8C14A"/>
<path d="M520.769 2043.74L519.437 2042.72C518.407 2042.12 517.303 2041.82 516.113 2041.81C515.531 2041.89 514.946 2041.98 514.362 2042.05C513.25 2042.37 512.279 2042.93 511.459 2043.74C510.113 2045.08 508.765 2046.44 507.422 2047.77C506.779 2048.37 506.325 2049.07 506.06 2049.89C505.647 2050.68 505.459 2051.53 505.493 2052.43C505.459 2053.34 505.647 2054.18 506.06 2054.96C506.325 2055.78 506.779 2056.49 507.422 2057.08L508.753 2058.11C509.78 2058.7 510.889 2059.01 512.075 2059.01C512.66 2058.93 513.242 2058.86 513.825 2058.78C514.941 2058.46 515.908 2057.9 516.729 2057.08C518.076 2055.74 519.422 2054.4 520.769 2053.05C521.409 2052.46 521.864 2051.75 522.129 2050.94C522.541 2050.15 522.729 2049.3 522.696 2048.4C522.729 2047.49 522.541 2046.64 522.129 2045.86C521.864 2045.05 521.409 2044.34 520.769 2043.74" fill="#F8C14A"/>
<path d="M585.631 2027.93L584.298 2026.91C583.272 2026.31 582.166 2026.01 580.975 2026C580.303 2026 579.632 2026 578.959 2026C578.053 2025.97 577.209 2026.17 576.421 2026.57C575.607 2026.84 574.901 2027.29 574.306 2027.93C573.663 2028.53 573.208 2029.24 572.943 2030.05C572.531 2030.83 572.342 2031.68 572.377 2032.59C572.455 2033.17 572.534 2033.75 572.61 2034.33C572.925 2035.46 573.49 2036.43 574.306 2037.24L575.636 2038.27C576.665 2038.87 577.771 2039.16 578.959 2039.17C579.632 2039.17 580.303 2039.17 580.975 2039.17C581.883 2039.21 582.728 2039.02 583.512 2038.61C584.33 2038.33 585.034 2037.89 585.631 2037.24C586.274 2036.64 586.726 2035.95 586.992 2035.12C587.403 2034.34 587.594 2033.49 587.56 2032.59C587.481 2032 587.403 2031.42 587.323 2030.84C587.01 2029.72 586.448 2028.75 585.631 2027.93" fill="#F8C14A"/>
<path d="M656.22 2007.76C655.626 2007.13 654.918 2006.67 654.103 2006.41C653.318 2005.99 652.473 2005.8 651.567 2005.83C650.982 2005.92 650.401 2005.99 649.817 2006.07C648.701 2006.39 647.734 2006.95 646.911 2007.76L645.882 2009.1C645.287 2010.13 644.987 2011.23 644.985 2012.42C644.985 2013.09 644.985 2013.77 644.985 2014.43C644.95 2015.34 645.139 2016.19 645.551 2016.97C645.817 2017.79 646.271 2018.5 646.911 2019.09C647.508 2019.73 648.215 2020.19 649.03 2020.45C649.813 2020.87 650.661 2021.05 651.567 2021.02C652.148 2020.94 652.733 2020.87 653.318 2020.78C654.43 2020.47 655.4 2019.91 656.22 2019.09L657.251 2017.76C657.846 2016.73 658.146 2015.62 658.148 2014.43C658.148 2013.77 658.148 2013.09 658.148 2012.42C658.184 2011.51 657.996 2010.67 657.583 2009.89C657.317 2009.07 656.864 2008.36 656.22 2007.76" fill="#F8C14A"/>
<path d="M699.971 2002.86C708.442 2002.86 708.458 1989.7 699.971 1989.7C691.5 1989.7 691.485 2002.86 699.971 2002.86Z" fill="#F8C14A"/>
<path d="M720.76 2142.89L719.428 2141.87C718.402 2141.27 717.295 2140.97 716.106 2140.96C715.433 2140.96 714.761 2140.96 714.089 2140.96C713.183 2140.93 712.339 2141.13 711.552 2141.53C710.738 2141.8 710.03 2142.25 709.436 2142.89C708.792 2143.49 708.339 2144.2 708.073 2145.02C707.662 2145.79 707.473 2146.64 707.507 2147.55C707.584 2148.14 707.664 2148.71 707.741 2149.3C708.054 2150.42 708.618 2151.39 709.436 2152.2L710.766 2153.23C711.794 2153.83 712.901 2154.12 714.089 2154.13C714.761 2154.13 715.433 2154.13 716.106 2154.13C717.014 2154.17 717.858 2153.98 718.642 2153.57C719.457 2153.29 720.164 2152.85 720.76 2152.2C721.402 2151.6 721.855 2150.91 722.121 2150.09C722.532 2149.3 722.722 2148.45 722.689 2147.55C722.611 2146.97 722.532 2146.38 722.454 2145.8C722.141 2144.68 721.576 2143.71 720.76 2142.89" fill="#F8C14A"/>
<path d="M756.442 2096.59C754.322 2096.59 752.733 2097.42 751.672 2098.65C748.499 2102.36 750.083 2109.77 756.442 2109.77C762.532 2109.77 764.178 2103.01 761.513 2099.18C760.47 2097.68 758.829 2096.59 756.442 2096.59" fill="#F8C14A"/>
<path d="M794.764 2055.3C803.234 2055.3 803.248 2042.14 794.764 2042.14C786.293 2042.14 786.276 2055.3 794.764 2055.3Z" fill="#F8C14A"/>
<path d="M298.51 1843.27C212.379 1831.75 129.925 1797.94 60.0537 1746.37C53.229 1741.34 46.655 1752.76 53.4067 1757.74C125.298 1810.79 210.02 1844.59 298.51 1856.44C306.88 1857.56 306.798 1844.39 298.51 1843.27Z" fill="#F8C14A"/>
<path d="M847.517 1872.46L847.485 1872.51V1872.56C847.474 1872.58 847.408 1872.65 847.43 1872.65C847.43 1872.63 847.43 1872.62 847.43 1872.59L847.267 1872.88C847.267 1872.87 847.277 1872.83 847.277 1872.82C847.332 1872.67 847.386 1872.54 847.463 1872.43C847.463 1872.43 847.463 1872.42 847.463 1872.41C847.474 1872.4 847.474 1872.4 847.485 1872.39V1872.41C847.506 1872.39 847.517 1872.38 847.539 1872.35L847.517 1872.46ZM847.474 1872.65C847.452 1872.76 847.419 1872.79 847.386 1872.83C847.397 1872.79 847.408 1872.71 847.419 1872.66C847.43 1872.65 847.463 1872.63 847.474 1872.62V1872.65ZM845.947 1851.65C845.456 1851.69 844.977 1851.8 844.497 1851.88C842.567 1850.85 840.255 1850.66 838.227 1851.88C834.694 1854 831.838 1857.05 829.74 1860.54C828.413 1862.29 827.321 1864.24 826.544 1866.39C825.403 1869.53 825.26 1872.7 825.88 1875.7C826.145 1880.69 827.895 1885.56 831.489 1889.51C841.193 1900.18 861.202 1896.8 867.319 1883.87C870.644 1876.84 869.848 1868.34 865.389 1861.93C861.049 1855.7 853.82 1850.94 845.947 1851.65" fill="#F8C14A"/>
<path d="M847.463 1872.43C847.441 1872.5 847.441 1872.54 847.43 1872.6L847.485 1872.51V1872.41C847.474 1872.42 847.474 1872.43 847.463 1872.43Z" fill="#F8C14A"/>
<path d="M896.007 1611.74C894.448 1610.91 892.67 1610.62 891.089 1610.98C889.148 1611.43 887.524 1612.86 887.109 1615.58C879.629 1664.59 858.41 1711.14 825.932 1748.67C809.487 1767.68 790.486 1783.36 769.877 1797.62C749.029 1812.05 727.591 1826.47 712.753 1847.48C684.402 1887.62 685.497 1950.96 726.522 1982.51C744.146 1996.06 768.952 2000.98 790.15 1993.5C796.331 1991.32 801.818 1988.09 806.663 1984.2C808.321 1987.04 811.848 1988.89 815.581 1986.87C826.729 1980.83 839.067 1991.63 845.467 1999.99C852.795 2009.55 857.593 2021.19 861.671 2032.44C869.729 2054.62 874.188 2080.19 861.823 2101.51C861.463 2102.14 861.136 2102.78 860.744 2103.4C850.592 2119.38 824.484 2132.04 809.365 2114.38C806.359 2110.87 804.635 2105.73 804.724 2100.76C804.812 2095.87 806.657 2091.15 810.807 2088.32C817.251 2083.92 828.084 2086.6 830.488 2094.3C833.004 2102.37 845.707 2098.93 843.178 2090.8C836.701 2070.02 807.024 2067.13 795.882 2085.54C792.926 2090.42 791.587 2095.46 791.443 2100.38C790.951 2117.21 805.171 2132.61 822.752 2135.26C846.514 2138.86 867.395 2122.44 876.609 2101.52C876.631 2101.47 876.642 2101.42 876.663 2101.38C888.309 2074.8 881.309 2045.21 870.688 2019.5C862.39 1999.41 843.003 1966.92 817.656 1972.25C822.721 1964.73 826.06 1955.99 827.023 1946.4C828.743 1929.33 821.891 1912.32 808.479 1902.72C805.473 1883.23 806.254 1861.54 817.775 1844.81C827.258 1831.04 845.228 1822.14 861.725 1827.27C869.838 1829.79 873.305 1817.08 865.225 1814.56C843.69 1807.88 820.848 1818.83 807.841 1836.19C795.018 1853.31 792.6 1875.35 794.526 1896.23C774.717 1891.2 750.702 1899.16 742.242 1918.8C738.924 1926.49 750.262 1933.2 753.611 1925.44C760.09 1910.4 777.927 1904.79 793.002 1909.47C810.383 1914.86 816.887 1934.21 813.05 1950.79C808.452 1970.63 791.287 1983.04 771.219 1983.74C750.09 1984.47 731.005 1973.42 719.58 1955.87C707.521 1937.35 703.785 1914.2 707.868 1892.6C712.34 1868.95 725.232 1849.34 743.191 1833.68C759.957 1819.06 779.347 1807.84 796.907 1794.24C813.931 1781.06 829.319 1765.87 842.687 1748.99C868.355 1716.59 886.76 1678.8 896.018 1638.59C904.076 1673.73 919.069 1707.26 940.004 1736.62C952.446 1754.08 966.784 1770.2 982.955 1784.28C999.419 1798.65 1017.95 1810.12 1035.49 1823.05C1053.99 1836.7 1070.68 1853.03 1079.11 1874.89C1087.35 1896.22 1088.13 1920.32 1079.75 1941.75C1072.1 1961.3 1056.48 1977.5 1035.66 1982.33C1016.52 1986.77 994.186 1980.97 983.827 1963.23C974.384 1947.05 975.365 1921.78 993.39 1911.85C1008.97 1903.26 1031.14 1908.6 1038.4 1925.44C1041.74 1933.2 1053.09 1926.5 1049.76 1918.8C1042.26 1901.39 1022.31 1893.01 1004.17 1895.06C1001.87 1895.32 999.648 1895.78 997.479 1896.35C999.419 1875.44 997.032 1853.32 984.165 1836.19C971.146 1818.84 948.335 1807.88 926.778 1814.56C918.72 1817.07 922.155 1829.79 930.278 1827.27C946.786 1822.14 964.734 1831.05 974.231 1844.81C985.8 1861.57 986.542 1883.37 983.511 1902.9C974.253 1909.44 967.722 1919.47 965.585 1931.5C963.077 1945.66 966.37 1960.49 974.242 1972.34C952.533 1968.28 933.887 1992.12 925.448 2010.04C913.573 2035.29 903.76 2065.85 912.374 2093.61C913.126 2095.99 914.02 2098.35 915.034 2100.66C923.169 2119.32 939.71 2134.78 960.842 2135.77C983.053 2136.81 1003.67 2119.11 999.932 2096.32C999.79 2095.43 999.681 2094.53 999.452 2093.63C993.39 2068.91 956.687 2065.61 948.825 2090.8C946.296 2098.92 959.01 2102.38 961.518 2094.3C963.927 2086.6 974.755 2083.92 981.199 2088.32C984.35 2090.48 986.182 2093.72 986.913 2097.29C988.134 2103.2 986.357 2110.04 982.638 2114.38C967.526 2132.04 941.422 2119.38 931.27 2103.4C930.605 2102.35 930.027 2101.28 929.438 2100.21C917.989 2079.16 922.449 2054.17 930.332 2032.44C934.41 2021.19 939.219 2009.55 946.547 1999.99C952.947 1991.63 965.279 1980.83 976.423 1986.87C980.076 1988.84 983.522 1987.12 985.223 1984.37C985.713 1984.75 986.128 1985.21 986.629 1985.57C1005.05 1999.12 1030.51 1999.94 1051.06 1991.03C1098.88 1970.32 1108.31 1907.83 1088.93 1864.48C1078.39 1840.91 1059.12 1823.87 1038.55 1809.07C1017.69 1794.08 996.53 1780.25 978.331 1761.91C939.088 1722.34 913.301 1670.62 904.894 1615.58C904.741 1614.53 904.403 1613.67 903.934 1612.98C902.211 1610.45 898.744 1610.29 896.007 1611.74" fill="#F8C14A"/>
<path d="M1665.72 1862.68C1567.57 1877.14 1467.11 1876.91 1368.96 1862.48C1270.96 1848.06 1174.83 1819.83 1084.91 1778.24C1060.07 1766.76 1035.7 1754.29 1011.88 1740.83C989.846 1728.38 963.131 1715.81 951.061 1692.28C947.19 1684.73 935.828 1691.38 939.688 1698.92C950.472 1719.95 971.288 1732.44 991.013 1744.01C1012.58 1756.67 1034.63 1768.52 1057.09 1779.53C1102.85 1801.98 1150.3 1821.06 1198.85 1836.58C1295.44 1867.45 1396.62 1884.27 1498 1886.32C1555.28 1887.47 1612.55 1883.73 1669.22 1875.38C1677.57 1874.14 1674.02 1861.46 1665.72 1862.68" fill="#F8C14A"/>
<path d="M1465.2 2039.81C1473.61 2039.26 1473.67 2026.09 1465.2 2026.63C1432.48 2028.76 1399.67 2028.85 1366.99 2026.99C1302.82 2023.36 1239.14 2012.15 1177.52 1993.4C1150.93 1985.31 1124.74 1975.84 1099.12 1965.01C1091.42 1961.75 1084.7 1973.09 1092.48 1976.38C1169.02 2008.75 1250.15 2029.45 1332.76 2037.59C1348.51 2039.14 1364.3 2040.29 1380.12 2040.92C1408.48 2042.05 1436.88 2041.65 1465.2 2039.81" fill="#F8C14A"/>
<path d="M1132.67 2155.89C1139.74 2160.6 1146.34 2149.19 1139.31 2144.53C1115.63 2128.8 1094.14 2110.15 1075.2 2089.18C1055.59 2067.46 1038.72 2043.26 1025.15 2017.14C1021.25 2009.62 1009.89 2016.28 1013.79 2023.79C1026.32 2047.92 1041.64 2070.44 1059.26 2090.97C1080.58 2115.8 1105.27 2137.7 1132.67 2155.89Z" fill="#F8C14A"/>
<path d="M1620.97 1913.56C1621.79 1913.29 1622.5 1912.84 1623.09 1912.2L1624.12 1910.87C1624.56 1910.12 1624.78 1909.3 1624.9 1908.46C1624.94 1908.15 1625.02 1907.86 1625.02 1907.54C1624.94 1906.96 1624.87 1906.38 1624.79 1905.79C1624.47 1904.67 1623.91 1903.7 1623.09 1902.89C1622.42 1902.22 1621.75 1901.55 1621.07 1900.87C1620.48 1900.23 1619.77 1899.78 1618.96 1899.51C1618.17 1899.1 1617.33 1898.91 1616.43 1898.94C1615.51 1898.91 1614.67 1899.1 1613.89 1899.51C1613.07 1899.78 1612.36 1900.23 1611.77 1900.87L1610.73 1902.2C1610.15 1903.24 1609.84 1904.34 1609.84 1905.53C1609.92 1906.11 1609.99 1906.69 1610.08 1907.28C1610.39 1908.39 1610.95 1909.36 1611.77 1910.18C1612.44 1910.85 1613.11 1911.52 1613.79 1912.2C1614.38 1912.84 1615.09 1913.29 1615.9 1913.56C1616.06 1913.64 1616.22 1913.67 1616.38 1913.74C1617.03 1914 1617.71 1914.15 1618.44 1914.13C1619.35 1914.16 1620.19 1913.96 1620.97 1913.56" fill="#F8C14A"/>
<path d="M1566 1900.96C1557.53 1900.96 1557.51 1914.13 1566 1914.13C1574.47 1914.13 1574.49 1900.96 1566 1900.96Z" fill="#F8C14A"/>
<path d="M1516.2 1902.89L1514.87 1901.86C1513.84 1901.26 1512.73 1900.97 1511.54 1900.96C1510.88 1900.96 1510.2 1900.96 1509.53 1900.96C1508.62 1900.92 1507.78 1901.11 1507 1901.52C1506.18 1901.8 1505.47 1902.24 1504.87 1902.89C1504.23 1903.49 1503.78 1904.18 1503.52 1905C1503.1 1905.79 1502.91 1906.64 1502.95 1907.54C1503.03 1908.13 1503.1 1908.71 1503.18 1909.29C1503.5 1910.41 1504.06 1911.37 1504.87 1912.2L1506.21 1913.22C1507.24 1913.82 1508.34 1914.12 1509.53 1914.13C1510.2 1914.13 1510.88 1914.13 1511.54 1914.13C1512.45 1914.16 1513.3 1913.96 1514.08 1913.56C1514.9 1913.29 1515.61 1912.84 1516.2 1912.2C1516.84 1911.6 1517.3 1910.89 1517.56 1910.08C1517.98 1909.3 1518.16 1908.45 1518.13 1907.54C1518.05 1906.96 1517.98 1906.38 1517.9 1905.79C1517.58 1904.67 1517.02 1903.7 1516.2 1902.89" fill="#F8C14A"/>
<path d="M1444.71 1898.36L1443.69 1897.03C1442.87 1896.21 1441.9 1895.65 1440.79 1895.34C1440.2 1895.25 1439.62 1895.18 1439.03 1895.1C1437.84 1895.1 1436.74 1895.41 1435.72 1896.01C1434.36 1896.67 1433.02 1897.35 1431.68 1898.02C1430.92 1898.44 1430.3 1899 1429.84 1899.72C1429.25 1900.36 1428.86 1901.1 1428.66 1901.96C1428.38 1902.83 1428.35 1903.7 1428.54 1904.59C1428.57 1905.46 1428.84 1906.28 1429.32 1907.03L1430.35 1908.36C1431.17 1909.18 1432.14 1909.74 1433.25 1910.05C1433.84 1910.14 1434.42 1910.21 1435.01 1910.29C1436.2 1910.29 1437.3 1909.98 1438.32 1909.4C1439.67 1908.72 1441.02 1908.04 1442.36 1907.37C1443.12 1906.95 1443.74 1906.39 1444.2 1905.67C1444.79 1905.03 1445.18 1904.29 1445.38 1903.43C1445.66 1902.56 1445.69 1901.69 1445.5 1900.8C1445.46 1899.93 1445.2 1899.11 1444.71 1898.36Z" fill="#F8C14A"/>
<path d="M1360.28 1880.8C1351.81 1880.8 1351.79 1893.96 1360.28 1893.96C1368.76 1893.96 1368.77 1880.8 1360.28 1880.8Z" fill="#F8C14A"/>
<path d="M1288.3 1870.62L1286.97 1869.59C1285.94 1869 1284.83 1868.69 1283.64 1868.69C1282.96 1868.69 1282.3 1868.69 1281.62 1868.69C1280.72 1868.66 1279.87 1868.84 1279.08 1869.26C1278.28 1869.52 1277.57 1869.98 1276.97 1870.62C1276.32 1871.21 1275.88 1871.92 1275.6 1872.74C1275.19 1873.52 1275 1874.36 1275.04 1875.27C1275.11 1875.86 1275.2 1876.44 1275.28 1877.02C1275.59 1878.13 1276.15 1879.1 1276.97 1879.92L1278.3 1880.96C1279.33 1881.56 1280.43 1881.85 1281.62 1881.85C1282.3 1881.85 1282.96 1881.85 1283.64 1881.85C1284.55 1881.88 1285.4 1881.7 1286.18 1881.29C1286.99 1881.02 1287.7 1880.57 1288.3 1879.92C1288.94 1879.33 1289.39 1878.62 1289.66 1877.81C1290.06 1877.02 1290.26 1876.18 1290.23 1875.27C1290.14 1874.69 1290.06 1874.1 1289.99 1873.52C1289.67 1872.41 1289.11 1871.44 1288.3 1870.62Z" fill="#F8C14A"/>
<path d="M1205.6 1854.48C1204.92 1853.81 1204.26 1853.14 1203.58 1852.47C1202.99 1851.82 1202.29 1851.37 1201.47 1851.1C1200.68 1850.69 1199.83 1850.5 1198.93 1850.54C1198.02 1850.5 1197.18 1850.69 1196.4 1851.1C1195.58 1851.37 1194.87 1851.82 1194.28 1852.47L1193.25 1853.8C1192.65 1854.82 1192.35 1855.93 1192.35 1857.12C1192.43 1857.7 1192.51 1858.29 1192.58 1858.87C1192.9 1859.98 1193.46 1860.95 1194.28 1861.78C1194.95 1862.44 1195.62 1863.12 1196.3 1863.8C1196.89 1864.44 1197.6 1864.89 1198.42 1865.16C1199.2 1865.56 1200.04 1865.76 1200.94 1865.71C1201.85 1865.76 1202.7 1865.56 1203.49 1865.16C1204.3 1864.89 1205 1864.44 1205.6 1863.8L1206.64 1862.47C1207.23 1861.43 1207.53 1860.33 1207.53 1859.14C1207.45 1858.55 1207.38 1857.97 1207.29 1857.38C1206.99 1856.27 1206.42 1855.3 1205.6 1854.48" fill="#F8C14A"/>
<path d="M1124.93 1824.23L1123.59 1823.2C1122.57 1822.6 1121.47 1822.31 1120.28 1822.31C1118.93 1822.31 1117.59 1822.31 1116.24 1822.31C1115.34 1822.27 1114.49 1822.46 1113.7 1822.87C1112.89 1823.14 1112.19 1823.59 1111.59 1824.23C1110.94 1824.83 1110.49 1825.53 1110.22 1826.35C1109.81 1827.14 1109.63 1827.98 1109.66 1828.88C1109.73 1829.47 1109.81 1830.05 1109.9 1830.64C1110.2 1831.75 1110.77 1832.72 1111.59 1833.54L1112.92 1834.57C1113.94 1835.16 1115.06 1835.47 1116.24 1835.47C1117.59 1835.47 1118.93 1835.47 1120.28 1835.47C1121.18 1835.5 1122.02 1835.31 1122.81 1834.9C1123.63 1834.64 1124.33 1834.18 1124.93 1833.54C1125.57 1832.95 1126.02 1832.24 1126.29 1831.42C1126.7 1830.64 1126.89 1829.79 1126.85 1828.88C1126.78 1828.3 1126.7 1827.71 1126.62 1827.14C1126.31 1826.02 1125.74 1825.05 1124.93 1824.23" fill="#F8C14A"/>
<path d="M1401.24 2056.16L1399.91 2055.14C1398.88 2054.55 1397.77 2054.24 1396.58 2054.24C1395.91 2054.24 1395.24 2054.24 1394.57 2054.24C1393.66 2054.21 1392.82 2054.4 1392.04 2054.81C1391.22 2055.07 1390.51 2055.53 1389.91 2056.16C1389.28 2056.76 1388.82 2057.47 1388.55 2058.29C1388.14 2059.07 1387.95 2059.91 1387.98 2060.83C1388.07 2061.41 1388.14 2061.98 1388.22 2062.57C1388.54 2063.69 1389.09 2064.66 1389.91 2065.47L1391.25 2066.51C1392.28 2067.1 1393.38 2067.4 1394.57 2067.4C1395.24 2067.4 1395.91 2067.4 1396.58 2067.4C1397.49 2067.44 1398.34 2067.25 1399.12 2066.84C1399.94 2066.58 1400.64 2066.12 1401.24 2065.47C1401.88 2064.89 1402.34 2064.18 1402.6 2063.36C1403.02 2062.57 1403.2 2061.73 1403.17 2060.83C1403.09 2060.24 1403 2059.66 1402.93 2059.07C1402.62 2057.96 1402.06 2056.99 1401.24 2056.16" fill="#F8C14A"/>
<path d="M1346.73 2054.21C1346.03 2053.57 1345.33 2052.92 1344.63 2052.28C1344.04 2051.64 1343.33 2051.19 1342.51 2050.92C1341.73 2050.51 1340.89 2050.32 1339.98 2050.35C1339.06 2050.32 1338.22 2050.51 1337.44 2050.92C1336.62 2051.19 1335.92 2051.64 1335.32 2052.28L1334.29 2053.61C1333.7 2054.64 1333.39 2055.75 1333.39 2056.94C1333.47 2057.53 1333.55 2058.1 1333.63 2058.68C1333.94 2059.8 1334.51 2060.77 1335.32 2061.59C1336.02 2062.24 1336.72 2062.88 1337.42 2063.52C1338.02 2064.17 1338.72 2064.61 1339.53 2064.89C1340.32 2065.29 1341.17 2065.49 1342.07 2065.45C1342.98 2065.49 1343.83 2065.29 1344.61 2064.89C1345.42 2064.61 1346.13 2064.17 1346.73 2063.52L1347.75 2062.19C1348.35 2061.16 1348.65 2060.06 1348.66 2058.87C1348.57 2058.29 1348.5 2057.7 1348.42 2057.11C1348.1 2056 1347.55 2055.03 1346.73 2054.21" fill="#F8C14A"/>
<path d="M1277.39 2058.44C1278.19 2058.86 1279.03 2059.04 1279.93 2059.01C1280.84 2059.04 1281.69 2058.86 1282.47 2058.44C1283.28 2058.18 1283.99 2057.72 1284.59 2057.08L1285.61 2055.75C1286.21 2054.72 1286.51 2053.61 1286.52 2052.43C1286.44 2051.84 1286.36 2051.27 1286.28 2050.68C1286.25 2050.57 1286.18 2050.47 1286.15 2050.36C1285.82 2049.38 1285.32 2048.51 1284.59 2047.77C1283.25 2046.44 1281.9 2045.08 1280.55 2043.74C1279.95 2043.1 1279.25 2042.65 1278.43 2042.38C1277.64 2041.97 1276.8 2041.78 1275.9 2041.81C1274.99 2041.78 1274.14 2041.97 1273.36 2042.38C1272.54 2042.65 1271.84 2043.1 1271.24 2043.74L1270.21 2045.07C1269.62 2046.11 1269.31 2047.21 1269.31 2048.4C1269.39 2048.99 1269.47 2049.57 1269.55 2050.15C1269.86 2051.27 1270.42 2052.24 1271.24 2053.05C1271.55 2053.36 1271.85 2053.67 1272.17 2053.97C1273.21 2055.01 1274.24 2056.04 1275.28 2057.08C1275.88 2057.72 1276.59 2058.18 1277.39 2058.44" fill="#F8C14A"/>
<path d="M1206.37 2037.24L1207.72 2038.27C1208.74 2038.87 1209.84 2039.16 1211.03 2039.17C1211.71 2039.17 1212.38 2039.17 1213.05 2039.17C1213.95 2039.21 1214.8 2039.02 1215.59 2038.61C1216.41 2038.33 1217.1 2037.89 1217.7 2037.24C1218.35 2036.64 1218.81 2035.95 1219.07 2035.12C1219.48 2034.34 1219.67 2033.49 1219.63 2032.59C1219.56 2032 1219.47 2031.42 1219.39 2030.84C1219.09 2029.72 1218.52 2028.75 1217.7 2027.93L1216.37 2026.91C1215.35 2026.31 1214.24 2026.01 1213.05 2026C1212.38 2026 1211.71 2026 1211.03 2026C1210.13 2025.97 1209.28 2026.17 1208.5 2026.57C1207.68 2026.84 1206.97 2027.29 1206.37 2027.93C1205.73 2028.53 1205.28 2029.24 1205.01 2030.05C1204.61 2030.83 1204.41 2031.68 1204.44 2032.59C1204.53 2033.17 1204.61 2033.75 1204.68 2034.33C1205 2035.46 1205.56 2036.43 1206.37 2037.24" fill="#F8C14A"/>
<path d="M1135.78 2019.09C1136.38 2019.73 1137.09 2020.19 1137.91 2020.45C1138.69 2020.87 1139.53 2021.05 1140.44 2021.02C1141.03 2020.94 1141.61 2020.87 1142.19 2020.78C1143.31 2020.47 1144.28 2019.91 1145.1 2019.09L1146.13 2017.76C1146.72 2016.73 1147.03 2015.62 1147.03 2014.43C1147.03 2013.77 1147.03 2013.09 1147.03 2012.42C1147.06 2011.51 1146.87 2010.67 1146.46 2009.89C1146.2 2009.07 1145.74 2008.36 1145.1 2007.76C1144.5 2007.13 1143.8 2006.67 1142.98 2006.41C1142.2 2005.99 1141.36 2005.8 1140.44 2005.83C1139.86 2005.92 1139.27 2005.99 1138.69 2006.07C1137.58 2006.39 1136.61 2006.95 1135.78 2007.76L1134.76 2009.1C1134.16 2010.13 1133.86 2011.23 1133.86 2012.42C1133.86 2013.09 1133.86 2013.77 1133.86 2014.43C1133.82 2015.34 1134.02 2016.19 1134.42 2016.97C1134.69 2017.79 1135.15 2018.5 1135.78 2019.09" fill="#F8C14A"/>
<path d="M1092.04 2002.86C1100.51 2002.86 1100.52 1989.7 1092.04 1989.7C1083.56 1989.7 1083.55 2002.86 1092.04 2002.86Z" fill="#F8C14A"/>
<path d="M1082.57 2142.89L1081.24 2141.87C1080.22 2141.27 1079.1 2140.97 1077.92 2140.96C1077.25 2140.96 1076.58 2140.96 1075.9 2140.96C1074.99 2140.93 1074.15 2141.13 1073.37 2141.53C1072.55 2141.8 1071.84 2142.25 1071.24 2142.89C1070.61 2143.49 1070.15 2144.2 1069.89 2145.02C1069.48 2145.79 1069.29 2146.64 1069.32 2147.55C1069.4 2148.14 1069.48 2148.71 1069.55 2149.3C1069.87 2150.42 1070.44 2151.39 1071.24 2152.2L1072.58 2153.23C1073.61 2153.83 1074.71 2154.12 1075.9 2154.13C1076.58 2154.13 1077.25 2154.13 1077.92 2154.13C1078.82 2154.17 1079.67 2153.98 1080.46 2153.57C1081.27 2153.29 1081.98 2152.85 1082.57 2152.2C1083.22 2151.6 1083.67 2150.91 1083.94 2150.09C1084.35 2149.3 1084.53 2148.45 1084.5 2147.55C1084.43 2146.97 1084.35 2146.38 1084.27 2145.8C1083.96 2144.68 1083.39 2143.71 1082.57 2142.89" fill="#F8C14A"/>
<path d="M1035.57 2096.59C1027.09 2096.59 1027.08 2109.77 1035.57 2109.77C1044.04 2109.77 1044.05 2096.59 1035.57 2096.59Z" fill="#F8C14A"/>
<path d="M997.25 2042.14C988.778 2042.14 988.767 2055.3 997.25 2055.3C1005.72 2055.3 1005.73 2042.14 997.25 2042.14Z" fill="#F8C14A"/>
<path d="M1731.96 1746.37C1662.08 1797.94 1579.63 1831.75 1493.5 1843.27C1485.23 1844.39 1485.11 1857.57 1493.5 1856.44C1581.99 1844.59 1666.72 1810.79 1738.61 1757.74C1745.34 1752.76 1738.79 1741.33 1731.96 1746.37Z" fill="#F8C14A"/>
<path d="M951.791 1894.93C958.715 1892.7 964.134 1886.93 965.65 1879.75C965.868 1878.68 965.901 1877.59 965.988 1876.5C967.395 1871.1 965.792 1865.59 962.608 1861.15C962.281 1860.59 962.052 1859.99 961.692 1859.47C959.555 1856.39 957.003 1853.82 953.786 1851.88C951.878 1850.72 949.414 1850.85 947.429 1851.86C943.002 1851.33 938.434 1852.16 934.465 1854.46C927.802 1858.33 923.561 1865.34 922.71 1872.91C920.955 1888.3 937.769 1899.43 951.791 1894.93" fill="#F8C14A"/>
<path d="M600.355 1356.69C610.217 1361.16 620.083 1365.62 629.946 1370.09C633.074 1371.5 637.173 1371.08 638.953 1367.72C640.474 1364.84 639.938 1360.23 636.589 1358.72C626.726 1354.25 616.863 1349.79 607.001 1345.33C603.869 1343.91 599.77 1344.31 597.994 1347.68C596.472 1350.57 597.005 1355.17 600.355 1356.69Z" fill="#F8C14A"/>
<path d="M637.35 1200.73C650.996 1206.65 664.019 1213.89 676.243 1222.36C679.082 1224.34 683.677 1222.98 685.251 1220.01C687.025 1216.65 685.917 1213.1 682.889 1211C670.665 1202.53 657.642 1195.28 643.993 1189.37C640.843 1188.01 636.785 1188.32 634.987 1191.72C633.485 1194.57 633.976 1199.27 637.35 1200.73" fill="#F8C14A"/>
<path d="M705.818 1052.73C721.556 1064.05 737.296 1075.38 753.035 1086.71C755.921 1088.79 760.366 1087.21 762.04 1084.35C763.982 1081.03 762.574 1077.43 759.678 1075.34C743.94 1064.02 728.202 1052.69 712.464 1041.36C709.575 1039.28 705.132 1040.86 703.456 1043.73C701.517 1047.04 702.925 1050.65 705.818 1052.73Z" fill="#F8C14A"/>
<path d="M828.921 986.796C830.782 989.696 834.847 991.146 837.933 989.162C840.822 987.297 842.283 983.252 840.288 980.155C834.094 970.527 827.905 960.899 821.711 951.271C819.852 948.381 815.782 946.931 812.706 948.915C809.814 950.78 808.35 954.814 810.345 957.922C816.537 967.55 822.729 977.178 828.921 986.796Z" fill="#F8C14A"/>
<path d="M1158.15 1367.72C1160.24 1370.97 1163.78 1371.61 1167.15 1370.09C1177.02 1365.62 1186.88 1361.16 1196.75 1356.69C1199.89 1355.27 1200.89 1350.46 1199.1 1347.68C1197.01 1344.43 1193.46 1343.8 1190.1 1345.33C1180.24 1349.79 1170.37 1354.25 1160.51 1358.72C1157.36 1360.13 1156.36 1364.94 1158.15 1367.72Z" fill="#F8C14A"/>
<path d="M1120.86 1222.36C1133.08 1213.89 1146.1 1206.65 1159.75 1200.73C1162.92 1199.36 1163.88 1194.47 1162.12 1191.72C1159.99 1188.43 1156.5 1187.9 1153.11 1189.37C1139.46 1195.28 1126.44 1202.53 1114.22 1211C1111.38 1212.95 1109.82 1216.86 1111.85 1220.01C1113.66 1222.81 1117.82 1224.47 1120.86 1222.36Z" fill="#F8C14A"/>
<path d="M1044.07 1086.71C1059.81 1075.38 1075.54 1064.05 1091.28 1052.73C1094.16 1050.65 1095.56 1047 1093.64 1043.72C1091.97 1040.88 1087.53 1039.26 1084.63 1041.36C1068.9 1052.69 1053.15 1064.02 1037.42 1075.34C1034.54 1077.42 1033.15 1081.07 1035.06 1084.35C1036.72 1087.2 1041.17 1088.8 1044.07 1086.71Z" fill="#F8C14A"/>
<path d="M959.173 989.162C962.444 990.885 966.184 989.903 968.18 986.796C974.373 977.178 980.567 967.55 986.76 957.922C988.625 955.022 987.447 950.529 984.394 948.915C981.123 947.182 977.383 948.174 975.387 951.271C969.194 960.899 963.001 970.527 956.807 980.155C954.943 983.056 956.12 987.548 959.173 989.162Z" fill="#F8C14A"/>
<path d="M942.839 1531.17C956.523 1499.94 957.275 1465.81 948.694 1433.52C940.102 1401.22 922.459 1370.66 900.368 1342.44C865.694 1375.38 842.272 1415.98 838.696 1458.32C835.893 1491.5 845.838 1525.6 868.431 1554.03C874.842 1562.1 881.45 1569.72 890.162 1572.17C894.066 1573.27 898.384 1573.37 903.323 1571.95C905.613 1571.29 908.023 1570.32 910.585 1568.99C926.832 1560.53 936.743 1545.06 942.839 1531.17Z" fill="#FFF8CD"/>
</svg>
